<svg xmlns="http://www.w3.org/2000/svg" xmlns:xlink="http://www.w3.org/1999/xlink" width="1088" height="400" viewBox="0 0 1088 400">
  <defs>
    <radialGradient id="radial-gradient" cx="0.531" cy="0.496" r="0.551" gradientTransform="translate(0.082) scale(0.837 1)" gradientUnits="objectBoundingBox">
      <stop offset="0" stop-color="#4d4d4d"/>
      <stop offset="0.087" stop-color="#696969"/>
      <stop offset="0.242" stop-color="#979797"/>
      <stop offset="0.398" stop-color="#bcbcbc"/>
      <stop offset="0.552" stop-color="#d9d9d9"/>
      <stop offset="0.705" stop-color="#eee"/>
      <stop offset="0.855" stop-color="#fafafa"/>
      <stop offset="1" stop-color="#fff"/>
    </radialGradient>
    <radialGradient id="radial-gradient-2" cx="0.565" cy="0.471" r="0.621" gradientTransform="translate(0.162) scale(0.675 1)" gradientUnits="objectBoundingBox">
      <stop offset="0" stop-color="#4d4d4d"/>
      <stop offset="0.084" stop-color="#696969"/>
      <stop offset="0.232" stop-color="#979797"/>
      <stop offset="0.382" stop-color="#bcbcbc"/>
      <stop offset="0.53" stop-color="#d9d9d9"/>
      <stop offset="0.676" stop-color="#eee"/>
      <stop offset="0.821" stop-color="#fafafa"/>
      <stop offset="0.96" stop-color="#fff"/>
    </radialGradient>
    <radialGradient id="radial-gradient-3" cx="0.5" cy="0.5" r="0.533" gradientTransform="translate(0.058) scale(0.885 1)" xlink:href="#radial-gradient"/>
    <radialGradient id="radial-gradient-8" cx="0.548" cy="0.5" r="0.57" gradientTransform="translate(0.105) scale(0.79 1)" xlink:href="#radial-gradient"/>
    <radialGradient id="radial-gradient-9" cx="0.539" cy="0.5" r="0.57" gradientTransform="translate(0.105) scale(0.79 1)" xlink:href="#radial-gradient"/>
  </defs>
  <g id="Group_58294" data-name="Group 58294" transform="translate(-139 -5269)">
    <rect id="Rectangle_5286" data-name="Rectangle 5286" width="1088" height="400" transform="translate(139 5269)" fill="none"/>
    <g id="Group_53629" data-name="Group 53629" transform="translate(-7091 6268.754)">
      <rect id="Rectangle_5074" data-name="Rectangle 5074" width="183.819" height="153.819" rx="28.504" transform="translate(7381.921 -764.074)" fill="url(#radial-gradient)"/>
      <rect id="Rectangle_5075" data-name="Rectangle 5075" width="227.819" height="153.819" rx="28.504" transform="translate(8069.181 -764.074)" fill="url(#radial-gradient-2)"/>
      <rect id="Rectangle_5076" data-name="Rectangle 5076" width="173.819" height="153.819" rx="28.504" transform="translate(7282.835 -961.074)" fill="url(#radial-gradient-3)"/>
      <rect id="Rectangle_5077" data-name="Rectangle 5077" width="173.819" height="153.819" rx="28.504" transform="translate(7492.921 -961.074)" fill="url(#radial-gradient-3)"/>
      <rect id="Rectangle_5078" data-name="Rectangle 5078" width="173.819" height="153.819" rx="28.504" transform="translate(7703.008 -961.074)" fill="url(#radial-gradient-3)"/>
      <rect id="Rectangle_5079" data-name="Rectangle 5079" width="173.819" height="153.819" rx="28.504" transform="translate(7913.094 -961.074)" fill="url(#radial-gradient-3)"/>
      <rect id="Rectangle_5080" data-name="Rectangle 5080" width="173.819" height="153.819" rx="28.504" transform="translate(8123.181 -961.074)" fill="url(#radial-gradient-3)"/>
      <g id="Group_53618" data-name="Group 53618">
        <path id="Path_99558" data-name="Path 99558" d="M7284.891-833.663l-.2-.027a2.054,2.054,0,0,0-2.327,1.745,2.056,2.056,0,0,0,1.746,2.327l.235.033a2.118,2.118,0,0,0,.274.018,2.059,2.059,0,0,0,2.037-1.786A2.058,2.058,0,0,0,7284.891-833.663Z" fill="#42e0e6"/>
        <path id="Path_99559" data-name="Path 99559" d="M7303.355-833.356h-.218a2.057,2.057,0,0,0-2.057,2.057,2.057,2.057,0,0,0,2.057,2.057h.218a2.057,2.057,0,0,0,2.057-2.057A2.057,2.057,0,0,0,7303.355-833.356Z" fill="#42e0e6"/>
        <path id="Path_99560" data-name="Path 99560" d="M7268.732-840.353l-.16-.123a2.058,2.058,0,0,0-2.886.372,2.057,2.057,0,0,0,.373,2.885l.186.143a2.051,2.051,0,0,0,1.242.419,2.055,2.055,0,0,0,1.64-.814A2.056,2.056,0,0,0,7268.732-840.353Z" fill="#42e0e6"/>
        <path id="Path_99561" data-name="Path 99561" d="M7322.108-833.356h-.218a2.057,2.057,0,0,0-2.058,2.057,2.057,2.057,0,0,0,2.058,2.057h.218a2.057,2.057,0,0,0,2.057-2.057A2.057,2.057,0,0,0,7322.108-833.356Z" fill="#42e0e6"/>
        <path id="Path_99562" data-name="Path 99562" d="M7257.847-854.307a2.056,2.056,0,0,0-2.7-1.086,2.057,2.057,0,0,0-1.086,2.7l.092.213a2.057,2.057,0,0,0,1.887,1.238,2.051,2.051,0,0,0,.819-.171,2.056,2.056,0,0,0,1.067-2.706Z" fill="#42e0e6"/>
        <path id="Path_99563" data-name="Path 99563" d="M7255.114-871.64v-.218a2.057,2.057,0,0,0-2.057-2.057,2.057,2.057,0,0,0-2.057,2.057v.218a2.056,2.056,0,0,0,2.057,2.057A2.056,2.056,0,0,0,7255.114-871.64Z" fill="#42e0e6"/>
        <circle id="Ellipse_3957" data-name="Ellipse 3957" cx="2.857" cy="2.857" r="2.857" transform="translate(7425.598 -911.855)" fill="#42e0e6"/>
        <path id="Path_99564" data-name="Path 99564" d="M7456.858-910.712h-20.59a8.024,8.024,0,0,0-6.1-6.1v-33.443a37.823,37.823,0,0,0-7.454-22.634,38.045,38.045,0,0,0-18.92-13.662l-.021-.006a38.014,38.014,0,0,0-11.762-1.855H7289.5a38.026,38.026,0,0,0-11.642,1.816h0a38.576,38.576,0,0,0-19.017,13.65,37.813,37.813,0,0,0-7.5,22.691v59.725a1.714,1.714,0,0,0,1.714,1.714,1.714,1.714,0,0,0,1.714-1.714v-59.725a34.642,34.642,0,0,1,24.135-33.077h0a34.606,34.606,0,0,1,10.594-1.651h102.512a34.6,34.6,0,0,1,10.721,1.692l.01,0a34.662,34.662,0,0,1,24,33.033v33.443a8.014,8.014,0,0,0-6.285,7.813,8.012,8.012,0,0,0,6.285,7.813v33.443a34.768,34.768,0,0,1-34.729,34.729h-51.256a1.714,1.714,0,0,0-1.714,1.714,1.714,1.714,0,0,0,1.714,1.714h51.256a38.2,38.2,0,0,0,38.157-38.157v-33.443a8.022,8.022,0,0,0,6.1-6.1h20.59a1.714,1.714,0,0,0,1.714-1.715A1.714,1.714,0,0,0,7456.858-910.712Zm-28.4,6.286a4.577,4.577,0,0,1-4.571-4.572,4.576,4.576,0,0,1,4.571-4.571,4.576,4.576,0,0,1,4.571,4.571A4.576,4.576,0,0,1,7428.455-904.426Z" fill="#42e0e6"/>
      </g>
      <rect id="Rectangle_5081" data-name="Rectangle 5081" width="152.541" height="132.541" rx="25.015" transform="translate(7264.485 -975.268)" fill="#f7f7f7"/>
      <g id="Group_53619" data-name="Group 53619">
        <path id="Path_99565" data-name="Path 99565" d="M7463.144-926.883a2.057,2.057,0,0,0,2.057-2.057v-.229a2.057,2.057,0,0,0-2.057-2.057,2.057,2.057,0,0,0-2.057,2.057v.229A2.057,2.057,0,0,0,7463.144-926.883Z" fill="#9a4cbc"/>
        <path id="Path_99566" data-name="Path 99566" d="M7465.026-962a2.064,2.064,0,0,0,.772.151,2.058,2.058,0,0,0,1.907-1.285l.081-.2a2.055,2.055,0,0,0-1.114-2.687,2.056,2.056,0,0,0-2.687,1.114l-.093.226A2.058,2.058,0,0,0,7465.026-962Z" fill="#9a4cbc"/>
        <path id="Path_99567" data-name="Path 99567" d="M7477.624-977.259a2.05,2.05,0,0,0,1.242-.418l.17-.128a2.057,2.057,0,0,0,.416-2.879,2.056,2.056,0,0,0-2.879-.417l-.194.146a2.059,2.059,0,0,0-.4,2.883A2.055,2.055,0,0,0,7477.624-977.259Z" fill="#9a4cbc"/>
        <path id="Path_99568" data-name="Path 99568" d="M7463.144-944.54a2.057,2.057,0,0,0,2.057-2.057v-.228a2.057,2.057,0,0,0-2.057-2.057,2.057,2.057,0,0,0-2.057,2.057v.228A2.057,2.057,0,0,0,7463.144-944.54Z" fill="#9a4cbc"/>
        <path id="Path_99569" data-name="Path 99569" d="M7463.144-889.673a2.057,2.057,0,0,0,2.057-2.057v-.228a2.057,2.057,0,0,0-2.057-2.057,2.057,2.057,0,0,0-2.057,2.057v.228A2.056,2.056,0,0,0,7463.144-889.673Z" fill="#9a4cbc"/>
        <path id="Path_99570" data-name="Path 99570" d="M7471.143-909a8.008,8.008,0,0,0-8-8,8.009,8.009,0,0,0-8,8,8.009,8.009,0,0,0,8,8A8.008,8.008,0,0,0,7471.143-909Zm-12.571,0a4.577,4.577,0,0,1,4.572-4.571,4.577,4.577,0,0,1,4.571,4.571,4.577,4.577,0,0,1-4.571,4.572A4.577,4.577,0,0,1,7458.572-909Z" fill="#9a4cbc"/>
        <circle id="Ellipse_3958" data-name="Ellipse 3958" cx="2.857" cy="2.857" r="2.857" transform="translate(7460.287 -911.855)" fill="#9a4cbc"/>
        <circle id="Ellipse_3959" data-name="Ellipse 3959" cx="2.857" cy="2.857" r="2.857" transform="translate(7635.264 -911.36) rotate(-9.217)" fill="#9a4cbc"/>
        <path id="Path_99571" data-name="Path 99571" d="M7666.945-910.712h-20.591a8.022,8.022,0,0,0-6.1-6.1v-33.443a37.82,37.82,0,0,0-7.454-22.634,38.047,38.047,0,0,0-18.921-13.662l-.022-.007a38.03,38.03,0,0,0-11.76-1.854H7499.587a38.024,38.024,0,0,0-11.642,1.816,1.713,1.713,0,0,0-1.108,2.156,1.713,1.713,0,0,0,2.156,1.108,34.6,34.6,0,0,1,10.594-1.651H7602.1a34.6,34.6,0,0,1,10.721,1.692l.01,0a34.662,34.662,0,0,1,24,33.033v33.443a8.012,8.012,0,0,0-6.285,7.813,8.011,8.011,0,0,0,6.285,7.813v33.443a34.768,34.768,0,0,1-34.728,34.729H7499.587a34.768,34.768,0,0,1-34.729-34.729v-12.787a1.715,1.715,0,0,0-1.714-1.715,1.715,1.715,0,0,0-1.715,1.715v12.787a38.2,38.2,0,0,0,38.158,38.157H7602.1a38.2,38.2,0,0,0,38.157-38.157v-33.443a8.021,8.021,0,0,0,6.1-6.1h20.591a1.715,1.715,0,0,0,1.714-1.715A1.715,1.715,0,0,0,7666.945-910.712Zm-28.4,6.286A4.577,4.577,0,0,1,7633.97-909a4.577,4.577,0,0,1,4.572-4.571,4.577,4.577,0,0,1,4.571,4.571A4.577,4.577,0,0,1,7638.542-904.426Z" fill="#9a4cbc"/>
      </g>
      <rect id="Rectangle_5082" data-name="Rectangle 5082" width="152.541" height="132.541" rx="25.015" transform="translate(7474.572 -975.268)" fill="#f7f7f7"/>
      <g id="Group_53620" data-name="Group 53620">
        <path id="Path_99572" data-name="Path 99572" d="M7770.831-984.64h.228a2.057,2.057,0,0,0,2.057-2.057,2.057,2.057,0,0,0-2.057-2.057h-.228a2.057,2.057,0,0,0-2.057,2.057A2.057,2.057,0,0,0,7770.831-984.64Z" fill="#42e0e6"/>
        <path id="Path_99573" data-name="Path 99573" d="M7751.174-984.64h.229a2.057,2.057,0,0,0,2.057-2.057,2.057,2.057,0,0,0-2.057-2.057h-.229a2.057,2.057,0,0,0-2.057,2.057A2.057,2.057,0,0,0,7751.174-984.64Z" fill="#42e0e6"/>
        <path id="Path_99574" data-name="Path 99574" d="M7809.9-984.421l.215.025a2.058,2.058,0,0,0,.247.015,2.058,2.058,0,0,0,2.04-1.814,2.057,2.057,0,0,0-1.8-2.286l-.24-.028a2.054,2.054,0,0,0-2.275,1.812A2.057,2.057,0,0,0,7809.9-984.421Z" fill="#42e0e6"/>
        <path id="Path_99575" data-name="Path 99575" d="M7790.488-984.64h.228a2.057,2.057,0,0,0,2.057-2.057,2.057,2.057,0,0,0-2.057-2.057h-.228a2.057,2.057,0,0,0-2.058,2.057A2.057,2.057,0,0,0,7790.488-984.64Z" fill="#42e0e6"/>
        <path id="Path_99576" data-name="Path 99576" d="M7731.518-984.64h.228a2.057,2.057,0,0,0,2.057-2.057,2.057,2.057,0,0,0-2.057-2.057h-.228a2.057,2.057,0,0,0-2.058,2.057A2.057,2.057,0,0,0,7731.518-984.64Z" fill="#42e0e6"/>
        <path id="Path_99577" data-name="Path 99577" d="M7711.861-984.64h.228a2.056,2.056,0,0,0,2.057-2.057,2.056,2.056,0,0,0-2.057-2.057h-.228a2.057,2.057,0,0,0-2.057,2.057A2.057,2.057,0,0,0,7711.861-984.64Z" fill="#42e0e6"/>
        <circle id="Ellipse_3960" data-name="Ellipse 3960" cx="2.857" cy="2.857" r="2.857" transform="translate(7670.373 -911.855)" fill="#42e0e6"/>
        <circle id="Ellipse_3961" data-name="Ellipse 3961" cx="2.857" cy="2.857" r="2.857" transform="translate(7844.895 -907.451) rotate(-67.5)" fill="#42e0e6"/>
        <path id="Path_99578" data-name="Path 99578" d="M7877.031-910.712h-20.59a8.023,8.023,0,0,0-6.1-6.1v-33.443a37.822,37.822,0,0,0-7.453-22.634,38.051,38.051,0,0,0-18.921-13.662,1.712,1.712,0,0,0-2.16,1.1,1.714,1.714,0,0,0,1.1,2.161,34.662,34.662,0,0,1,24.006,33.036v33.443a8.013,8.013,0,0,0-6.286,7.813,8.012,8.012,0,0,0,6.286,7.813v20.655h0v12.787a34.768,34.768,0,0,1-34.729,34.729H7709.673a34.768,34.768,0,0,1-34.728-34.729v-33.443A8.011,8.011,0,0,0,7681.23-909a8.013,8.013,0,0,0-6.285-7.813v-33.443a34.644,34.644,0,0,1,24.135-33.078,1.713,1.713,0,0,0,1.108-2.156,1.714,1.714,0,0,0-2.156-1.108,38.044,38.044,0,0,0-19.019,13.651,37.816,37.816,0,0,0-7.5,22.691v33.443A8.013,8.013,0,0,0,7665.23-909a8.012,8.012,0,0,0,6.287,7.813v33.443a38.2,38.2,0,0,0,38.157,38.157h102.512a38.2,38.2,0,0,0,38.157-38.157v-12.787h0v-20.655a8.022,8.022,0,0,0,6.1-6.1h20.59a1.714,1.714,0,0,0,1.714-1.715A1.714,1.714,0,0,0,7877.031-910.712ZM7668.659-909a4.577,4.577,0,0,1,4.571-4.571A4.577,4.577,0,0,1,7677.8-909a4.577,4.577,0,0,1-4.572,4.572A4.577,4.577,0,0,1,7668.659-909Zm179.969,4.572a4.576,4.576,0,0,1-4.571-4.572,4.576,4.576,0,0,1,4.571-4.571A4.577,4.577,0,0,1,7853.2-909,4.577,4.577,0,0,1,7848.628-904.426Z" fill="#42e0e6"/>
      </g>
      <rect id="Rectangle_5083" data-name="Rectangle 5083" width="152.541" height="132.541" rx="25.015" transform="translate(7684.659 -975.268)" fill="#f7f7f7"/>
      <g id="Group_53621" data-name="Group 53621">
        <path id="Path_99579" data-name="Path 99579" d="M8058.715-882.514A1.715,1.715,0,0,0,8057-880.8v12.787a34.768,34.768,0,0,1-34.728,34.729H7919.76a34.768,34.768,0,0,1-34.729-34.729v-33.173a8.013,8.013,0,0,0,6.285-7.813,8.012,8.012,0,0,0-6.285-7.812v-33.714a34.643,34.643,0,0,1,24.127-33.075l.007,0a34.606,34.606,0,0,1,10.594-1.651h102.512a34.577,34.577,0,0,1,10.721,1.693,1.72,1.72,0,0,0,.531.084,1.713,1.713,0,0,0,1.629-1.184,1.715,1.715,0,0,0-1.1-2.161,38.025,38.025,0,0,0-11.782-1.861H7919.76a38.012,38.012,0,0,0-11.635,1.814h-.006a38.046,38.046,0,0,0-19.019,13.651,37.819,37.819,0,0,0-7.5,22.691v33.713a8.012,8.012,0,0,0-6.286,7.813,8.012,8.012,0,0,0,6.286,7.813v33.173a38.2,38.2,0,0,0,38.158,38.158h102.512a38.2,38.2,0,0,0,38.157-38.158V-880.8A1.715,1.715,0,0,0,8058.715-882.514ZM7878.745-909a4.577,4.577,0,0,1,4.572-4.571,4.577,4.577,0,0,1,4.571,4.571,4.577,4.577,0,0,1-4.571,4.572A4.577,4.577,0,0,1,7878.745-909Z" fill="#9a4cbc"/>
        <path id="Path_99580" data-name="Path 99580" d="M8058.715-894.015a2.057,2.057,0,0,0-2.057,2.057v.228a2.056,2.056,0,0,0,2.057,2.057,2.056,2.056,0,0,0,2.057-2.057v-.228A2.057,2.057,0,0,0,8058.715-894.015Z" fill="#9a4cbc"/>
        <path id="Path_99581" data-name="Path 99581" d="M8058.715-929.762a2.057,2.057,0,0,0-2.057,2.057v.229a2.057,2.057,0,0,0,2.057,2.057,2.057,2.057,0,0,0,2.057-2.057v-.229A2.057,2.057,0,0,0,8058.715-929.762Z" fill="#9a4cbc"/>
        <path id="Path_99582" data-name="Path 99582" d="M8048.311-972.957a2.051,2.051,0,0,0,1.557.712,2.047,2.047,0,0,0,1.344-.5,2.056,2.056,0,0,0,.211-2.9l-.155-.179a2.056,2.056,0,0,0-2.9-.2,2.055,2.055,0,0,0-.2,2.9Z" fill="#9a4cbc"/>
        <path id="Path_99583" data-name="Path 99583" d="M8060.772-943.361a2.057,2.057,0,0,0-2.057-2.057,2.057,2.057,0,0,0-2.057,2.057v.228a2.057,2.057,0,0,0,2.057,2.057,2.057,2.057,0,0,0,2.057-2.057Z" fill="#9a4cbc"/>
        <path id="Path_99584" data-name="Path 99584" d="M8056.155-958.4a2.059,2.059,0,0,0,2.024,1.7,2.081,2.081,0,0,0,.358-.031,2.058,2.058,0,0,0,1.671-2.382l-.041-.231a2.058,2.058,0,0,0-2.387-1.664,2.057,2.057,0,0,0-1.663,2.387Z" fill="#9a4cbc"/>
        <circle id="Ellipse_3962" data-name="Ellipse 3962" cx="2.857" cy="2.857" r="2.857" transform="translate(7880.459 -911.855)" fill="#9a4cbc"/>
        <circle id="Ellipse_3963" data-name="Ellipse 3963" cx="2.857" cy="2.857" r="2.857" transform="translate(8055.857 -911.855)" fill="#9a4cbc"/>
        <path id="Path_99585" data-name="Path 99585" d="M8087.118-910.712h-20.59a8.013,8.013,0,0,0-7.813-6.286,8.01,8.01,0,0,0-8,8,8.01,8.01,0,0,0,8,8,8.013,8.013,0,0,0,7.813-6.285h20.59a1.714,1.714,0,0,0,1.714-1.715A1.714,1.714,0,0,0,8087.118-910.712Zm-28.4,6.286a4.577,4.577,0,0,1-4.572-4.572,4.577,4.577,0,0,1,4.572-4.571,4.577,4.577,0,0,1,4.571,4.571A4.577,4.577,0,0,1,8058.715-904.426Z" fill="#9a4cbc"/>
      </g>
      <rect id="Rectangle_5084" data-name="Rectangle 5084" width="152.541" height="132.541" rx="25.015" transform="translate(7894.745 -975.268)" fill="#f7f7f7"/>
      <g id="Group_53624" data-name="Group 53624">
        <path id="Path_99586" data-name="Path 99586" d="M8214.2-984.3h-.229a2.057,2.057,0,0,1-2.057-2.057,2.057,2.057,0,0,1,2.057-2.057h.229a2.057,2.057,0,0,1,2.057,2.057A2.057,2.057,0,0,1,8214.2-984.3Z" fill="#42e0e6"/>
        <path id="Path_99587" data-name="Path 99587" d="M8194.54-984.3h-.229a2.057,2.057,0,0,1-2.057-2.057,2.057,2.057,0,0,1,2.057-2.057h.229a2.057,2.057,0,0,1,2.057,2.057A2.057,2.057,0,0,1,8194.54-984.3Z" fill="#42e0e6"/>
        <path id="Path_99588" data-name="Path 99588" d="M8268.884-944.723a2.057,2.057,0,0,1-2.057-2.057v-.229a2.057,2.057,0,0,1,2.057-2.057,2.058,2.058,0,0,1,2.058,2.057v.229A2.058,2.058,0,0,1,8268.884-944.723Z" fill="#42e0e6"/>
        <path id="Path_99589" data-name="Path 99589" d="M8266.1-964.024a2.056,2.056,0,0,1-2.752-.945l-.093-.188a2.058,2.058,0,0,1,.92-2.76,2.05,2.05,0,0,1,.919-.218,2.058,2.058,0,0,1,1.842,1.138l.109.222A2.056,2.056,0,0,1,8266.1-964.024Z" fill="#42e0e6"/>
        <path id="Path_99590" data-name="Path 99590" d="M8233.774-984.271l-.217-.008a2.056,2.056,0,0,1-1.988-2.122,2.056,2.056,0,0,1,2.054-1.991h.068l.239.009a2.057,2.057,0,0,1,1.978,2.134A2.051,2.051,0,0,1,8233.774-984.271Z" fill="#42e0e6"/>
        <path id="Path_99591" data-name="Path 99591" d="M8251.22-978.7l-.18-.117a2.058,2.058,0,0,1-.617-2.843,2.058,2.058,0,0,1,1.732-.945,2.041,2.041,0,0,1,1.11.328l.2.131a2.057,2.057,0,0,1,.6,2.847A2.059,2.059,0,0,1,8251.22-978.7Z" fill="#42e0e6"/>
        <circle id="Ellipse_3964" data-name="Ellipse 3964" cx="2.857" cy="2.857" r="2.857" transform="translate(8090.546 -911.512)" fill="#42e0e6"/>
        <g id="Group_53622" data-name="Group 53622">
          <circle id="Ellipse_3965" data-name="Ellipse 3965" cx="2.857" cy="2.857" r="2.857" transform="translate(8175.315 -833.773)" fill="#42e0e6"/>
          <path id="Path_99592" data-name="Path 99592" d="M8179.887-796.513V-823.1a8.012,8.012,0,0,0,6.285-7.813,8.009,8.009,0,0,0-8-8,8.01,8.01,0,0,0-8,8,8.012,8.012,0,0,0,6.286,7.813v26.59a1.714,1.714,0,0,0,1.714,1.714A1.714,1.714,0,0,0,8179.887-796.513Zm-6.286-34.4a4.576,4.576,0,0,1,4.571-4.571,4.577,4.577,0,0,1,4.572,4.571,4.577,4.577,0,0,1-4.572,4.571A4.576,4.576,0,0,1,8173.6-830.916Z" fill="#42e0e6"/>
        </g>
        <g id="Group_53623" data-name="Group 53623">
          <path id="Path_99593" data-name="Path 99593" d="M8268.884-928.837a1.713,1.713,0,0,0-1.714,1.714V-867.4a34.663,34.663,0,0,1-24.008,33.036,34.612,34.612,0,0,1-10.721,1.693H8184v3.428h48.441a38.017,38.017,0,0,0,11.781-1.861,38.053,38.053,0,0,0,18.921-13.662A37.813,37.813,0,0,0,8270.6-867.4v-59.724A1.713,1.713,0,0,0,8268.884-928.837Z" fill="#42e0e6"/>
          <path id="Path_99594" data-name="Path 99594" d="M8172-832.67h-42.071a34.607,34.607,0,0,1-10.594-1.652l-.012,0A34.644,34.644,0,0,1,8095.2-867.4v-33.462a8.013,8.013,0,0,0,6.2-7.794,8.013,8.013,0,0,0-6.2-7.794v-33.462a34.768,34.768,0,0,1,34.729-34.729h51.256a1.714,1.714,0,0,0,1.714-1.714,1.714,1.714,0,0,0-1.714-1.714h-51.256a38.2,38.2,0,0,0-38.157,38.157v33.424a8.013,8.013,0,0,0-6.368,7.832,8.012,8.012,0,0,0,6.368,7.832V-867.4a37.82,37.82,0,0,0,7.5,22.691,38.046,38.046,0,0,0,19.019,13.651l.013,0a38.027,38.027,0,0,0,11.628,1.811H8172Zm-83.168-75.985a4.576,4.576,0,0,1,4.571-4.571,4.577,4.577,0,0,1,4.572,4.571,4.577,4.577,0,0,1-4.572,4.571A4.576,4.576,0,0,1,8088.832-908.655Z" fill="#42e0e6"/>
        </g>
      </g>
      <rect id="Rectangle_5085" data-name="Rectangle 5085" width="152.541" height="132.541" rx="25.015" transform="translate(8104.832 -975.268)" fill="#f7f7f7"/>
      <text id="Identificar_la_causa." data-name="Identificar
la causa." transform="translate(7340.755 -913.546)" fill="#23147b" font-size="16" font-family="Roboto-Medium, Roboto" font-weight="500"><tspan x="-36.203" y="0">Identificar</tspan><tspan x="-32.016" y="19.2">la causa.</tspan></text>
      <text id="Identificar_las_acciones._" data-name="Identificar
las acciones. " transform="translate(7550.842 -913.546)" fill="#23147b" font-size="16" font-family="Roboto-Medium, Roboto" font-weight="500"><tspan x="-36.203" y="0">Identificar</tspan><tspan x="-48.891" y="19.2">las acciones. </tspan></text>
      <text id="Analizar_la_viabilidad." data-name="Analizar
la viabilidad." transform="translate(7760.93 -913.922)" fill="#23147b" font-size="16" font-family="Roboto-Medium, Roboto" font-weight="500"><tspan x="-29.164" y="0">Analizar</tspan><tspan x="-44.918" y="19.2">la viabilidad.</tspan></text>
      <text id="Establecer_prioridades." data-name="Establecer
prioridades." transform="translate(7971.016 -913.922)" fill="#23147b" font-size="16" font-family="Roboto-Medium, Roboto" font-weight="500"><tspan x="-37.773" y="0">Establecer</tspan><tspan x="-42.785" y="19.2">prioridades.</tspan></text>
      <text id="Disponer_de_un_plan_de_acción." data-name="Disponer de un
plan de acción." transform="translate(8181.103 -913.922)" fill="#23147b" font-size="16" font-family="Roboto-Medium, Roboto" font-weight="500"><tspan x="-53.699" y="0">Disponer de un</tspan><tspan x="-54.102" y="19.2">plan de acción.</tspan></text>
      <rect id="Rectangle_5086" data-name="Rectangle 5086" width="194.819" height="153.819" rx="28.504" transform="translate(7604.008 -764.074)" fill="url(#radial-gradient-8)"/>
      <rect id="Rectangle_5087" data-name="Rectangle 5087" width="194.819" height="153.819" rx="28.504" transform="translate(7837.094 -764.074)" fill="url(#radial-gradient-9)"/>
      <rect id="Rectangle_5088" data-name="Rectangle 5088" width="173.541" height="132.541" rx="25.015" transform="translate(7352.572 -778.268)" fill="#f7f7f7"/>
      <rect id="Rectangle_5089" data-name="Rectangle 5089" width="173.541" height="132.541" rx="25.015" transform="translate(7585.659 -778.268)" fill="#f7f7f7"/>
      <text id="Involucrar_y_motivar_a_todo_el_personal." data-name="Involucrar y motivar
a todo el personal." transform="translate(7439.343 -716.922)" fill="#23147b" font-size="16" font-family="Roboto-Medium, Roboto" font-weight="500"><tspan x="-70.809" y="0">Involucrar y motivar</tspan><tspan x="-66.156" y="19.2">a todo el personal.</tspan></text>
      <text id="Incrementar_la_eficiencia_y_eficacia." data-name="Incrementar la
eficiencia y eficacia." transform="translate(7672.429 -716.922)" fill="#23147b" font-size="16" font-family="Roboto-Medium, Roboto" font-weight="500"><tspan x="-51.793" y="0">Incrementar la</tspan><tspan x="-72.617" y="19.2">eficiencia y eficacia.</tspan></text>
      <g id="Group_53625" data-name="Group 53625">
        <path id="Path_99595" data-name="Path 99595" d="M8214.2-787.3h-.229a2.057,2.057,0,0,1-2.057-2.057,2.057,2.057,0,0,1,2.057-2.057h.229a2.057,2.057,0,0,1,2.057,2.057A2.057,2.057,0,0,1,8214.2-787.3Z" fill="#9a4cbc"/>
        <path id="Path_99596" data-name="Path 99596" d="M8194.54-787.3h-.229a2.057,2.057,0,0,1-2.057-2.057,2.057,2.057,0,0,1,2.057-2.057h.229a2.057,2.057,0,0,1,2.057,2.057A2.057,2.057,0,0,1,8194.54-787.3Z" fill="#9a4cbc"/>
        <path id="Path_99597" data-name="Path 99597" d="M8268.884-747.723a2.057,2.057,0,0,1-2.057-2.057v-.229a2.057,2.057,0,0,1,2.057-2.057,2.058,2.058,0,0,1,2.058,2.057v.229A2.058,2.058,0,0,1,8268.884-747.723Z" fill="#9a4cbc"/>
        <path id="Path_99598" data-name="Path 99598" d="M8266.1-767.024a2.056,2.056,0,0,1-2.752-.945l-.093-.188a2.058,2.058,0,0,1,.92-2.76,2.05,2.05,0,0,1,.919-.218,2.058,2.058,0,0,1,1.842,1.138l.109.222A2.056,2.056,0,0,1,8266.1-767.024Z" fill="#9a4cbc"/>
        <path id="Path_99599" data-name="Path 99599" d="M8233.774-787.271l-.217-.008a2.056,2.056,0,0,1-1.988-2.122,2.056,2.056,0,0,1,2.054-1.991h.068l.239.009a2.057,2.057,0,0,1,1.978,2.134A2.051,2.051,0,0,1,8233.774-787.271Z" fill="#9a4cbc"/>
        <path id="Path_99600" data-name="Path 99600" d="M8251.22-781.7l-.18-.117a2.058,2.058,0,0,1-.617-2.843,2.058,2.058,0,0,1,1.732-.945,2.041,2.041,0,0,1,1.11.328l.2.131a2.057,2.057,0,0,1,.6,2.847A2.059,2.059,0,0,1,8251.22-781.7Z" fill="#9a4cbc"/>
        <path id="Path_99601" data-name="Path 99601" d="M8267.17-670.4a34.663,34.663,0,0,1-24.008,33.036,34.612,34.612,0,0,1-10.721,1.693H8075.929a34.607,34.607,0,0,1-10.594-1.652l-.011,0A34.644,34.644,0,0,1,8041.2-670.4v-33.462a8.013,8.013,0,0,0,6.2-7.794,8.013,8.013,0,0,0-6.2-7.794v-33.462a34.768,34.768,0,0,1,34.729-34.729h95.256a1.714,1.714,0,0,0,1.714-1.714,1.714,1.714,0,0,0-1.714-1.714h-95.256a38.2,38.2,0,0,0-38.157,38.157v33.424a8.013,8.013,0,0,0-6.369,7.832,8.012,8.012,0,0,0,6.369,7.832V-670.4a37.816,37.816,0,0,0,7.5,22.691,38.046,38.046,0,0,0,19.019,13.651l.013,0a38.032,38.032,0,0,0,11.628,1.811h156.512a38.017,38.017,0,0,0,11.781-1.861,38.043,38.043,0,0,0,18.921-13.662A37.826,37.826,0,0,0,8270.6-670.4v-59.724a1.714,1.714,0,0,0-1.714-1.715,1.714,1.714,0,0,0-1.714,1.715ZM8039.4-707.084a4.576,4.576,0,0,1-4.571-4.571,4.576,4.576,0,0,1,4.571-4.571,4.577,4.577,0,0,1,4.572,4.571A4.577,4.577,0,0,1,8039.4-707.084Z" fill="#9a4cbc"/>
        <circle id="Ellipse_3966" data-name="Ellipse 3966" cx="2.857" cy="2.857" r="2.857" transform="translate(8036.546 -714.512)" fill="#9a4cbc"/>
        <path id="Path_99602" data-name="Path 99602" d="M8178.172-797.773a8.009,8.009,0,0,0-8,7.987,8.009,8.009,0,0,0,8,7.988,8.008,8.008,0,0,0,8-7.988A8.007,8.007,0,0,0,8178.172-797.773Zm0,12.546a4.577,4.577,0,0,1-4.571-4.571,4.577,4.577,0,0,1,4.571-4.572,4.577,4.577,0,0,1,4.572,4.572A4.577,4.577,0,0,1,8178.172-785.227Z" fill="#9a4cbc"/>
        <circle id="Ellipse_3967" data-name="Ellipse 3967" cx="2.857" cy="2.857" r="2.857" transform="translate(8175.315 -792.655)" fill="#9a4cbc"/>
        <path id="Path_99603" data-name="Path 99603" d="M8033-713.712h-22.086A1.715,1.715,0,0,0,8009.2-712a1.714,1.714,0,0,0,1.715,1.714H8033Z" fill="#9a4cbc"/>
      </g>
      <rect id="Rectangle_5090" data-name="Rectangle 5090" width="206.541" height="132.541" rx="25.015" transform="translate(8050.832 -778.268)" fill="#f7f7f7"/>
      <text id="Contar_con_un_sistema_de_seguimiento_y_control." data-name="Contar con un sistema
de seguimiento y control." transform="translate(8154.103 -716.922)" fill="#23147b" font-size="16" font-family="Roboto-Medium, Roboto" font-weight="500"><tspan x="-80.633" y="0">Contar con un sistema</tspan><tspan x="-90.324" y="19.2">de seguimiento y control.</tspan></text>
      <g id="Group_53626" data-name="Group 53626">
        <path id="Path_99604" data-name="Path 99604" d="M8003-694.113a2.057,2.057,0,0,0-2.057,2.057v.229A2.057,2.057,0,0,0,8003-689.77a2.057,2.057,0,0,0,2.057-2.057v-.229A2.057,2.057,0,0,0,8003-694.113Z" fill="#42e0e6"/>
        <path id="Path_99605" data-name="Path 99605" d="M8001.115-658.992a2.048,2.048,0,0,0-.772-.152,2.058,2.058,0,0,0-1.907,1.285l-.081.2a2.057,2.057,0,0,0,1.114,2.688,2.057,2.057,0,0,0,2.687-1.114l.093-.226A2.058,2.058,0,0,0,8001.115-658.992Z" fill="#42e0e6"/>
        <path id="Path_99606" data-name="Path 99606" d="M7988.517-643.737a2.05,2.05,0,0,0-1.242.418l-.17.129a2.056,2.056,0,0,0-.416,2.879,2.057,2.057,0,0,0,2.879.416l.194-.146a2.058,2.058,0,0,0,.4-2.882A2.056,2.056,0,0,0,7988.517-643.737Z" fill="#42e0e6"/>
        <path id="Path_99607" data-name="Path 99607" d="M8003-676.456a2.057,2.057,0,0,0-2.057,2.057v.229a2.057,2.057,0,0,0,2.057,2.057,2.057,2.057,0,0,0,2.057-2.057v-.229A2.057,2.057,0,0,0,8003-676.456Z" fill="#42e0e6"/>
        <path id="Path_99608" data-name="Path 99608" d="M8003-731.323a2.057,2.057,0,0,0-2.057,2.057v.229A2.057,2.057,0,0,0,8003-726.98a2.057,2.057,0,0,0,2.057-2.057v-.229A2.057,2.057,0,0,0,8003-731.323Z" fill="#42e0e6"/>
        <path id="Path_99609" data-name="Path 99609" d="M7995-712a8.008,8.008,0,0,0,8,8,8.009,8.009,0,0,0,8-8,8.009,8.009,0,0,0-8-8A8.008,8.008,0,0,0,7995-712Zm12.571,0a4.577,4.577,0,0,1-4.572,4.572,4.577,4.577,0,0,1-4.571-4.572,4.576,4.576,0,0,1,4.571-4.571A4.576,4.576,0,0,1,8007.569-712Z" fill="#42e0e6"/>
        <circle id="Ellipse_3968" data-name="Ellipse 3968" cx="2.857" cy="2.857" r="2.857" transform="translate(8000.14 -714.855)" fill="#42e0e6"/>
        <circle id="Ellipse_3969" data-name="Ellipse 3969" cx="2.857" cy="2.857" r="2.857" transform="translate(7803.321 -714.36) rotate(-9.217)" fill="#42e0e6"/>
        <path id="Path_99610" data-name="Path 99610" d="M7778.2-710.284h20.591a8.021,8.021,0,0,0,6.1,6.1v33.443a37.829,37.829,0,0,0,7.454,22.635,38.058,38.058,0,0,0,18.921,13.662l.022.006a38.024,38.024,0,0,0,11.76,1.854h123.512A38.05,38.05,0,0,0,7978.2-634.4a1.714,1.714,0,0,0,1.108-2.157,1.715,1.715,0,0,0-2.156-1.108,34.6,34.6,0,0,1-10.594,1.652H7843.042a34.61,34.61,0,0,1-10.721-1.693l-.01,0a34.664,34.664,0,0,1-24-33.034v-33.443A8.012,8.012,0,0,0,7814.6-712a8.012,8.012,0,0,0-6.285-7.813v-33.443a34.768,34.768,0,0,1,34.728-34.729h123.512a34.769,34.769,0,0,1,34.729,34.729v12.788a1.714,1.714,0,0,0,1.714,1.714,1.714,1.714,0,0,0,1.715-1.714v-12.788a38.2,38.2,0,0,0-38.158-38.157H7843.042a38.2,38.2,0,0,0-38.157,38.157v33.443a8.022,8.022,0,0,0-6.1,6.1H7778.2a1.714,1.714,0,0,0-1.714,1.714A1.714,1.714,0,0,0,7778.2-710.284Zm28.4-6.285a4.576,4.576,0,0,1,4.572,4.571,4.577,4.577,0,0,1-4.572,4.572,4.577,4.577,0,0,1-4.571-4.572A4.576,4.576,0,0,1,7806.6-716.569Z" fill="#42e0e6"/>
      </g>
      <rect id="Rectangle_5091" data-name="Rectangle 5091" width="173.541" height="132.541" rx="25.015" transform="translate(7818.745 -778.268)" fill="#f7f7f7"/>
      <text id="Concertar_la_estrategia_a_seguir." data-name="Concertar la
estrategia a seguir." transform="translate(7905.516 -716.922)" fill="#23147b" font-size="16" font-family="Roboto-Medium, Roboto" font-weight="500"><tspan x="-43.879" y="0">Concertar la</tspan><tspan x="-68.094" y="19.2">estrategia a seguir.</tspan></text>
      <g id="Group_53627" data-name="Group 53627">
        <path id="Path_99611" data-name="Path 99611" d="M7661.31-636.356h-.228a2.056,2.056,0,0,0-2.057,2.057,2.056,2.056,0,0,0,2.057,2.057h.228a2.057,2.057,0,0,0,2.057-2.057A2.057,2.057,0,0,0,7661.31-636.356Z" fill="#9a4cbc"/>
        <path id="Path_99612" data-name="Path 99612" d="M7685.967-636.356h-.229a2.057,2.057,0,0,0-2.057,2.057,2.057,2.057,0,0,0,2.057,2.057h.229a2.057,2.057,0,0,0,2.057-2.057A2.057,2.057,0,0,0,7685.967-636.356Z" fill="#9a4cbc"/>
        <path id="Path_99613" data-name="Path 99613" d="M7614.237-636.574l-.215-.025a2.058,2.058,0,0,0-.247-.015,2.058,2.058,0,0,0-2.04,1.813,2.059,2.059,0,0,0,1.8,2.287l.24.028a2.054,2.054,0,0,0,2.275-1.813A2.055,2.055,0,0,0,7614.237-636.574Z" fill="#9a4cbc"/>
        <path id="Path_99614" data-name="Path 99614" d="M7637.653-636.356h-.228a2.057,2.057,0,0,0-2.057,2.057,2.057,2.057,0,0,0,2.057,2.057h.228a2.057,2.057,0,0,0,2.058-2.057A2.057,2.057,0,0,0,7637.653-636.356Z" fill="#9a4cbc"/>
        <path id="Path_99615" data-name="Path 99615" d="M7711.623-636.356h-.228a2.057,2.057,0,0,0-2.057,2.057,2.057,2.057,0,0,0,2.057,2.057h.228a2.058,2.058,0,0,0,2.058-2.057A2.058,2.058,0,0,0,7711.623-636.356Z" fill="#9a4cbc"/>
        <path id="Path_99616" data-name="Path 99616" d="M7731.28-636.356h-.228A2.056,2.056,0,0,0,7729-634.3a2.056,2.056,0,0,0,2.057,2.057h.228a2.057,2.057,0,0,0,2.057-2.057A2.057,2.057,0,0,0,7731.28-636.356Z" fill="#9a4cbc"/>
        <circle id="Ellipse_3970" data-name="Ellipse 3970" cx="2.857" cy="2.857" r="2.857" transform="translate(7767.054 -714.855)" fill="#9a4cbc"/>
        <circle id="Ellipse_3971" data-name="Ellipse 3971" cx="2.857" cy="2.857" r="2.857" transform="translate(7569.78 -710.452) rotate(-67.5)" fill="#9a4cbc"/>
        <path id="Path_99617" data-name="Path 99617" d="M7545.11-710.284h20.59a8.022,8.022,0,0,0,6.1,6.1v33.443a37.828,37.828,0,0,0,7.453,22.635,38.056,38.056,0,0,0,18.921,13.662,1.714,1.714,0,0,0,2.16-1.1,1.714,1.714,0,0,0-1.1-2.16,34.663,34.663,0,0,1-24.006-33.037v-33.443a8.012,8.012,0,0,0,6.286-7.813,8.013,8.013,0,0,0-6.286-7.813v-20.655h0v-12.788a34.769,34.769,0,0,1,34.729-34.729h123.512a34.768,34.768,0,0,1,34.728,34.729v33.443a8.013,8.013,0,0,0-6.285,7.813,8.011,8.011,0,0,0,6.285,7.813v33.443a34.644,34.644,0,0,1-24.135,33.078,1.713,1.713,0,0,0-1.108,2.156,1.713,1.713,0,0,0,2.156,1.108,38.046,38.046,0,0,0,19.019-13.651,37.813,37.813,0,0,0,7.5-22.691v-33.443a8.013,8.013,0,0,0,6.287-7.813,8.013,8.013,0,0,0-6.287-7.813v-33.443a38.2,38.2,0,0,0-38.157-38.157H7609.956a38.2,38.2,0,0,0-38.157,38.157v12.788h0v20.655a8.023,8.023,0,0,0-6.1,6.1h-20.59A1.714,1.714,0,0,0,7543.4-712,1.714,1.714,0,0,0,7545.11-710.284ZM7774.482-712a4.577,4.577,0,0,1-4.571,4.572,4.577,4.577,0,0,1-4.572-4.572,4.577,4.577,0,0,1,4.572-4.571A4.576,4.576,0,0,1,7774.482-712Zm-200.969-4.571a4.575,4.575,0,0,1,4.571,4.571,4.576,4.576,0,0,1-4.571,4.572,4.577,4.577,0,0,1-4.572-4.572A4.577,4.577,0,0,1,7573.513-716.569Z" fill="#9a4cbc"/>
      </g>
      <g id="Group_53628" data-name="Group 53628">
        <path id="Path_99618" data-name="Path 99618" d="M7340.426-738.482a1.714,1.714,0,0,0,1.715-1.714v-12.788a34.768,34.768,0,0,1,34.728-34.729h123.512a34.769,34.769,0,0,1,34.729,34.729v33.173a8.014,8.014,0,0,0-6.285,7.813,8.013,8.013,0,0,0,6.285,7.813v33.713a34.642,34.642,0,0,1-24.127,33.075l-.007,0a34.607,34.607,0,0,1-10.594,1.652H7376.869a34.606,34.606,0,0,1-10.721-1.693,1.721,1.721,0,0,0-.531-.085,1.715,1.715,0,0,0-1.629,1.185,1.714,1.714,0,0,0,1.1,2.16,38.021,38.021,0,0,0,11.782,1.861h123.512a38.041,38.041,0,0,0,11.635-1.813l.006,0a38.042,38.042,0,0,0,19.019-13.651,37.82,37.82,0,0,0,7.5-22.691v-33.713a8.012,8.012,0,0,0,6.286-7.813,8.012,8.012,0,0,0-6.286-7.813v-33.173a38.2,38.2,0,0,0-38.158-38.157H7376.869a38.2,38.2,0,0,0-38.157,38.157V-740.2A1.714,1.714,0,0,0,7340.426-738.482ZM7541.4-712a4.577,4.577,0,0,1-4.572,4.572,4.577,4.577,0,0,1-4.571-4.572,4.576,4.576,0,0,1,4.571-4.571A4.576,4.576,0,0,1,7541.4-712Z" fill="#42e0e6"/>
        <path id="Path_99619" data-name="Path 99619" d="M7340.426-726.98a2.057,2.057,0,0,0,2.057-2.057v-.229a2.057,2.057,0,0,0-2.057-2.057,2.057,2.057,0,0,0-2.057,2.057v.229A2.057,2.057,0,0,0,7340.426-726.98Z" fill="#42e0e6"/>
        <path id="Path_99620" data-name="Path 99620" d="M7340.426-691.234a2.057,2.057,0,0,0,2.057-2.057v-.229a2.057,2.057,0,0,0-2.057-2.057,2.057,2.057,0,0,0-2.057,2.057v.229A2.057,2.057,0,0,0,7340.426-691.234Z" fill="#42e0e6"/>
        <path id="Path_99621" data-name="Path 99621" d="M7350.83-648.039a2.054,2.054,0,0,0-1.557-.711,2.048,2.048,0,0,0-1.344.5,2.057,2.057,0,0,0-.211,2.9l.155.179a2.056,2.056,0,0,0,2.9.2,2.057,2.057,0,0,0,.2-2.9Z" fill="#42e0e6"/>
        <path id="Path_99622" data-name="Path 99622" d="M7338.369-677.634a2.057,2.057,0,0,0,2.057,2.057,2.057,2.057,0,0,0,2.057-2.057v-.229a2.057,2.057,0,0,0-2.057-2.057,2.057,2.057,0,0,0-2.057,2.057Z" fill="#42e0e6"/>
        <path id="Path_99623" data-name="Path 99623" d="M7342.986-662.593a2.059,2.059,0,0,0-2.024-1.7,2.084,2.084,0,0,0-.358.032,2.056,2.056,0,0,0-1.671,2.381l.041.232a2.057,2.057,0,0,0,2.387,1.663,2.057,2.057,0,0,0,1.663-2.387Z" fill="#42e0e6"/>
        <circle id="Ellipse_3972" data-name="Ellipse 3972" cx="2.857" cy="2.857" r="2.857" transform="translate(7533.967 -714.855)" fill="#42e0e6"/>
        <circle id="Ellipse_3973" data-name="Ellipse 3973" cx="2.857" cy="2.857" r="2.857" transform="translate(7337.569 -714.855)" fill="#42e0e6"/>
      </g>
    </g>
  </g>
</svg>
