<svg xmlns="http://www.w3.org/2000/svg" xmlns:xlink="http://www.w3.org/1999/xlink" width="1088" height="370" viewBox="0 0 1088 370">
  <defs>
    <radialGradient id="radial-gradient" cx="0.531" cy="0.496" r="0.551" gradientTransform="translate(0.082) scale(0.837 1)" gradientUnits="objectBoundingBox">
      <stop offset="0" stop-color="#4d4d4d"/>
      <stop offset="0.087" stop-color="#696969"/>
      <stop offset="0.242" stop-color="#979797"/>
      <stop offset="0.398" stop-color="#bcbcbc"/>
      <stop offset="0.552" stop-color="#d9d9d9"/>
      <stop offset="0.705" stop-color="#eee"/>
      <stop offset="0.855" stop-color="#fafafa"/>
      <stop offset="1" stop-color="#fff"/>
    </radialGradient>
    <radialGradient id="radial-gradient-2" cx="0.586" cy="0.471" r="0.621" gradientTransform="translate(0.162) scale(0.675 1)" gradientUnits="objectBoundingBox">
      <stop offset="0" stop-color="#4d4d4d"/>
      <stop offset="0.084" stop-color="#696969"/>
      <stop offset="0.232" stop-color="#979797"/>
      <stop offset="0.382" stop-color="#bcbcbc"/>
      <stop offset="0.53" stop-color="#d9d9d9"/>
      <stop offset="0.676" stop-color="#eee"/>
      <stop offset="0.821" stop-color="#fafafa"/>
      <stop offset="0.96" stop-color="#fff"/>
    </radialGradient>
    <radialGradient id="radial-gradient-4" cx="0.578" cy="0.471" r="0.621" xlink:href="#radial-gradient-2"/>
    <radialGradient id="radial-gradient-5" cx="0.536" cy="0.41" r="0.837" gradientTransform="translate(0.239 0.108) scale(0.554 0.736)" xlink:href="#radial-gradient"/>
  </defs>
  <g id="t1-i15" transform="translate(-139 -7849)">
    <rect id="Rectangle_5287" data-name="Rectangle 5287" width="1088" height="370" transform="translate(139 7849)" fill="none"/>
    <g id="Group_53640" data-name="Group 53640" transform="translate(-8223 8852.411)">
      <g id="Group_53636" data-name="Group 53636">
        <g id="Group_53632" data-name="Group 53632">
          <rect id="Rectangle_5093" data-name="Rectangle 5093" width="183.819" height="153.819" rx="28.504" transform="translate(8438.353 -961.074)" fill="url(#radial-gradient)"/>
          <rect id="Rectangle_5094" data-name="Rectangle 5094" width="227.819" height="153.819" rx="28.504" transform="translate(8659.611 -961.074)" fill="url(#radial-gradient-2)"/>
          <g id="Group_53630" data-name="Group 53630">
            <path id="Path_99624" data-name="Path 99624" d="M8804.627-984.3h-.228a2.057,2.057,0,0,1-2.058-2.057,2.057,2.057,0,0,1,2.058-2.057h.228a2.056,2.056,0,0,1,2.057,2.057A2.056,2.056,0,0,1,8804.627-984.3Z" fill="#9a4cbc"/>
            <path id="Path_99625" data-name="Path 99625" d="M8784.971-984.3h-.229a2.058,2.058,0,0,1-2.058-2.057,2.058,2.058,0,0,1,2.058-2.057h.229a2.057,2.057,0,0,1,2.058,2.057A2.057,2.057,0,0,1,8784.971-984.3Z" fill="#9a4cbc"/>
            <path id="Path_99626" data-name="Path 99626" d="M8859.315-944.723a2.057,2.057,0,0,1-2.059-2.057v-.229a2.057,2.057,0,0,1,2.059-2.057,2.057,2.057,0,0,1,2.057,2.057v.229A2.057,2.057,0,0,1,8859.315-944.723Z" fill="#9a4cbc"/>
            <path id="Path_99627" data-name="Path 99627" d="M8856.533-964.024a2.055,2.055,0,0,1-2.751-.945l-.093-.188a2.056,2.056,0,0,1,.92-2.76,2.04,2.04,0,0,1,.918-.218,2.058,2.058,0,0,1,1.842,1.138l.108.222A2.056,2.056,0,0,1,8856.533-964.024Z" fill="#9a4cbc"/>
            <path id="Path_99628" data-name="Path 99628" d="M8824.2-984.271l-.215-.008A2.056,2.056,0,0,1,8822-986.4a2.058,2.058,0,0,1,2.055-1.991h.068l.24.009a2.057,2.057,0,0,1,1.977,2.134A2.052,2.052,0,0,1,8824.2-984.271Z" fill="#9a4cbc"/>
            <path id="Path_99629" data-name="Path 99629" d="M8841.651-978.7l-.181-.117a2.059,2.059,0,0,1-.617-2.843,2.058,2.058,0,0,1,1.732-.945,2.047,2.047,0,0,1,1.111.328l.2.131a2.058,2.058,0,0,1,.6,2.847A2.058,2.058,0,0,1,8841.651-978.7Z" fill="#9a4cbc"/>
            <path id="Path_99630" data-name="Path 99630" d="M8857.6-867.4a34.662,34.662,0,0,1-24.007,33.036,34.607,34.607,0,0,1-10.721,1.693H8666.36a34.61,34.61,0,0,1-10.595-1.652l-.012,0a34.644,34.644,0,0,1-24.122-33.074v-33.462a8.013,8.013,0,0,0,6.2-7.794,8.013,8.013,0,0,0-6.2-7.794v-33.462a34.769,34.769,0,0,1,34.729-34.729h102.256a1.714,1.714,0,0,0,1.714-1.714,1.714,1.714,0,0,0-1.714-1.714H8666.36a38.2,38.2,0,0,0-38.158,38.157v33.424a8.014,8.014,0,0,0-6.369,7.832,8.013,8.013,0,0,0,6.369,7.832V-867.4a37.808,37.808,0,0,0,7.5,22.691,38.04,38.04,0,0,0,19.019,13.651l.014,0a38.017,38.017,0,0,0,11.628,1.811h156.512a38.012,38.012,0,0,0,11.781-1.861,38.054,38.054,0,0,0,18.922-13.662,37.826,37.826,0,0,0,7.454-22.634v-59.724a1.715,1.715,0,0,0-1.714-1.715,1.716,1.716,0,0,0-1.716,1.715Zm-227.766-36.685a4.576,4.576,0,0,1-4.571-4.571,4.576,4.576,0,0,1,4.571-4.571,4.575,4.575,0,0,1,4.571,4.571A4.575,4.575,0,0,1,8629.834-904.084Z" fill="#9a4cbc"/>
            <circle id="Ellipse_3974" data-name="Ellipse 3974" cx="2.857" cy="2.857" r="2.857" transform="translate(8626.977 -911.512)" fill="#9a4cbc"/>
            <path id="Path_99631" data-name="Path 99631" d="M8623.431-910.712h-22.087A1.714,1.714,0,0,0,8599.63-909a1.714,1.714,0,0,0,1.714,1.714h22.087Z" fill="#9a4cbc"/>
          </g>
          <rect id="Rectangle_5095" data-name="Rectangle 5095" width="206.541" height="132.541" rx="25.015" transform="translate(8641.263 -975.268)" fill="#f7f7f7"/>
          <text id="Superar_las_debilidades_apoyándose_en_las_fortalezas." data-name="Superar las
debilidades apoyándose
en las fortalezas." transform="translate(8744.533 -923.522)" fill="#23147b" font-size="16" font-family="Roboto-Medium, Roboto" font-weight="500"><tspan x="-40.398" y="0">Superar las</tspan><tspan x="-86.648" y="19.2">debilidades apoyándose</tspan><tspan x="-61.664" y="38.4">en las fortalezas.</tspan></text>
          <rect id="Rectangle_5096" data-name="Rectangle 5096" width="173.541" height="132.541" rx="25.015" transform="translate(8409.003 -975.268)" fill="#f7f7f7"/>
          <text id="Identificar_el_área_de_mejora." data-name="Identificar el
área de mejora." transform="translate(8495.773 -913.922)" fill="#23147b" font-size="16" font-family="Roboto-Medium, Roboto" font-weight="500"><tspan x="-44.531" y="0">Identificar el</tspan><tspan x="-55.551" y="19.2">área de mejora.</tspan></text>
          <g id="Group_53631" data-name="Group 53631">
            <path id="Path_99632" data-name="Path 99632" d="M8396.857-935.482a1.714,1.714,0,0,0,1.714-1.714v-12.788a34.768,34.768,0,0,1,34.729-34.729h123.512a34.769,34.769,0,0,1,34.729,34.729v33.173a8.013,8.013,0,0,0-6.285,7.813,8.012,8.012,0,0,0,6.285,7.813v33.713a34.644,34.644,0,0,1-24.127,33.075l-.007,0a34.61,34.61,0,0,1-10.595,1.652H8433.3a34.6,34.6,0,0,1-10.721-1.693,1.724,1.724,0,0,0-.531-.085,1.717,1.717,0,0,0-1.63,1.185,1.714,1.714,0,0,0,1.1,2.16,38.028,38.028,0,0,0,11.782,1.861h123.512a38.036,38.036,0,0,0,11.635-1.813l.007,0a38.045,38.045,0,0,0,19.019-13.651,37.815,37.815,0,0,0,7.5-22.691v-33.713a8.012,8.012,0,0,0,6.287-7.813,8.012,8.012,0,0,0-6.287-7.813v-33.173a38.2,38.2,0,0,0-38.157-38.157H8433.3a38.2,38.2,0,0,0-38.157,38.157V-937.2A1.714,1.714,0,0,0,8396.857-935.482ZM8597.826-909a4.576,4.576,0,0,1-4.571,4.572,4.577,4.577,0,0,1-4.571-4.572,4.576,4.576,0,0,1,4.571-4.571A4.575,4.575,0,0,1,8597.826-909Z" fill="#42e0e6"/>
            <path id="Path_99633" data-name="Path 99633" d="M8396.857-923.98a2.057,2.057,0,0,0,2.057-2.057v-.229a2.057,2.057,0,0,0-2.057-2.057,2.057,2.057,0,0,0-2.058,2.057v.229A2.057,2.057,0,0,0,8396.857-923.98Z" fill="#42e0e6"/>
            <path id="Path_99634" data-name="Path 99634" d="M8396.857-888.234a2.057,2.057,0,0,0,2.057-2.057v-.229a2.057,2.057,0,0,0-2.057-2.057,2.057,2.057,0,0,0-2.058,2.057v.229A2.057,2.057,0,0,0,8396.857-888.234Z" fill="#42e0e6"/>
            <path id="Path_99635" data-name="Path 99635" d="M8407.261-845.039a2.053,2.053,0,0,0-1.557-.711,2.048,2.048,0,0,0-1.345.5,2.058,2.058,0,0,0-.211,2.9l.155.179a2.057,2.057,0,0,0,2.9.2,2.058,2.058,0,0,0,.2-2.9Z" fill="#42e0e6"/>
            <path id="Path_99636" data-name="Path 99636" d="M8394.8-874.634a2.056,2.056,0,0,0,2.058,2.057,2.057,2.057,0,0,0,2.057-2.057v-.229a2.057,2.057,0,0,0-2.057-2.057,2.056,2.056,0,0,0-2.058,2.057Z" fill="#42e0e6"/>
            <path id="Path_99637" data-name="Path 99637" d="M8399.416-859.593a2.058,2.058,0,0,0-2.023-1.7,2.082,2.082,0,0,0-.357.032,2.056,2.056,0,0,0-1.671,2.381l.041.232a2.055,2.055,0,0,0,2.386,1.663,2.057,2.057,0,0,0,1.664-2.387Z" fill="#42e0e6"/>
            <circle id="Ellipse_3975" data-name="Ellipse 3975" cx="2.857" cy="2.857" r="2.857" transform="translate(8590.397 -911.855)" fill="#42e0e6"/>
            <circle id="Ellipse_3976" data-name="Ellipse 3976" cx="2.857" cy="2.857" r="2.857" transform="translate(8394 -911.855)" fill="#42e0e6"/>
          </g>
        </g>
        <g id="Group_53635" data-name="Group 53635">
          <rect id="Rectangle_5097" data-name="Rectangle 5097" width="183.819" height="153.819" rx="28.504" transform="translate(8968.922 -961.074)" fill="url(#radial-gradient)"/>
          <rect id="Rectangle_5098" data-name="Rectangle 5098" width="227.819" height="153.819" rx="28.504" transform="translate(9190.181 -961.074)" fill="url(#radial-gradient-4)"/>
          <g id="Group_53633" data-name="Group 53633">
            <path id="Path_99638" data-name="Path 99638" d="M9335.2-984.3h-.229a2.057,2.057,0,0,1-2.057-2.057,2.057,2.057,0,0,1,2.057-2.057h.229a2.057,2.057,0,0,1,2.057,2.057A2.057,2.057,0,0,1,9335.2-984.3Z" fill="#9a4cbc"/>
            <path id="Path_99639" data-name="Path 99639" d="M9315.54-984.3h-.229a2.057,2.057,0,0,1-2.057-2.057,2.057,2.057,0,0,1,2.057-2.057h.229a2.057,2.057,0,0,1,2.057,2.057A2.057,2.057,0,0,1,9315.54-984.3Z" fill="#9a4cbc"/>
            <path id="Path_99640" data-name="Path 99640" d="M9389.884-944.723a2.057,2.057,0,0,1-2.057-2.057v-.229a2.057,2.057,0,0,1,2.057-2.057,2.058,2.058,0,0,1,2.058,2.057v.229A2.058,2.058,0,0,1,9389.884-944.723Z" fill="#9a4cbc"/>
            <path id="Path_99641" data-name="Path 99641" d="M9387.1-964.024a2.056,2.056,0,0,1-2.752-.945l-.093-.188a2.058,2.058,0,0,1,.92-2.76,2.05,2.05,0,0,1,.919-.218,2.058,2.058,0,0,1,1.842,1.138l.109.222A2.056,2.056,0,0,1,9387.1-964.024Z" fill="#9a4cbc"/>
            <path id="Path_99642" data-name="Path 99642" d="M9354.774-984.271l-.217-.008a2.056,2.056,0,0,1-1.988-2.122,2.056,2.056,0,0,1,2.054-1.991h.068l.239.009a2.057,2.057,0,0,1,1.978,2.134A2.051,2.051,0,0,1,9354.774-984.271Z" fill="#9a4cbc"/>
            <path id="Path_99643" data-name="Path 99643" d="M9372.22-978.7l-.18-.117a2.058,2.058,0,0,1-.617-2.843,2.058,2.058,0,0,1,1.732-.945,2.041,2.041,0,0,1,1.11.328l.2.131a2.057,2.057,0,0,1,.6,2.847A2.059,2.059,0,0,1,9372.22-978.7Z" fill="#9a4cbc"/>
            <path id="Path_99644" data-name="Path 99644" d="M9388.17-867.4a34.663,34.663,0,0,1-24.008,33.036,34.612,34.612,0,0,1-10.721,1.693H9196.929a34.609,34.609,0,0,1-10.594-1.652l-.011,0A34.643,34.643,0,0,1,9162.2-867.4v-33.462a8.013,8.013,0,0,0,6.2-7.794,8.013,8.013,0,0,0-6.2-7.794v-33.462a34.768,34.768,0,0,1,34.729-34.729h102.256a1.714,1.714,0,0,0,1.715-1.714,1.714,1.714,0,0,0-1.715-1.714H9196.929a38.2,38.2,0,0,0-38.156,38.157v33.424a8.012,8.012,0,0,0-6.369,7.832,8.011,8.011,0,0,0,6.369,7.832V-867.4a37.819,37.819,0,0,0,7.5,22.691,38.051,38.051,0,0,0,19.02,13.651l.013,0a38.031,38.031,0,0,0,11.628,1.811h156.513a38.017,38.017,0,0,0,11.781-1.861,38.043,38.043,0,0,0,18.921-13.662A37.826,37.826,0,0,0,9391.6-867.4v-59.724a1.714,1.714,0,0,0-1.714-1.715,1.714,1.714,0,0,0-1.714,1.715ZM9160.4-904.084a4.576,4.576,0,0,1-4.571-4.571,4.576,4.576,0,0,1,4.571-4.571,4.576,4.576,0,0,1,4.571,4.571A4.576,4.576,0,0,1,9160.4-904.084Z" fill="#9a4cbc"/>
            <circle id="Ellipse_3977" data-name="Ellipse 3977" cx="2.857" cy="2.857" r="2.857" transform="translate(9157.546 -911.512)" fill="#9a4cbc"/>
            <path id="Path_99645" data-name="Path 99645" d="M9154-910.712h-22.086A1.715,1.715,0,0,0,9130.2-909a1.714,1.714,0,0,0,1.715,1.714H9154Z" fill="#9a4cbc"/>
          </g>
          <rect id="Rectangle_5099" data-name="Rectangle 5099" width="206.541" height="132.541" rx="25.015" transform="translate(9171.832 -975.268)" fill="#f7f7f7"/>
          <text id="Metodologías_para_identificar_el_origen_o_raíz_del_problema._" data-name="Metodologías para
identificar el origen o
raíz del problema. " transform="translate(9275.103 -923.522)" fill="#23147b" font-size="16" font-family="Roboto-Medium, Roboto" font-weight="500"><tspan x="-67.004" y="0">Metodologías para</tspan><tspan x="-75.543" y="19.2">identificar el origen o</tspan><tspan x="-66.07" y="38.4">raíz del problema. </tspan></text>
          <rect id="Rectangle_5100" data-name="Rectangle 5100" width="173.541" height="132.541" rx="25.015" transform="translate(8939.572 -975.268)" fill="#f7f7f7"/>
          <text id="Detectar_las_principales_causas_del_problema._" data-name="Detectar las
principales causas
del problema. " transform="translate(9026.343 -923.522)" fill="#23147b" font-size="16" font-family="Roboto-Medium, Roboto" font-weight="500"><tspan x="-42.953" y="0">Detectar las</tspan><tspan x="-66.875" y="19.2">principales causas</tspan><tspan x="-50.93" y="38.4">del problema. </tspan></text>
          <g id="Group_53634" data-name="Group 53634">
            <path id="Path_99646" data-name="Path 99646" d="M8927.426-935.482a1.714,1.714,0,0,0,1.715-1.714v-12.788a34.768,34.768,0,0,1,34.729-34.729h123.512a34.769,34.769,0,0,1,34.729,34.729v33.173a8.013,8.013,0,0,0-6.285,7.813,8.012,8.012,0,0,0,6.285,7.813v33.713a34.643,34.643,0,0,1-24.127,33.075l-.008,0a34.6,34.6,0,0,1-10.594,1.652H8963.869a34.6,34.6,0,0,1-10.721-1.693,1.729,1.729,0,0,0-.531-.085,1.713,1.713,0,0,0-1.629,1.185,1.713,1.713,0,0,0,1.1,2.16,38.018,38.018,0,0,0,11.782,1.861h123.512a38.04,38.04,0,0,0,11.635-1.813l.007,0a38.04,38.04,0,0,0,19.019-13.651,37.816,37.816,0,0,0,7.5-22.691v-33.713a8.012,8.012,0,0,0,6.286-7.813,8.012,8.012,0,0,0-6.286-7.813v-33.173a38.2,38.2,0,0,0-38.158-38.157H8963.869a38.2,38.2,0,0,0-38.157,38.157V-937.2A1.714,1.714,0,0,0,8927.426-935.482ZM9128.4-909a4.578,4.578,0,0,1-4.572,4.572,4.577,4.577,0,0,1-4.571-4.572,4.576,4.576,0,0,1,4.571-4.571A4.577,4.577,0,0,1,9128.4-909Z" fill="#42e0e6"/>
            <path id="Path_99647" data-name="Path 99647" d="M8927.426-923.98a2.058,2.058,0,0,0,2.058-2.057v-.229a2.058,2.058,0,0,0-2.058-2.057,2.057,2.057,0,0,0-2.057,2.057v.229A2.057,2.057,0,0,0,8927.426-923.98Z" fill="#42e0e6"/>
            <path id="Path_99648" data-name="Path 99648" d="M8927.426-888.234a2.058,2.058,0,0,0,2.058-2.057v-.229a2.058,2.058,0,0,0-2.058-2.057,2.057,2.057,0,0,0-2.057,2.057v.229A2.057,2.057,0,0,0,8927.426-888.234Z" fill="#42e0e6"/>
            <path id="Path_99649" data-name="Path 99649" d="M8937.83-845.039a2.054,2.054,0,0,0-1.557-.711,2.051,2.051,0,0,0-1.345.5,2.058,2.058,0,0,0-.211,2.9l.155.179a2.057,2.057,0,0,0,2.9.2,2.057,2.057,0,0,0,.2-2.9Z" fill="#42e0e6"/>
            <path id="Path_99650" data-name="Path 99650" d="M8925.369-874.634a2.057,2.057,0,0,0,2.057,2.057,2.058,2.058,0,0,0,2.058-2.057v-.229a2.058,2.058,0,0,0-2.058-2.057,2.057,2.057,0,0,0-2.057,2.057Z" fill="#42e0e6"/>
            <path id="Path_99651" data-name="Path 99651" d="M8929.986-859.593a2.06,2.06,0,0,0-2.024-1.7,2.085,2.085,0,0,0-.358.032,2.058,2.058,0,0,0-1.671,2.381l.041.232a2.058,2.058,0,0,0,2.388,1.663,2.058,2.058,0,0,0,1.663-2.387Z" fill="#42e0e6"/>
            <circle id="Ellipse_3978" data-name="Ellipse 3978" cx="2.857" cy="2.857" r="2.857" transform="translate(9120.967 -911.855)" fill="#42e0e6"/>
            <circle id="Ellipse_3979" data-name="Ellipse 3979" cx="2.857" cy="2.857" r="2.857" transform="translate(8924.569 -911.855)" fill="#42e0e6"/>
          </g>
        </g>
      </g>
      <g id="Group_53639" data-name="Group 53639">
        <rect id="Rectangle_5101" data-name="Rectangle 5101" width="219.819" height="121.819" rx="28.504" transform="translate(8857.092 -770.706)" fill="url(#radial-gradient-5)"/>
        <rect id="Rectangle_5102" data-name="Rectangle 5102" width="206.541" height="102.541" rx="25.015" transform="translate(8830.742 -784.9)" fill="#f7f7f7"/>
        <text id="Formular_el_objetivo." data-name="Formular el objetivo." transform="translate(8934.013 -729.954)" fill="#23147b" font-size="18" font-family="Roboto-Bold, Roboto" font-weight="700"><tspan x="-83.237" y="0">Formular el objetivo.</tspan></text>
        <g id="Group_53637" data-name="Group 53637">
          <path id="Path_99652" data-name="Path 99652" d="M8818.6-745.114a1.714,1.714,0,0,0,1.714-1.714v-12.788a34.769,34.769,0,0,1,34.729-34.729h156.512a34.768,34.768,0,0,1,34.729,34.729v17.174A8.011,8.011,0,0,0,9040-734.63a8.012,8.012,0,0,0,6.284,7.813V-709.1a34.643,34.643,0,0,1-24.127,33.075l-.008,0a34.6,34.6,0,0,1-10.593,1.652H8855.04a34.609,34.609,0,0,1-10.722-1.693,1.728,1.728,0,0,0-.53-.085,1.714,1.714,0,0,0-1.63,1.185,1.714,1.714,0,0,0,1.1,2.16,38.011,38.011,0,0,0,11.782,1.861h156.512a38.034,38.034,0,0,0,11.634-1.813l.007,0a38.04,38.04,0,0,0,19.019-13.651,37.816,37.816,0,0,0,7.5-22.691v-17.713a8.012,8.012,0,0,0,6.286-7.813,8.012,8.012,0,0,0-6.286-7.813v-17.173a38.2,38.2,0,0,0-38.157-38.157H8855.04a38.2,38.2,0,0,0-38.158,38.157v12.788A1.715,1.715,0,0,0,8818.6-745.114Zm233.97,10.484a4.578,4.578,0,0,1-4.571,4.572,4.577,4.577,0,0,1-4.572-4.572A4.577,4.577,0,0,1,9048-739.2,4.577,4.577,0,0,1,9052.566-734.63Z" fill="#42e0e6"/>
          <path id="Path_99653" data-name="Path 99653" d="M8818.6-713.866a2.057,2.057,0,0,0,2.058-2.057v-.228a2.057,2.057,0,0,0-2.058-2.058,2.057,2.057,0,0,0-2.057,2.058v.228A2.057,2.057,0,0,0,8818.6-713.866Z" fill="#42e0e6"/>
          <path id="Path_99654" data-name="Path 99654" d="M8818.6-732.458a2.057,2.057,0,0,0,2.058-2.057v-.229a2.057,2.057,0,0,0-2.058-2.057,2.057,2.057,0,0,0-2.057,2.057v.229A2.057,2.057,0,0,0,8818.6-732.458Z" fill="#42e0e6"/>
          <path id="Path_99655" data-name="Path 99655" d="M8829-686.67a2.05,2.05,0,0,0-1.557-.712,2.051,2.051,0,0,0-1.345.5,2.059,2.059,0,0,0-.211,2.9l.155.179a2.057,2.057,0,0,0,2.9.2,2.057,2.057,0,0,0,.2-2.9Z" fill="#42e0e6"/>
          <path id="Path_99656" data-name="Path 99656" d="M8821.156-701.225a2.058,2.058,0,0,0-2.024-1.7,2.072,2.072,0,0,0-.357.031,2.058,2.058,0,0,0-1.672,2.381l.041.232a2.058,2.058,0,0,0,2.388,1.663,2.058,2.058,0,0,0,1.663-2.387Z" fill="#42e0e6"/>
          <circle id="Ellipse_3980" data-name="Ellipse 3980" cx="2.857" cy="2.857" r="2.857" transform="translate(9045.138 -737.487)" fill="#42e0e6"/>
        </g>
        <g id="t1-i15-2" data-name="t1-i15">
          <path id="Path_99657" data-name="Path 99657" d="M8787.552-763.614h-46.845a4.816,4.816,0,0,0-4.817,4.817v12.041a4.817,4.817,0,0,0,4.817,4.817h46.845a4.818,4.818,0,0,0,4.818-4.818V-758.8A4.817,4.817,0,0,0,8787.552-763.614Z" fill="#f5f5f5"/>
          <path id="Path_99658" data-name="Path 99658" d="M8786.807-759.537h-24.431v.024h-20.923a1.471,1.471,0,0,0-1.471,1.471v10.554a1.471,1.471,0,0,0,1.471,1.471h21.342v-.025h24.012a1.47,1.47,0,0,0,1.471-1.47v-10.555A1.47,1.47,0,0,0,8786.807-759.537Z" fill="#a397e3"/>
          <path id="Path_99659" data-name="Path 99659" d="M8788.277-756.369v-1.7a1.47,1.47,0,0,0-1.471-1.47h-24.431v.024h-20.923a1.471,1.471,0,0,0-1.471,1.471v1.673Z" fill="#e4e0ff"/>
          <path id="Path_99660" data-name="Path 99660" d="M8792.241-759.89a4.817,4.817,0,0,0-4.689-3.724h-46.845a4.814,4.814,0,0,0-4.688,3.725Z" fill="#ebe5ed"/>
          <path id="Path_99661" data-name="Path 99661" d="M8786.81-760.317h-13v-.008h-23.65a.8.8,0,0,0-.767.767.8.8,0,0,0,.767.833h23.65v0h13a.67.67,0,0,1,.669.67V-747.5a.669.669,0,0,1-.669.669H8781.3a.12.12,0,0,1-.021.005H8741.45a.671.671,0,0,1-.67-.67v-10.554a.671.671,0,0,1,.67-.67h5.512a.8.8,0,0,0,.767-.767.8.8,0,0,0-.767-.833h-5.512a2.275,2.275,0,0,0-2.271,2.271v10.542a2.274,2.274,0,0,0,2.271,2.271h39.827a.143.143,0,0,0,.02.005h5.513a2.274,2.274,0,0,0,2.271-2.271v-10.542A2.275,2.275,0,0,0,8786.81-760.317Z" fill="#23147b"/>
          <path id="Path_99662" data-name="Path 99662" d="M8787.552-764.414h-6.705v0h-40.14a5.619,5.619,0,0,0-5.618,5.618v12.039a5.619,5.619,0,0,0,5.618,5.618h13.445a.8.8,0,0,0,.766-.833.8.8,0,0,0-.834-.767h-13.377a4.022,4.022,0,0,1-4.017-4.017V-758.8a4.023,4.023,0,0,1,4.017-4.017h46.845a4.023,4.023,0,0,1,4.018,4.017v12.04a4.023,4.023,0,0,1-4.018,4.017h-30.34a.8.8,0,0,0-.765.833.8.8,0,0,0,.833.766h30.271a5.617,5.617,0,0,0,5.618-5.618V-758.8A5.618,5.618,0,0,0,8787.552-764.414Z" fill="#23147b"/>
          <path id="Path_99663" data-name="Path 99663" d="M8740.707-727.319h46.845a4.818,4.818,0,0,1,4.818,4.817v12.041a4.818,4.818,0,0,1-4.818,4.817h-46.845a4.817,4.817,0,0,1-4.817-4.817V-722.5A4.817,4.817,0,0,1,8740.707-727.319Z" fill="#f5f5f5"/>
          <path id="Path_99664" data-name="Path 99664" d="M8741.453-723.242h24.431v.024h20.923a1.471,1.471,0,0,1,1.471,1.471v10.555a1.47,1.47,0,0,1-1.471,1.47h-21.342v-.024h-24.012a1.471,1.471,0,0,1-1.471-1.471v-10.555A1.47,1.47,0,0,1,8741.453-723.242Z" fill="#a397e3"/>
          <path id="Path_99665" data-name="Path 99665" d="M8739.982-720.073v-1.7a1.47,1.47,0,0,1,1.471-1.47h24.431v.024h20.923a1.471,1.471,0,0,1,1.471,1.471v1.674Z" fill="#e4e0ff"/>
          <path id="Path_99666" data-name="Path 99666" d="M8736.019-723.594a4.815,4.815,0,0,1,4.688-3.725h46.845a4.816,4.816,0,0,1,4.689,3.726Z" fill="#ebe5ed"/>
          <path id="Path_99667" data-name="Path 99667" d="M8741.45-724.022h13v-.007h23.651a.8.8,0,0,1,.766.766.8.8,0,0,1-.766.833h-23.651v0h-13a.672.672,0,0,0-.67.67v10.555a.671.671,0,0,0,.67.67h5.512a.161.161,0,0,1,.021.005h39.826a.67.67,0,0,0,.669-.67v-10.555a.67.67,0,0,0-.669-.67H8781.3a.8.8,0,0,1-.767-.766.8.8,0,0,1,.767-.833h5.513a2.274,2.274,0,0,1,2.271,2.271v10.542a2.275,2.275,0,0,1-2.271,2.271h-39.826c-.008,0-.014,0-.021,0h-5.512a2.274,2.274,0,0,1-2.271-2.271V-721.75A2.275,2.275,0,0,1,8741.45-724.022Z" fill="#23147b"/>
          <path id="Path_99668" data-name="Path 99668" d="M8740.707-728.118h6.705v0h40.14a5.617,5.617,0,0,1,5.618,5.617v12.039a5.617,5.617,0,0,1-5.618,5.618h-13.377c-.021,0-.045,0-.066,0a.8.8,0,0,1-.767-.833.8.8,0,0,1,.833-.766h13.377a4.023,4.023,0,0,0,4.018-4.017V-722.5a4.022,4.022,0,0,0-4.018-4.016h-46.845a4.023,4.023,0,0,0-4.017,4.017v12.041a4.022,4.022,0,0,0,4.017,4.016h30.273c.021,0,.045,0,.066,0a.8.8,0,0,1,.767.833.8.8,0,0,1-.833.767h-30.273a5.619,5.619,0,0,1-5.618-5.617V-722.5A5.619,5.619,0,0,1,8740.707-728.118Z" fill="#23147b"/>
        </g>
      </g>
    </g>
  </g>
</svg>
