<svg xmlns="http://www.w3.org/2000/svg" width="133" height="133" viewBox="0 0 133 133">
  <g id="t1-i10" transform="translate(-6468.643 -39.625)">
    <g id="Elipse_26" data-name="Elipse 26">
      <circle id="Ellipse_3955" data-name="Ellipse 3955" cx="66.5" cy="66.5" r="66.5" transform="translate(6468.643 39.625)" fill="#f3f9ff"/>
      <circle id="Ellipse_3956" data-name="Ellipse 3956" cx="65.5" cy="65.5" r="65.5" transform="translate(6469.643 40.625)" fill="none" stroke="#9a4cbc" stroke-width="2"/>
    </g>
    <g id="Group_53537" data-name="Group 53537">
      <g id="Grupo_53458" data-name="Grupo 53458">
        <path id="Trazado_98889" data-name="Trazado 98889" d="M6536.4,67.149a37.061,37.061,0,0,0-17.094,69.8,1.466,1.466,0,0,1,.777,1.295l0,8.949a1.471,1.471,0,0,0,2.423,1.121l8.263-7.016a1.479,1.479,0,0,1,1.149-.336,37.059,37.059,0,1,0,4.485-73.811Z" fill="#ffea99"/>
      </g>
      <path id="Trazado_98898" data-name="Trazado 98898" d="M6533.447,121.654a3.22,3.22,0,1,0,3.221-3.218h0A3.22,3.22,0,0,0,6533.447,121.654Z" fill="#23147b"/>
      <path id="Trazado_98899" data-name="Trazado 98899" d="M6541.5,103.638a11.9,11.9,0,1,0-16.722-10.874,1.947,1.947,0,0,0,3.892,0,8.239,8.239,0,0,1,.077-1.118,8.006,8.006,0,1,1,11.17,8.441,8.68,8.68,0,0,0-5.2,7.9v3.755a1.948,1.948,0,0,0,3.9,0v-3.764A4.78,4.78,0,0,1,6541.5,103.638Z" fill="#23147b"/>
      <path id="Path_99206" data-name="Path 99206" d="M6556.887,137.559a39.13,39.13,0,0,0,17.88-24.97c.006,0,.469-2.18.737-4.718.064-.608.174-2.421.174-3.655a39.007,39.007,0,0,0-38.99-39.014h-.306a38.966,38.966,0,0,0-29.6,14,1.948,1.948,0,0,0,2.852,2.653,2,2,0,0,0,.132-.158,35.074,35.074,0,0,1,26.638-12.609h.275a35.112,35.112,0,0,1-.022,70.223,35.48,35.48,0,0,1-4.5-.29,3.433,3.433,0,0,0-2.658.783l-7.484,6.352,0-7.909a3.407,3.407,0,0,0-1.81-3.016,35.076,35.076,0,0,1-18.655-30.971,34.6,34.6,0,0,1,3.6-15.48,1.947,1.947,0,0,0-3.472-1.765l-.021.043a38.469,38.469,0,0,0-3.993,17.2,38.959,38.959,0,0,0,20.464,34.276l0,8.664a3.387,3.387,0,0,0,1.981,3.1,3.433,3.433,0,0,0,1.444.322,3.388,3.388,0,0,0,2.2-.818l8.107-6.882a39.46,39.46,0,0,0,4.8.3,38.782,38.782,0,0,0,16-3.43A26.979,26.979,0,0,0,6556.887,137.559Z" fill="#23147b"/>
    </g>
  </g>
</svg>
