<svg xmlns="http://www.w3.org/2000/svg" width="125" height="121" viewBox="0 0 125 121">
  <g id="t1-i11" transform="translate(-252 -6132)">
    <g id="t1-i11-2" data-name="t1-i11" transform="translate(-6052.498 6192.082)">
      <rect id="Rectangle_5067" data-name="Rectangle 5067" width="52.894" height="69.775" rx="4.259" transform="translate(6341.442 -26.738)" fill="#e4e0ff"/>
      <rect id="Rectangle_5068" data-name="Rectangle 5068" width="52.894" height="69.775" rx="4.259" transform="translate(6330.188 -35.741)" fill="#faf7f5"/>
      <g id="Grupo_53433" data-name="Grupo 53433" transform="translate(6339.728 -23.397)">
        <g id="Grupo_53432" data-name="Grupo 53432">
          <g id="Grupo_53425" data-name="Grupo 53425" transform="translate(0.043 15.756)">
            <g id="Grupo_53424" data-name="Grupo 53424">
              <path id="Trazado_98820" data-name="Trazado 98820" d="M6370.51-8.452H6340.2a1.682,1.682,0,0,1-1.682-1.682,1.682,1.682,0,0,1,1.682-1.682h30.313a1.682,1.682,0,0,1,1.683,1.682A1.682,1.682,0,0,1,6370.51-8.452Z" transform="translate(-6338.515 11.817)" fill="#23147b"/>
            </g>
          </g>
          <g id="Grupo_53427" data-name="Grupo 53427" transform="translate(0.043 23.735)">
            <g id="Grupo_53426" data-name="Grupo 53426" transform="translate(0 0)">
              <path id="Trazado_98821" data-name="Trazado 98821" d="M6370.51-1.362H6340.2a1.682,1.682,0,0,1-1.682-1.682,1.682,1.682,0,0,1,1.682-1.682h30.313a1.682,1.682,0,0,1,1.683,1.682A1.682,1.682,0,0,1,6370.51-1.362Z" transform="translate(-6338.515 4.727)" fill="#23147b"/>
            </g>
          </g>
          <g id="Grupo_53429" data-name="Grupo 53429" transform="translate(0 31.713)">
            <g id="Grupo_53428" data-name="Grupo 53428" transform="translate(0 0)">
              <path id="Trazado_98822" data-name="Trazado 98822" d="M6370.515,5.727H6340.2a1.682,1.682,0,0,1-.086-3.364c.029,0,.057,0,.086,0h30.313a1.682,1.682,0,1,1,.087,3.364C6370.573,5.728,6370.543,5.728,6370.515,5.727Z" transform="translate(-6338.477 -2.362)" fill="#23147b"/>
            </g>
          </g>
          <g id="Grupo_53425-2" data-name="Grupo 53425" transform="translate(0.043)">
            <g id="Grupo_53424-2" data-name="Grupo 53424">
              <path id="Trazado_98820-2" data-name="Trazado 98820" d="M6370.51-22.452H6340.2a1.682,1.682,0,0,1-1.682-1.682,1.682,1.682,0,0,1,1.682-1.682h30.313a1.682,1.682,0,0,1,1.683,1.682A1.682,1.682,0,0,1,6370.51-22.452Z" transform="translate(-6338.515 25.817)" fill="#23147b"/>
            </g>
          </g>
          <g id="Grupo_53427-2" data-name="Grupo 53427" transform="translate(0.043 7.979)">
            <g id="Grupo_53426-2" data-name="Grupo 53426">
              <path id="Trazado_98821-2" data-name="Trazado 98821" d="M6370.51-15.362H6340.2a1.682,1.682,0,0,1-1.682-1.682,1.682,1.682,0,0,1,1.682-1.682h30.313a1.682,1.682,0,0,1,1.683,1.682A1.682,1.682,0,0,1,6370.51-15.362Z" transform="translate(-6338.515 18.727)" fill="#23147b"/>
            </g>
          </g>
          <g id="Grupo_53431" data-name="Grupo 53431" transform="translate(0 39.692)">
            <g id="Grupo_53430" data-name="Grupo 53430" transform="translate(0 0)">
              <path id="Trazado_98823" data-name="Trazado 98823" d="M6370.515,12.817H6340.2a1.682,1.682,0,0,1-.086-3.364c.029,0,.057,0,.086,0h30.313a1.682,1.682,0,1,1,.087,3.364C6370.573,12.818,6370.543,12.818,6370.515,12.817Z" transform="translate(-6338.477 -9.452)" fill="#23147b"/>
            </g>
          </g>
        </g>
      </g>
      <g id="Group_53517" data-name="Group 53517" transform="translate(6328.497 -37.244)">
        <path id="Path_99140" data-name="Path 99140" d="M6396.184-24.12a6.129,6.129,0,0,0-6.123-6.122h-5.336V-32a6.129,6.129,0,0,0-6.123-6.122h-43.983A6.129,6.129,0,0,0,6328.5-32V29.194a6.129,6.129,0,0,0,6.122,6.122h5.338v2.926a6.129,6.129,0,0,0,6.122,6.122h43.982a6.129,6.129,0,0,0,6.123-6.122V14.91a1.683,1.683,0,0,0-3.364-.087c0,.028,0,.057,0,.087V38.243A2.762,2.762,0,0,1,6390.063,41h-43.983a2.761,2.761,0,0,1-2.757-2.757V35.317h35.28a6.129,6.129,0,0,0,6.123-6.122V-26.877h5.336a2.76,2.76,0,0,1,2.757,2.757V-2.856h0V-.293a1.682,1.682,0,0,0,1.639,1.725,1.682,1.682,0,0,0,1.726-1.637q0-.044,0-.088V-2.856h0ZM6381.355-6.233l0,35.427a2.762,2.762,0,0,1-2.758,2.757h-43.983a2.761,2.761,0,0,1-2.757-2.757V-32a2.761,2.761,0,0,1,2.757-2.757h28.206v0H6378.6A2.762,2.762,0,0,1,6381.36-32V-6.233Z" transform="translate(-6328.497 38.121)" fill="#23147b"/>
        <path id="Path_99141" data-name="Path 99141" d="M6385.65,2.4a1.683,1.683,0,1,0,1.683-1.682A1.682,1.682,0,0,0,6385.65,2.4Z" transform="translate(-6321.33 42.992)" fill="#23147b"/>
      </g>
      <path id="Path_99142" data-name="Path 99142" d="M6378.548-42.148l-15.782,27.334a3.134,3.134,0,0,0,2.714,4.7h31.563a3.134,3.134,0,0,0,2.714-4.7l-15.781-27.334A3.134,3.134,0,0,0,6378.548-42.148Z" transform="translate(4.244 0.176)" fill="#ffea99"/>
      <path id="Path_99143" data-name="Path 99143" d="M6397.219-8.363h-31.562a4.663,4.663,0,0,1-4.079-2.354,4.66,4.66,0,0,1,0-4.71l15.78-27.335a4.663,4.663,0,0,1,4.079-2.354h0a4.662,4.662,0,0,1,4.078,2.355L6401.3-15.427a4.663,4.663,0,0,1,0,4.71A4.663,4.663,0,0,1,6397.219-8.363Zm-17.13-32.822-15.78,27.334a1.528,1.528,0,0,0,0,1.559,1.528,1.528,0,0,0,1.349.779h31.563a1.531,1.531,0,0,0,1.35-.779,1.534,1.534,0,0,0,0-1.559l-15.781-27.334a1.529,1.529,0,0,0-1.35-.779h0a1.531,1.531,0,0,0-1.35.779Z" transform="translate(4.068)" fill="#23147b"/>
      <g id="Group_53518" data-name="Group 53518" transform="translate(6383.82 -34.762)">
        <g id="Grupo_53418" data-name="Grupo 53418">
          <g id="Grupo_53417" data-name="Grupo 53417">
            <path id="Trazado_98817" data-name="Trazado 98817" d="M6379.338-35.916a1.689,1.689,0,0,1,1.683,1.682v11.5a1.682,1.682,0,0,1-1.687,1.678,1.682,1.682,0,0,1-1.678-1.678v-11.5A1.689,1.689,0,0,1,6379.338-35.916Z" transform="translate(-6377.656 35.916)" fill="#23147b"/>
          </g>
        </g>
        <g id="Grupo_53420" data-name="Grupo 53420" transform="translate(0.007 16.914)">
          <g id="Grupo_53419" data-name="Grupo 53419">
            <circle id="Elipse_28" data-name="Elipse 28" cx="1.682" cy="1.682" r="1.682" fill="#23147b"/>
          </g>
        </g>
      </g>
    </g>
    <g id="Rectangle_5318" data-name="Rectangle 5318" transform="translate(252 6132)" fill="none" stroke="#707070" stroke-width="1" opacity="0">
      <rect width="125" height="121" stroke="none"/>
      <rect x="0.5" y="0.5" width="124" height="120" fill="none"/>
    </g>
  </g>
</svg>
