<svg xmlns="http://www.w3.org/2000/svg" width="315.014" height="276.541" viewBox="0 0 315.014 276.541">
  <g id="t1-i8" transform="translate(-5679.552 592.779)">
    <path id="Path_99144" data-name="Path 99144" d="M5735.95-340.767c4.762-45.49-68.814-20.993-54.562-63.744,8.867-26.468,52.355-42.277,24.977-73.528-41.319-47.279,46.663-80.026,81.128-89.848,10.262-2.92,83.917-19.714,65.1,8.982-16.612,25.3,30.4,18.181,44.534,13.617,45.036-14.6,113.54,5.074,69.976,56.588-15.451,18.29-43.836,23.694-2.866,52.28,31.483,21.905,40.2,39.721,17.89,66.08-26.836,31.726-112.688,30.046-150.135,30.046-.348,0-96.074.147-96.036-.474Z" transform="translate(0 4.998)" fill="#d2e1f1"/>
    <path id="Path_99145" data-name="Path 99145" d="M5905.526-455.487c-.5-9.894-2.943-38.151-8.983-42.861-6-4.71-53.092-7.265-77.565-7.265-24.512,0-71.563,2.555-77.6,7.265-6,4.71-8.443,32.967-8.946,42.861-.542,9.893.117,43.335,2.44,53.594,2.284,10.258,12.042,11.609,22.653,13.4,6.49,1.113,22.2,2.712,36.945,3.793l-.041,0a65.554,65.554,0,0,1-7.008,19.533l31.56,3.248,31.522-3.248a66.8,66.8,0,0,1-7.01-19.533l-.023,0c14.756-1.081,30.474-2.681,36.968-3.794,10.611-1.789,20.331-3.14,22.654-13.4C5905.372-412.152,5906.03-445.595,5905.526-455.487Z" transform="translate(19.293 25.098)" fill="#abb7c4"/>
    <path id="Path_99146" data-name="Path 99146" d="M5833.319-371.019c79.733,0,144.712-7.082,144.712-15.735,0-8.69-64.979-15.772-144.712-15.772-79.695,0-144.714,7.082-144.714,15.772,0,8.652,65.02,15.735,144.714,15.735Z" transform="translate(3.315 54.781)" fill="#a397e3"/>
    <path id="Path_99147" data-name="Path 99147" d="M5803.192-389.346l31.522-3.248a66.805,66.805,0,0,1-7.01-19.533l-24.512-2.7-24.551,2.7a65.532,65.532,0,0,1-7.009,19.533Z" transform="translate(33.712 51.239)" fill="#f3f9ff"/>
    <path id="Path_99148" data-name="Path 99148" d="M5803.192-389.346l31.522-3.248a66.805,66.805,0,0,1-7.01-19.533l-24.512-2.7-24.551,2.7c-.309,1.789-.7,3.542-1.162,5.221h0s5.577-2.812,10.572-1.862c5,.987,17.929,1.315,21.879.84,3.988-.474,12.043,0,13.476,3.031,1.393,3.031,3.059,8.214-2.208,8.688-5.229.475-31.676-3.614-48.018.658-.931,1.861-1.549,2.957-1.549,2.957Z" transform="translate(33.712 51.239)" fill="#d8dee8"/>
    <g id="Group_53520" data-name="Group 53520" transform="translate(5718.612 -571.227)">
      <path id="Path_99149" data-name="Path 99149" d="M5822.328-368a1.329,1.329,0,0,1-1.366-1.278,1.326,1.326,0,0,1,1.355-1.3c3.332-.026,6.885-.085,10.86-.182h.034a1.332,1.332,0,0,1,1.367,1.254,1.324,1.324,0,0,1-1.331,1.32c-3.991.1-7.559.157-10.911.183Zm-10.888-.044h-.026c-3.817-.066-7.493-.191-10.93-.368a1.316,1.316,0,0,1-1.288-1.356,1.342,1.342,0,0,1,1.438-1.216c3.4.176,7.047.3,10.831.364a1.325,1.325,0,0,1,1.341,1.311A1.331,1.331,0,0,1,5811.44-368.039Zm32.651-.456a1.332,1.332,0,0,1-1.364-1.244,1.322,1.322,0,0,1,1.318-1.332l3.671-.12c2.46-.081,4.869-.161,7.212-.232a1.332,1.332,0,0,1,1.409,1.245,1.321,1.321,0,0,1-1.322,1.329q-3.513.106-7.2.232l-3.674.12Zm32.649-.483h-.062c-2.182-.091-4.582-.137-7.337-.137q-1.693,0-3.466.022h-.019a1.331,1.331,0,0,1-1.366-1.272,1.325,1.325,0,0,1,1.349-1.3q1.794-.021,3.5-.022c2.8,0,5.237.046,7.46.139a1.323,1.323,0,0,1,1.3,1.345A1.335,1.335,0,0,1,5876.74-368.978Zm-87.028-.231a1.378,1.378,0,0,1-.145-.008c-3.813-.376-7.473-.85-10.875-1.406a1.3,1.3,0,0,1-1.112-1.489,1.369,1.369,0,0,1,1.579-1.05c3.343.547,6.942,1.014,10.695,1.383a1.311,1.311,0,0,1,1.215,1.415A1.34,1.34,0,0,1,5789.712-369.209Zm-21.417-3.591a1.432,1.432,0,0,1-.359-.046,87.647,87.647,0,0,1-10.472-3.354,1.262,1.262,0,0,1-.729-1.686,1.4,1.4,0,0,1,1.788-.688,84.567,84.567,0,0,0,10.129,3.242,1.283,1.283,0,0,1,.961,1.58A1.361,1.361,0,0,1,5768.295-372.8Zm118.262-.451a1.354,1.354,0,0,1-1.237-.784,1.284,1.284,0,0,1,.74-1.7,3.123,3.123,0,0,1,.389-.122,38.3,38.3,0,0,0,9.524-3.891,1.417,1.417,0,0,1,1.877.431,1.246,1.246,0,0,1-.458,1.77,41.231,41.231,0,0,1-10.3,4.194A1.416,1.416,0,0,1,5886.557-373.25ZM5748.4-380.9a1.418,1.418,0,0,1-.757-.218,42.189,42.189,0,0,1-8.458-6.927,1.238,1.238,0,0,1,.13-1.817,1.426,1.426,0,0,1,1.928.122,39.611,39.611,0,0,0,7.917,6.481,1.24,1.24,0,0,1,.375,1.785A1.384,1.384,0,0,1,5748.4-380.9Zm156.8-2.8a1.407,1.407,0,0,1-.972-.383,1.237,1.237,0,0,1,.01-1.821,59.855,59.855,0,0,0,6.846-7.671,1.419,1.419,0,0,1,1.905-.3,1.241,1.241,0,0,1,.32,1.8,62.312,62.312,0,0,1-7.148,8.008A1.4,1.4,0,0,1,5905.2-383.7Zm-171.386-12.189a1.389,1.389,0,0,1-1.137-.57c-2.065-2.9-4.027-5.849-5.832-8.753a1.247,1.247,0,0,1,.487-1.762,1.411,1.411,0,0,1,1.869.458c1.777,2.861,3.709,5.761,5.746,8.621a1.246,1.246,0,0,1-.376,1.788A1.421,1.421,0,0,1,5733.811-395.891Zm184.106-4.376a1.422,1.422,0,0,1-.649-.156,1.251,1.251,0,0,1-.551-1.745c1.606-2.795,3.181-5.869,4.688-9.139a1.4,1.4,0,0,1,1.8-.668,1.26,1.26,0,0,1,.709,1.694c-1.535,3.338-3.147,6.481-4.79,9.34A1.378,1.378,0,0,1,5917.917-400.267ZM5722.834-413.6a1.377,1.377,0,0,1-1.224-.714c-1.651-3.126-3.172-6.3-4.526-9.437a1.265,1.265,0,0,1,.751-1.678,1.4,1.4,0,0,1,1.782.708c1.325,3.076,2.818,6.19,4.439,9.258a1.254,1.254,0,0,1-.615,1.727A1.43,1.43,0,0,1,5722.834-413.6Zm203.838-5.452a1.439,1.439,0,0,1-.467-.079,1.269,1.269,0,0,1-.816-1.651q.7-1.795,1.33-3.526,1.167-3.161,2.178-6.134a1.379,1.379,0,0,1,1.718-.833,1.273,1.273,0,0,1,.885,1.619q-1.02,3.008-2.2,6.194c-.425,1.163-.874,2.354-1.343,3.564A1.366,1.366,0,0,1,5926.673-419.049Zm-212-13.549a1.36,1.36,0,0,1-1.3-.905c-1.1-3.336-2.04-6.711-2.791-10.036a1.29,1.29,0,0,1,1.048-1.529,1.37,1.37,0,0,1,1.622.992c.735,3.247,1.654,6.547,2.73,9.806a1.277,1.277,0,0,1-.9,1.613A1.441,1.441,0,0,1,5714.678-432.6Zm218.578-6.008a1.459,1.459,0,0,1-.348-.041,1.284,1.284,0,0,1-.976-1.573c.954-3.441,1.744-6.777,2.347-9.915a1.35,1.35,0,0,1,1.589-1.037,1.3,1.3,0,0,1,1.1,1.5c-.617,3.2-1.421,6.6-2.392,10.106A1.359,1.359,0,0,1,5933.255-438.606Zm-223.089-14.036a1.339,1.339,0,0,1-1.356-1.144,96.213,96.213,0,0,1-.667-10.365,1.328,1.328,0,0,1,1.354-1.3,1.328,1.328,0,0,1,1.379,1.276,93.568,93.568,0,0,0,.65,10.1,1.307,1.307,0,0,1-1.207,1.423A1.226,1.226,0,0,1,5710.167-452.642Zm226.869-6.143-.106,0a1.316,1.316,0,0,1-1.257-1.383c.181-2.206.273-4.428.274-6.606q0-1.754-.078-3.494a1.32,1.32,0,0,1,1.308-1.34,1.364,1.364,0,0,1,1.422,1.233q.08,1.795.081,3.6c0,2.245-.1,4.532-.283,6.8A1.335,1.335,0,0,1,5937.035-458.786Zm-227.06-14.334c-.042,0-.086,0-.129-.006a1.312,1.312,0,0,1-1.231-1.4,96.567,96.567,0,0,1,1.608-10.278,1.367,1.367,0,0,1,1.607-1.01,1.294,1.294,0,0,1,1.072,1.516,94.473,94.473,0,0,0-1.568,10.016A1.336,1.336,0,0,1,5709.976-473.119Zm226.166-6.118a1.347,1.347,0,0,1-1.349-1.088c-.531-3.181-1.24-6.429-2.169-9.933a1.282,1.282,0,0,1,.992-1.561,1.37,1.37,0,0,1,1.657.936c.952,3.577,1.677,6.9,2.22,10.157a1.3,1.3,0,0,1-1.138,1.472A1.316,1.316,0,0,1,5936.142-479.237Zm-221.918-13.975a1.458,1.458,0,0,1-.4-.055,1.277,1.277,0,0,1-.91-1.607c1.05-3.257,2.291-6.547,3.689-9.778a1.393,1.393,0,0,1,1.782-.707,1.264,1.264,0,0,1,.747,1.68c-1.366,3.158-2.578,6.374-3.6,9.555A1.363,1.363,0,0,1,5714.223-493.212Zm216.75-5.935a1.361,1.361,0,0,1-1.3-.9c-.98-2.947-2.1-6.115-3.437-9.688a1.27,1.27,0,0,1,.834-1.642,1.388,1.388,0,0,1,1.743.788c1.341,3.6,2.475,6.8,3.466,9.77a1.276,1.276,0,0,1-.893,1.615A1.47,1.47,0,0,1,5930.974-499.147ZM5722.4-512.21a1.428,1.428,0,0,1-.619-.14,1.254,1.254,0,0,1-.6-1.732c1.629-3.016,3.433-6.058,5.359-9.04a1.415,1.415,0,0,1,1.878-.43,1.245,1.245,0,0,1,.456,1.77c-1.89,2.926-3.659,5.912-5.259,8.87A1.378,1.378,0,0,1,5722.4-512.21Zm201.4-6.308a1.37,1.37,0,0,1-1.274-.824,90.009,90.009,0,0,0-4.407-9.215,1.253,1.253,0,0,1,.58-1.737,1.407,1.407,0,0,1,1.842.549,91.893,91.893,0,0,1,4.533,9.474,1.266,1.266,0,0,1-.78,1.667A1.44,1.44,0,0,1,5923.8-518.518Zm-190.068-11.188a1.425,1.425,0,0,1-.814-.255,1.241,1.241,0,0,1-.281-1.8,91.857,91.857,0,0,1,7.1-7.977,1.424,1.424,0,0,1,1.931-.055,1.238,1.238,0,0,1,.06,1.821,89.2,89.2,0,0,0-6.892,7.748A1.4,1.4,0,0,1,5733.735-529.706Zm180.02-6.956a1.4,1.4,0,0,1-1.129-.562,80.94,80.94,0,0,0-6.572-7.959,1.237,1.237,0,0,1,.116-1.819,1.424,1.424,0,0,1,1.927.111,83.632,83.632,0,0,1,6.788,8.214,1.244,1.244,0,0,1-.36,1.79A1.42,1.42,0,0,1,5913.755-536.662Zm-165.155-8a1.4,1.4,0,0,1-1.035-.448,1.238,1.238,0,0,1,.143-1.816c2.738-2.222,5.663-4.371,8.7-6.387a1.419,1.419,0,0,1,1.9.31,1.242,1.242,0,0,1-.329,1.8c-2.96,1.967-5.816,4.065-8.487,6.232A1.4,1.4,0,0,1,5748.6-544.66Zm150.751-7.305a1.41,1.41,0,0,1-.9-.317,84.127,84.127,0,0,0-8.507-6.125,1.244,1.244,0,0,1-.38-1.786,1.417,1.417,0,0,1,1.895-.357,86.226,86.226,0,0,1,8.786,6.326,1.235,1.235,0,0,1,.132,1.817A1.4,1.4,0,0,1,5899.351-551.966ZM5766.368-556.5a1.386,1.386,0,0,1-1.185-.643,1.247,1.247,0,0,1,.5-1.759c3.135-1.712,6.415-3.331,9.75-4.812a1.4,1.4,0,0,1,1.816.616,1.256,1.256,0,0,1-.653,1.714c-3.266,1.45-6.475,3.034-9.545,4.71A1.429,1.429,0,0,1,5766.368-556.5Zm114.937-6.843a1.423,1.423,0,0,1-.611-.138,96.284,96.284,0,0,0-9.839-4,1.269,1.269,0,0,1-.816-1.651,1.393,1.393,0,0,1,1.753-.769,98.956,98.956,0,0,1,10.13,4.12,1.255,1.255,0,0,1,.606,1.73A1.38,1.38,0,0,1,5881.3-563.346Zm-95.261-1.911a1.371,1.371,0,0,1-1.28-.835,1.27,1.27,0,0,1,.8-1.659c3.413-1.208,6.926-2.3,10.44-3.256a1.371,1.371,0,0,1,1.689.881,1.279,1.279,0,0,1-.934,1.594c-3.446.934-6.888,2.008-10.233,3.192A1.469,1.469,0,0,1,5786.043-565.257Zm74.877-5.136a1.453,1.453,0,0,1-.331-.037c-3.415-.8-6.961-1.446-10.541-1.931a1.3,1.3,0,0,1-1.159-1.458,1.354,1.354,0,0,1,1.548-1.092c3.667.5,7.3,1.163,10.808,1.98a1.285,1.285,0,0,1,1,1.56A1.35,1.35,0,0,1,5860.92-570.393Zm-53.968-.532a1.348,1.348,0,0,1-1.338-1.032,1.29,1.29,0,0,1,1.065-1.518c3.589-.69,7.239-1.249,10.851-1.662a1.343,1.343,0,0,1,1.521,1.123,1.306,1.306,0,0,1-1.193,1.434c-3.538.4-7.116.953-10.634,1.629A1.522,1.522,0,0,1,5806.953-570.925Zm32.468-2.4h-.069c-3.535-.166-7.158-.185-10.76-.057a1.318,1.318,0,0,1-1.418-1.239,1.322,1.322,0,0,1,1.313-1.336c3.683-.131,7.387-.111,11,.059a1.317,1.317,0,0,1,1.3,1.35A1.331,1.331,0,0,1,5839.42-573.327Z" transform="translate(-5708.144 576.045)" fill="#f3f9ff"/>
    </g>
    <path id="Path_99150" data-name="Path 99150" d="M5817.977-384.53c-15.335,0-50.806-3.139-61.456-4.965-10.611-1.789-20.369-3.14-22.653-13.4-2.324-10.258-2.982-43.7-2.44-53.594.5-9.894,2.943-38.153,8.946-42.861,6.041-4.71,53.091-7.265,77.6-7.265,24.475,0,71.563,2.555,77.566,7.265,6.041,4.709,8.481,32.967,8.983,42.861s-.154,43.335-2.438,53.594c-2.324,10.258-12.044,11.609-22.654,13.4-10.649,1.826-46.121,4.965-61.457,4.965Z" transform="translate(18.927 24.81)" fill="#f3f9ff"/>
    <path id="Path_99151" data-name="Path 99151" d="M5903.211-410.884a429.2,429.2,0,0,0,1.314-45.6c-.5-9.894-2.942-38.151-8.983-42.861-6-4.71-53.091-7.265-77.566-7.265-24.512,0-71.562,2.555-77.6,7.265-6,4.71-8.443,32.967-8.946,42.861a415.38,415.38,0,0,0,1.3,45.6Z" transform="translate(18.927 24.81)" fill="#23147b"/>
    <path id="Path_99152" data-name="Path 99152" d="M5770.665-397.565h69.666a5.248,5.248,0,0,1,5.384,5.074h0a5.226,5.226,0,0,1-5.384,5.074h-69.666a5.249,5.249,0,0,1-5.382-5.074h0a5.272,5.272,0,0,1,5.382-5.074Z" transform="translate(31.387 56.21)" fill="#f3f9ff"/>
    <path id="Path_99153" data-name="Path 99153" d="M5769.811-396.318h16.343a.852.852,0,0,1,.891.84h0a.86.86,0,0,1-.891.876h-16.343a.893.893,0,0,1-.929-.876h0a.887.887,0,0,1,.929-.84Z" transform="translate(32.705 56.569)" fill="#171a43"/>
    <path id="Path_99154" data-name="Path 99154" d="M5784.749-396.318h4.105a.887.887,0,0,1,.93.84h0a.893.893,0,0,1-.93.876h-4.105a.892.892,0,0,1-.928-.876h0a.886.886,0,0,1,.928-.84Z" transform="translate(38.175 56.569)" fill="#171a43"/>
    <path id="Path_99155" data-name="Path 99155" d="M5737.838-429.257h16.341a.917.917,0,0,1,.929.877h0a.916.916,0,0,1-.929.876h-16.341a.918.918,0,0,1-.931-.876h0a.918.918,0,0,1,.931-.877Z" transform="translate(20.999 47.084)" fill="#171a43"/>
    <path id="Path_99156" data-name="Path 99156" d="M5752.765-429.257h4.1a.891.891,0,0,1,.929.877h0a.891.891,0,0,1-.929.876h-4.1a.882.882,0,0,1-.891-.876h0a.883.883,0,0,1,.891-.877Z" transform="translate(26.478 47.084)" fill="#171a43"/>
    <path id="Path_99157" data-name="Path 99157" d="M5795.827-418.329a4.469,4.469,0,0,0,4.609-4.344,4.492,4.492,0,0,0-4.609-4.344,4.516,4.516,0,0,0-4.607,4.344,4.493,4.493,0,0,0,4.607,4.344Z" transform="translate(40.883 47.729)" fill="#171a43"/>
    <path id="Path_99158" data-name="Path 99158" d="M5735.861-411.671s-2.052-30.193-1.161-45.782c.89-15.552,3.058-34.646,7.55-38.625s56.964-6.171,74.544-6.171c17.542,0,70.053,2.191,74.506,6.171,4.493,3.98,6.661,23.073,7.551,38.625.93,15.589-1.123,45.782-1.123,45.782Z" transform="translate(20.109 26.067)" fill="#d8dee8"/>
    <g id="Group_53521" data-name="Group 53521" transform="translate(5754.585 -476.182)">
      <path id="Path_99159" data-name="Path 99159" d="M5825.9-457.184c8.631-12.323,23.09-30.174,33.678-42.954-9.918-.811-21.366-1.408-31.34-1.773-17.307,19.023-39.908,49.1-51.48,62.544-6.063,7.044-13.989,17.669-21.128,27.6h35.049C5799.217-422.16,5815.391-442.158,5825.9-457.184Z" transform="translate(-5726.731 502.346)" fill="#e8ecf2"/>
      <path id="Path_99160" data-name="Path 99160" d="M5754.8-411.671c6-8.566,13.33-18.773,21.285-29.28,14.21-18.767,37.674-46.112,50.719-61.111-4.555-.122-8.529-.187-11.49-.187-1.626,0-3.554.019-5.71.057-14.817,16.779-45.682,52.925-71.065,90.521Z" transform="translate(-5732.99 502.249)" fill="#e8ecf2"/>
      <path id="Path_99161" data-name="Path 99161" d="M5863.323-468.2c-5.351,8.62-12.236,19.474-15.7,23.978-4.057,5.277-11.615,16.066-16.252,22.745h30.889s2.052-30.193,1.123-45.782C5863.362-467.568,5863.342-467.884,5863.323-468.2Z" transform="translate(-5699.002 512.054)" fill="#e8ecf2"/>
      <path id="Path_99162" data-name="Path 99162" d="M5841.15-441.867c6.283-8.274,21.88-25.912,29.591-35.076-.986-7.849-2.393-14.867-4.348-18.7a225.681,225.681,0,0,1-16.26,24.793c-13.2,17.526-34.13,45.364-43.09,57.282h13.935C5826.42-421.4,5835.9-434.935,5841.15-441.867Z" transform="translate(-5707.908 504.15)" fill="#e8ecf2"/>
      <path id="Path_99163" data-name="Path 99163" d="M5780.594-501.3c-18.128,1.035-35.817,2.707-38.343,4.944-4.492,3.98-6.661,23.073-7.55,38.625-.167,2.9-.23,6.315-.224,9.943C5746.278-463.635,5764.661-486.96,5780.594-501.3Z" transform="translate(-5734.476 502.523)" fill="#e8ecf2"/>
    </g>
    <g id="Group_53522" data-name="Group 53522" transform="translate(5912.126 -440.386)">
      <path id="Path_99164" data-name="Path 99164" d="M5852.18-433.858h-.061a1.327,1.327,0,0,1-1.314-1.351c.1-2.209.153-5,.153-8.524a1.338,1.338,0,0,1,1.374-1.3,1.338,1.338,0,0,1,1.376,1.3c0,3.565-.052,6.391-.157,8.637A1.34,1.34,0,0,1,5852.18-433.858Zm.076-12.742a1.341,1.341,0,0,1-1.375-1.272c-.229-11.989-1.071-25.077-1.082-25.208a1.328,1.328,0,0,1,1.289-1.373,1.361,1.361,0,0,1,1.458,1.215c.006.131.854,13.273,1.084,25.32a1.333,1.333,0,0,1-1.35,1.319Z" transform="translate(-5849.797 474.455)" fill="#171a43"/>
    </g>
    <g id="Group_53523" data-name="Group 53523" transform="translate(5757.848 -461.121)">
      <path id="Path_99165" data-name="Path 99165" d="M5737.97-464.781l-.067,0a1.066,1.066,0,0,1-1.036-1.1l.051-.824c.064-.992.13-2.066.221-3.207a1.1,1.1,0,0,1,1.185-.959,1.062,1.062,0,0,1,1.017,1.115c-.09,1.13-.155,2.192-.216,3.173l-.054.828A1.078,1.078,0,0,1,5737.97-464.781Zm.814-9.237a.882.882,0,0,1-.118-.006,1.057,1.057,0,0,1-.982-1.144c.558-4.95,1.224-9.83,1.982-14.5a1.111,1.111,0,0,1,1.259-.872,1.052,1.052,0,0,1,.925,1.186c-.753,4.643-1.416,9.492-1.971,14.409A1.081,1.081,0,0,1,5738.784-474.018Z" transform="translate(-5736.865 490.555)" fill="#171a43"/>
    </g>
    <path id="Path_99166" data-name="Path 99166" d="M5808.958-438.486l-52.433-.146-.194-1.606s-1.857-35.085,1.976-60.2,9.719-27.161,16.884-28c7.2-.84,33.768-1.643,33.768-1.643s26.566.8,33.729,1.643,13.05,2.884,16.922,28c3.834,25.119,1.975,60.2,1.975,60.2l-.193,1.606Z" transform="translate(27.945 18.052)" fill="#f3f9ff"/>
    <path id="Path_99167" data-name="Path 99167" d="M5807.229-441.25l-45.733-.073v-.766s-.891-16.5-.891-32.566c0-16.028,3.06-38.372,6.39-43.7,3.331-5.293,23.7-5.293,40.234-5.293,16.5,0,36.867,0,40.2,5.293,3.329,5.329,6.427,27.673,6.427,43.7,0,16.063-.928,32.566-.928,32.566v.766Z" transform="translate(29.675 19.905)" fill="#ffea99"/>
    <path id="Path_99168" data-name="Path 99168" d="M5819.882-528.408c-.968-1.606-7.744-.549-9.565-3.506-1.782-2.957,1.782-13.252-10.069-13.252-11.887,0-8.324,10.294-10.107,13.252s-8.558,1.9-9.526,3.506c-.968,1.642-1.664,15.48.387,16.9,2.053,1.461,16.458,1.351,19.246,1.351s17.195.11,19.246-1.351C5821.547-512.928,5820.849-526.766,5819.882-528.408Zm-19.634-1.753c-2.283,0-6.66-1.972-6.66-6.1,0-4.089,4.336-5.659,6.66-5.659s6.622,1.57,6.622,5.659C5806.87-532.132,5802.532-530.161,5800.248-530.161Z" transform="translate(36.656 13.71)" fill="#171a43"/>
    <g id="Group_53524" data-name="Group 53524" transform="translate(5823.641 -494.31)">
      <path id="Path_99169" data-name="Path 99169" d="M5785.856-514.315a.817.817,0,0,1-.828-.711.8.8,0,0,1,.751-.855c1.249-.11,2.732-.184,4.255-.258a.81.81,0,0,1,.875.743.8.8,0,0,1-.789.824c-1.5.073-2.956.144-4.187.254Zm25.29-.328h-.02c-5.547-.119-10.6-.143-15.46-.073a.77.77,0,0,1-.845-.773.81.81,0,0,1,.821-.8c4.875-.068,9.954-.045,15.521.073a.807.807,0,0,1,.814.8A.812.812,0,0,1,5811.146-514.643Z" transform="translate(-5785.025 516.325)" fill="#171a43"/>
    </g>
    <g id="Group_53525" data-name="Group 53525" transform="translate(5793.125 -484.633)">
      <path id="Path_99170" data-name="Path 99170" d="M5763.521-476.611h-.035a.806.806,0,0,1-.8-.817c.308-7.054.676-13.213,1.127-18.828a.83.83,0,0,1,.892-.724.8.8,0,0,1,.769.842c-.452,5.6-.817,11.738-1.122,18.774A.812.812,0,0,1,5763.521-476.611Zm1.667-25.519c-.029,0-.055,0-.084,0a.8.8,0,0,1-.747-.858c.193-1.869.387-3.627.584-5.13a.83.83,0,0,1,.927-.684.8.8,0,0,1,.724.875c-.194,1.493-.384,3.238-.578,5.094A.815.815,0,0,1,5765.189-502.131Z" transform="translate(-5762.688 508.811)" fill="#171a43"/>
    </g>
    <g id="Group_53526" data-name="Group 53526" transform="translate(5883.703 -502.923)">
      <path id="Path_99171" data-name="Path 99171" d="M5832.3-490.776a.811.811,0,0,1-.832-.766c-.04-1.593-.118-3.328-.231-5.157a.8.8,0,0,1,.781-.829.834.834,0,0,1,.882.738c.114,1.847.192,3.6.232,5.211a.807.807,0,0,1-.812.8Zm-.7-11.9a.815.815,0,0,1-.83-.73c-.42-5.64-1-11.769-1.779-18.737a.8.8,0,0,1,.742-.863.825.825,0,0,1,.915.7c.778,6.986,1.362,13.133,1.784,18.792a.8.8,0,0,1-.773.839Z" transform="translate(-5828.99 523.012)" fill="#171a43"/>
    </g>
    <g id="Group_53527" data-name="Group 53527" transform="translate(5828.5 -479.817)">
      <path id="Path_99172" data-name="Path 99172" d="M5790.634-500.669a2,2,0,0,1-2.048-1.819,1.979,1.979,0,0,1,1.926-2.048c.212-.013,21.651-1.2,45.345,0a1.979,1.979,0,0,1,1.94,2.036,2,2,0,0,1-2.159,1.828c-23.452-1.184-44.668-.012-44.881,0C5790.717-500.67,5790.675-500.669,5790.634-500.669Z" transform="translate(-5788.583 505.071)" fill="#f5d765"/>
    </g>
    <g id="Group_53528" data-name="Group 53528" transform="translate(5828.268 -472.763)">
      <path id="Path_99173" data-name="Path 99173" d="M5790.462-494.725a2.013,2.013,0,0,1-2.036-1.719,1.966,1.966,0,0,1,1.81-2.139,293.19,293.19,0,0,1,45.961-.261,1.973,1.973,0,0,1,1.893,2.074,2.022,2.022,0,0,1-2.2,1.785,288.659,288.659,0,0,0-45.2.25C5790.616-494.729,5790.54-494.725,5790.462-494.725Z" transform="translate(-5788.413 499.595)" fill="#f5d765"/>
    </g>
    <g id="Group_53529" data-name="Group 53529" transform="translate(5829.275 -465.599)">
      <path id="Path_99174" data-name="Path 99174" d="M5835.661-489.719c-.056,0-.114,0-.171-.006-10.654-.824-43.91-.22-44.247-.214h-.043a2,2,0,0,1-2.05-1.9,1.99,1.99,0,0,1,2.012-1.972c1.374-.026,33.8-.613,44.664.225a1.971,1.971,0,0,1,1.877,2.087A2.008,2.008,0,0,1,5835.661-489.719Z" transform="translate(-5789.15 494.032)" fill="#f5d765"/>
    </g>
    <g id="Group_53530" data-name="Group 53530" transform="translate(5828.771 -446.936)">
      <path id="Path_99175" data-name="Path 99175" d="M5836.068-475.054c-.06,0-.119,0-.179-.008-15.833-1.288-44.676-.115-44.964-.1a2.011,2.011,0,0,1-2.142-1.848,1.985,1.985,0,0,1,1.959-2.018c1.194-.049,29.4-1.2,45.5.115a1.973,1.973,0,0,1,1.87,2.094A2.011,2.011,0,0,1,5836.068-475.054Z" transform="translate(-5788.781 479.542)" fill="#f5d765"/>
    </g>
    <g id="Group_53531" data-name="Group 53531" transform="translate(5829.043 -439.917)">
      <path id="Path_99176" data-name="Path 99176" d="M5835.065-469.467c-.061,0-.12,0-.182-.006-17.43-1.431-43.5-.372-43.759-.361a2.021,2.021,0,0,1-2.142-1.847,1.986,1.986,0,0,1,1.961-2.02c.263-.01,26.6-1.083,44.3.371a1.973,1.973,0,0,1,1.867,2.1A2.009,2.009,0,0,1,5835.065-469.467Z" transform="translate(-5788.979 474.091)" fill="#f5d765"/>
    </g>
    <g id="Group_53532" data-name="Group 53532" transform="translate(5829.159 -432.978)">
      <path id="Path_99177" data-name="Path 99177" d="M5791.115-464.263a2,2,0,0,1-2.049-1.857,1.986,1.986,0,0,1,1.968-2.012c.289-.012,29.095-1.09,45.271-.255a1.983,1.983,0,0,1,1.938,2.038,1.984,1.984,0,0,1-2.163,1.826c-15.982-.824-44.593.247-44.88.258Z" transform="translate(-5789.065 468.704)" fill="#f5d765"/>
    </g>
    <path id="Path_99178" data-name="Path 99178" d="M5773.034-479.842l16.3-.438a3.828,3.828,0,0,1,4.067,3.76v12.011a4.127,4.127,0,0,1-4.067,3.98l-16.3.438a3.826,3.826,0,0,1-4.066-3.759v-12.011a4.126,4.126,0,0,1,4.066-3.98Z" transform="translate(32.736 32.392)" fill="#fde27a"/>
    <path id="Path_99179" data-name="Path 99179" d="M5773.034-505.176l16.3-.474a3.872,3.872,0,0,1,4.067,3.759v12.011a4.1,4.1,0,0,1-4.067,3.98l-16.3.475a3.873,3.873,0,0,1-4.066-3.761V-501.2a4.126,4.126,0,0,1,4.066-3.98Z" transform="translate(32.736 25.088)" fill="#fde27a"/>
    <path id="Path_99180" data-name="Path 99180" d="M5770.384-470.2a21.914,21.914,0,0,1,4.609,8.287s3.6-9.528,15.374-16.465c0,0-7.126.547-15.181,11.573a5,5,0,0,0-4.493-3.542Z" transform="translate(33.255 32.94)" fill="#171a43"/>
    <path id="Path_99181" data-name="Path 99181" d="M5770.384-495.545a21.915,21.915,0,0,1,4.609,8.287s3.6-9.528,15.374-16.465c0,0-7.126.511-15.181,11.573a5,5,0,0,0-4.493-3.542Z" transform="translate(33.255 25.643)" fill="#171a43"/>
    <path id="Path_99182" data-name="Path 99182" d="M5887.609-515.912c14.832,0,25.287,10.989,23.39,24.5-1.86,13.544-15.413,24.5-30.245,24.5s-25.326-10.953-23.429-24.5c1.9-13.509,15.452-24.5,30.283-24.5Z" transform="translate(65.005 22.133)" fill="#f3f9ff"/>
    <path id="Path_99183" data-name="Path 99183" d="M5864.109-563.052c14.832,0,25.287,10.989,23.39,24.5-1.859,13.544-15.413,24.5-30.244,24.5s-25.326-10.953-23.429-24.5c1.9-13.509,15.451-24.5,30.283-24.5Z" transform="translate(56.402 8.56)" fill="#f3f9ff"/>
    <path id="Path_99184" data-name="Path 99184" d="M5805.532-591.937c15.451,0,26.41,11.464,24.435,25.557-1.975,14.129-16.109,25.555-31.6,25.555-15.453,0-26.411-11.427-24.436-25.555,1.976-14.093,16.109-25.557,31.6-25.557Z" transform="translate(34.471 0.242)" fill="#f3f9ff"/>
    <path id="Path_99185" data-name="Path 99185" d="M5745.951-564.157c14.832,0,25.327,10.951,23.429,24.5-1.9,13.508-15.452,24.5-30.244,24.5-14.832,0-25.327-10.989-23.429-24.5,1.9-13.545,15.452-24.5,30.244-24.5Z" transform="translate(13.156 8.241)" fill="#f3f9ff"/>
    <path id="Path_99186" data-name="Path 99186" d="M5723.075-516.167c14.832,0,25.327,10.953,23.429,24.5s-15.451,24.5-30.245,24.5c-14.831,0-25.325-10.953-23.428-24.5s15.451-24.5,30.244-24.5Z" transform="translate(4.781 22.06)" fill="#f3f9ff"/>
    <path id="Path_99187" data-name="Path 99187" d="M5753.97-460.324H5866.7a1.842,1.842,0,0,1,1.9,1.752h0a1.848,1.848,0,0,1-1.9,1.789H5753.97a1.847,1.847,0,0,1-1.9-1.789h0a1.818,1.818,0,0,1,1.9-1.752Z" transform="translate(26.552 38.139)" fill="#171a43"/>
    <g id="expediente" transform="translate(5702.701 -497.267)">
      <g id="Grupo_53416" data-name="Grupo 53416" transform="translate(0.824 0.775)">
        <g id="Grupo_53412" data-name="Grupo 53412" transform="translate(5.595 14.044)">
          <path id="Trazado_98814" data-name="Trazado 98814" d="M5723.719-506.431a8.262,8.262,0,0,1-2.3-.326v17.5a2.109,2.109,0,0,1-2.168,2.044H5701.2v2.125a2.109,2.109,0,0,0,2.168,2.044h21.48a2.11,2.11,0,0,0,2.169-2.044h0v-22.025A8.172,8.172,0,0,1,5723.719-506.431Z" transform="translate(-5701.196 507.114)" fill="#e4e0ff"/>
        </g>
        <g id="Grupo_53413" data-name="Grupo 53413" transform="translate(0 1.677)">
          <path id="Trazado_98815" data-name="Trazado 98815" d="M5720.093-516.716h-20.824a2.108,2.108,0,0,0-2.168,2.044v28.179a2.109,2.109,0,0,0,2.168,2.044h21.48a2.109,2.109,0,0,0,2.168-2.044v-17.343" transform="translate(-5697.101 516.716)" fill="#faf7f5"/>
        </g>
        <g id="Grupo_53414" data-name="Grupo 53414" transform="translate(20.31)">
          <path id="Trazado_98824" data-name="Trazado 98824" d="M5719.776-518.018a7.6,7.6,0,0,1,7.811,7.362,7.6,7.6,0,0,1-7.809,7.364,7.6,7.6,0,0,1-7.812-7.362h0a7.594,7.594,0,0,1,7.808-7.363Z" transform="translate(-5711.967 518.018)" fill="#ffea99"/>
        </g>
        <g id="Grupo_53415" data-name="Grupo 53415" transform="translate(5.504 7.793)">
          <path id="Trazado_98816" data-name="Trazado 98816" d="M5701.129-511.967h14.806v3.271h-14.806Z" transform="translate(-5701.129 511.967)" fill="#d3a7e6"/>
        </g>
      </g>
      <g id="Grupo_53434" data-name="Grupo 53434">
        <g id="Grupo_53418" data-name="Grupo 53418" transform="translate(28.12 3.856)">
          <g id="Grupo_53417" data-name="Grupo 53417">
            <path id="Trazado_98817" data-name="Trazado 98817" d="M5717.9-515.626a.8.8,0,0,1,.82.775v5.3a.8.8,0,0,1-.824.773.8.8,0,0,1-.82-.773v-5.3A.8.8,0,0,1,5717.9-515.626Z" transform="translate(-5717.081 515.626)" fill="#23147b"/>
          </g>
        </g>
        <g id="Grupo_53420" data-name="Grupo 53420" transform="translate(28.124 11.645)">
          <g id="Grupo_53419" data-name="Grupo 53419">
            <ellipse id="Elipse_28" data-name="Elipse 28" cx="0.822" cy="0.775" rx="0.822" ry="0.775" fill="#23147b"/>
          </g>
        </g>
        <g id="Grupo_53423" data-name="Grupo 53423">
          <path id="Trazado_98818" data-name="Trazado 98818" d="M5734.069-510.484a8.389,8.389,0,0,0-8.621-8.136,8.97,8.97,0,0,0-5.25,1.677h-20.71a2.912,2.912,0,0,0-2.991,2.819v28.178a2.91,2.91,0,0,0,2.991,2.819h2.606v1.347a2.912,2.912,0,0,0,2.991,2.819h21.482a2.912,2.912,0,0,0,2.99-2.819v-10.744a.8.8,0,0,0-.8-.793.8.8,0,0,0-.842.753v10.785a1.312,1.312,0,0,1-1.348,1.269h-21.482a1.311,1.311,0,0,1-1.348-1.269v-1.348h17.233a2.912,2.912,0,0,0,2.99-2.818v-16.519a9.173,9.173,0,0,0,3.954-.222v3.162a.8.8,0,0,0,.8.795.8.8,0,0,0,.843-.755v-3.848A8.089,8.089,0,0,0,5734.069-510.484Zm-11.752,24.538a1.313,1.313,0,0,1-1.347,1.27h-21.482a1.312,1.312,0,0,1-1.347-1.27v-28.178a1.312,1.312,0,0,1,1.347-1.27h19.077a7.818,7.818,0,0,0-1.746,4.568h-13.994a.8.8,0,0,0-.821.774v3.271a.8.8,0,0,0,.821.775h14.806a.848.848,0,0,0,.495-.156,8.581,8.581,0,0,0,4.188,3.265Zm-5.508-23.33v1.722h-13.162v-1.722Zm8.629,5.382a6.8,6.8,0,0,1-6.99-6.586,6.8,6.8,0,0,1,6.987-6.59,6.8,6.8,0,0,1,6.99,6.586,6.8,6.8,0,0,1-6.986,6.59Z" transform="translate(-5696.497 518.62)" fill="#23147b"/>
          <g id="Grupo_53422" data-name="Grupo 53422" transform="translate(31.415 21.806)">
            <g id="Grupo_53421" data-name="Grupo 53421">
              <path id="Trazado_98819" data-name="Trazado 98819" d="M5720.315-500.14a.8.8,0,0,1-.823-.774.8.8,0,0,1,.823-.775.8.8,0,0,1,.82.775.7.7,0,0,1-.021.176A.819.819,0,0,1,5720.315-500.14Z" transform="translate(-5719.493 501.689)" fill="#23147b"/>
            </g>
          </g>
        </g>
        <g id="Grupo_53433" data-name="Grupo 53433" transform="translate(5.485 15.308)">
          <g id="Grupo_53432" data-name="Grupo 53432">
            <g id="Grupo_53425" data-name="Grupo 53425" transform="translate(0.021)">
              <g id="Grupo_53424" data-name="Grupo 53424">
                <path id="Trazado_98820" data-name="Trazado 98820" d="M5716.155-505.185H5701.35a.8.8,0,0,1-.821-.774.8.8,0,0,1,.821-.775h14.805a.8.8,0,0,1,.821.775A.8.8,0,0,1,5716.155-505.185Z" transform="translate(-5700.528 506.734)" fill="#23147b"/>
              </g>
            </g>
            <g id="Grupo_53427" data-name="Grupo 53427" transform="translate(0.021 3.674)">
              <g id="Grupo_53426" data-name="Grupo 53426">
                <path id="Trazado_98821" data-name="Trazado 98821" d="M5716.155-502.332H5701.35a.8.8,0,0,1-.821-.775.8.8,0,0,1,.821-.774h14.805a.8.8,0,0,1,.821.774A.8.8,0,0,1,5716.155-502.332Z" transform="translate(-5700.528 503.881)" fill="#23147b"/>
              </g>
            </g>
            <g id="Grupo_53429" data-name="Grupo 53429" transform="translate(0 7.348)">
              <g id="Grupo_53428" data-name="Grupo 53428">
                <path id="Trazado_98822" data-name="Trazado 98822" d="M5716.161-499.48h-14.806a.8.8,0,0,1-.842-.755.8.8,0,0,1,.8-.793.247.247,0,0,1,.042,0h14.806a.8.8,0,0,1,.842.753.8.8,0,0,1-.8.795Z" transform="translate(-5700.512 501.029)" fill="#23147b"/>
              </g>
            </g>
            <g id="Grupo_53431" data-name="Grupo 53431" transform="translate(0 11.022)">
              <g id="Grupo_53430" data-name="Grupo 53430">
                <path id="Trazado_98823" data-name="Trazado 98823" d="M5716.161-496.627h-14.806a.8.8,0,0,1-.842-.755.8.8,0,0,1,.8-.795h14.849a.8.8,0,0,1,.842.755.8.8,0,0,1-.8.795Z" transform="translate(-5700.512 498.176)" fill="#23147b"/>
              </g>
            </g>
          </g>
        </g>
      </g>
    </g>
    <g id="Grupo_53410" data-name="Grupo 53410" transform="translate(5737.264 -565.375)">
      <path id="Trazado_98803" data-name="Trazado 98803" d="M5736.908-553.585h4.546v9.93h-4.546Z" transform="translate(-5716.264 576.66)" fill="#407093"/>
      <path id="Trazado_98804" data-name="Trazado 98804" d="M5736.908-553.585h2.273v9.93h-2.273Z" transform="translate(-5716.264 576.66)" fill="#365e7d"/>
      <g id="Grupo_53409" data-name="Grupo 53409" transform="translate(0 16.532)">
        <path id="Trazado_98805" data-name="Trazado 98805" d="M5725.158-530.736a3.268,3.268,0,0,0,3.36-3.168h0l2.03-6.338-2.03-6.279a3.267,3.267,0,0,0-3.359-3.17,3.27,3.27,0,0,0-3.362,3.168h0v12.62A3.27,3.27,0,0,0,5725.158-530.736Z" transform="translate(-5721.797 561.249)" fill="#d3a7e6"/>
        <path id="Trazado_98806" data-name="Trazado 98806" d="M5728.518-542.355l4.416,2.421-4.416,3.917a3.267,3.267,0,0,1-3.359,3.168,3.269,3.269,0,0,1-3.362-3.167h0v-6.338a3.27,3.27,0,0,0,3.361,3.17,3.268,3.268,0,0,0,3.36-3.168Z" transform="translate(-5721.797 563.361)" fill="#e4e0ff"/>
        <path id="Trazado_98807" data-name="Trazado 98807" d="M5747.794-547.174h-9.5a1.846,1.846,0,0,1-1.9-1.79v-6.091a3.694,3.694,0,0,0-3.7-3.609,3.675,3.675,0,0,0-3.829,3.494v4.208a4.493,4.493,0,0,0-2.148,3.79v14.148a6.28,6.28,0,0,0,6.456,6.085h11.042a2.348,2.348,0,0,0,2.422-2.175,2.3,2.3,0,0,0-2.306-2.3h1.217a2.755,2.755,0,0,0,2.841-2.66v-.018a2.714,2.714,0,0,0-2.786-2.576h1.041a2.754,2.754,0,0,0,2.84-2.658v-.019a2.714,2.714,0,0,0-2.786-2.576h1.1a2.709,2.709,0,0,0,2.785-2.626,2.709,2.709,0,0,0-2.785-2.626Z" transform="translate(-5719.995 558.665)" fill="#e4e0ff"/>
        <path id="Trazado_98808" data-name="Trazado 98808" d="M5736.534-526.94h-3.362a6.278,6.278,0,0,1-6.454-6.084h0v-14.148a4.5,4.5,0,0,1,2.147-3.792v-4.148a3.665,3.665,0,0,1,3.768-3.552h.063a3.855,3.855,0,0,1,1.606.373,3.539,3.539,0,0,0-2.083,3.179v4.148a4.5,4.5,0,0,0-2.148,3.792v14.148a6.278,6.278,0,0,0,6.457,6.084Z" transform="translate(-5719.995 558.665)" fill="#d3a7e6"/>
      </g>
      <ellipse id="Elipse_24" data-name="Elipse 24" cx="13.473" cy="12.702" rx="13.473" ry="12.702" transform="translate(9.444)" fill="#ffea99"/>
      <path id="Trazado_98809" data-name="Trazado 98809" d="M5743.32-546.141c-.375.031-.753.045-1.136.045-7.441,0-13.475-5.688-13.475-12.7s6.033-12.7,13.475-12.7q.573,0,1.136.044c-7.415.6-12.913,6.745-12.282,13.736a13.108,13.108,0,0,0,12.282,11.58Z" transform="translate(-5719.266 571.501)" fill="#ffd064"/>
      <path id="Trazado_98813" data-name="Trazado 98813" d="M5741.124-568.611a9.264,9.264,0,0,1,9.524,8.98,9.263,9.263,0,0,1-9.524,8.979,9.264,9.264,0,0,1-9.524-8.979h0A9.265,9.265,0,0,1,5741.124-568.611Z" transform="translate(-5718.207 572.334)" fill="#f3f9ff"/>
      <path id="Trazado_98810" data-name="Trazado 98810" d="M5743.021-550.83a9.522,9.522,0,0,1-11.222-7.022,9.009,9.009,0,0,1,7.448-10.58,10.049,10.049,0,0,1,3.774,0,9.011,9.011,0,0,0-7.438,10.589A9.269,9.269,0,0,0,5743.021-550.83Z" transform="translate(-5718.205 572.334)" fill="#d2e1f1"/>
    </g>
    <g id="Grupo_53411" data-name="Grupo 53411" transform="translate(5736.492 -566.104)">
      <path id="Trazado_98811" data-name="Trazado 98811" d="M5759.167-558.636a12.842,12.842,0,0,0-1.737-6.432.8.8,0,0,0-1.043-.307.708.708,0,0,0-.325.984l.013.021a11.653,11.653,0,0,1-5.059,16.285,13.132,13.132,0,0,1-17.271-4.769,11.652,11.652,0,0,1,5.058-16.285,13.279,13.279,0,0,1,15.605,2.542.8.8,0,0,0,1.09.059.7.7,0,0,0,.064-1.028,14.857,14.857,0,0,0-20.112-1.1,12.928,12.928,0,0,0-4.007,14.379,4.122,4.122,0,0,0-1.34,3.036v3.776a5.18,5.18,0,0,0-2.148,4.161v.2a4.3,4.3,0,0,0-5.809.592,3.759,3.759,0,0,0-.912,2.443v9.243a.75.75,0,0,0,.772.729.752.752,0,0,0,.773-.728h0v-9.24a2.517,2.517,0,0,1,2.587-2.441,2.517,2.517,0,0,1,2.588,2.441v12.615a2.518,2.518,0,0,1-2.588,2.441,2.518,2.518,0,0,1-2.587-2.441v-.473a.752.752,0,0,0-.772-.729.75.75,0,0,0-.773.726v.475a4.018,4.018,0,0,0,4.129,3.9,4.17,4.17,0,0,0,3.646-2.059,7.335,7.335,0,0,0,6.172,3.273h11.042a3.117,3.117,0,0,0,3.194-2.884,2.83,2.83,0,0,0-.586-1.812,3.7,3.7,0,0,0,1.319-.807,3.21,3.21,0,0,0,1.018-2.39,3.239,3.239,0,0,0-.926-2.183,3.629,3.629,0,0,0,1-.68,3.209,3.209,0,0,0,1.017-2.39,3.231,3.231,0,0,0-.913-2.168,3.273,3.273,0,0,0,1.658-4.479,3.583,3.583,0,0,0-3.208-1.9h-1.833v-1.474A13.658,13.658,0,0,0,5759.167-558.636ZM5740.3-544.043a1.1,1.1,0,0,1-1.127-1.061v-1.243a14.777,14.777,0,0,0,2.7.831v1.472H5740.3Zm10.922,2.012a1.822,1.822,0,0,1,0,2.685,2.083,2.083,0,0,1-1.422.556h-1.1a.75.75,0,0,0-.773.729.751.751,0,0,0,.773.726,1.972,1.972,0,0,1,2.012,1.862,1.8,1.8,0,0,1-.571,1.341,2.167,2.167,0,0,1-1.488.594h-1.042a.751.751,0,0,0-.772.728.749.749,0,0,0,.771.729h0a1.97,1.97,0,0,1,2.013,1.861,1.8,1.8,0,0,1-.585,1.343,2.156,2.156,0,0,1-1.487.594h-1.287a.752.752,0,0,0-.774.728.751.751,0,0,0,.771.729h0a1.556,1.556,0,0,1,1.6,1.508c0,.014,0,.03,0,.044a1.6,1.6,0,0,1-1.649,1.467h-11.041a5.535,5.535,0,0,1-5.683-5.357v-14.152a3.781,3.781,0,0,1,1.808-3.185.718.718,0,0,0,.343-.605v-4.148a2.694,2.694,0,0,1,.463-1.512,13.861,13.861,0,0,0,5.518,5.661v2a2.6,2.6,0,0,0,2.672,2.518h9.5a2.065,2.065,0,0,1,1.422.555Zm-4.8-2.012h-3v-1.236a15.176,15.176,0,0,0,3,0v1.238Z" transform="translate(-5721.232 572.067)" fill="#23147b"/>
      <path id="Trazado_98812" data-name="Trazado 98812" d="M5741.331-569.176c-5.686,0-10.3,4.345-10.3,9.707s4.61,9.707,10.3,9.707,10.3-4.346,10.3-9.707S5747.015-569.168,5741.331-569.176Zm0,17.959a8.512,8.512,0,0,1-8.751-8.251,8.513,8.513,0,0,1,8.751-8.252,8.514,8.514,0,0,1,8.753,8.252A8.523,8.523,0,0,1,5741.331-551.217Z" transform="translate(-5717.645 572.9)" fill="#23147b"/>
    </g>
    <g id="Group_53533" data-name="Group 53533" transform="translate(5885.847 -560.804)">
      <path id="Trazado_98778" data-name="Trazado 98778" d="M5834.45-548.36a1.494,1.494,0,0,1-1.537-1.448,1.417,1.417,0,0,1,.6-1.151l13.427-9.654a1.613,1.613,0,0,1,1.571-.165l12.543,5.412,12.686-10.032a1.6,1.6,0,0,1,2.171.076,1.389,1.389,0,0,1-.08,2.047c-.039.034-.08.066-.122.1L5862.29-552.56a1.61,1.61,0,0,1-1.63.207l-12.585-5.431-12.7,9.128A1.587,1.587,0,0,1,5834.45-548.36Z" transform="translate(-5829.698 568.576)" fill="#f3f9ff"/>
      <path id="Trazado_98779" data-name="Trazado 98779" d="M5837.63-546.259H5832.6a1.465,1.465,0,0,0-1.507,1.419h0v12.318a1.465,1.465,0,0,0,1.507,1.419h5.031a1.466,1.466,0,0,0,1.507-1.418h0V-544.84A1.467,1.467,0,0,0,5837.63-546.259Z" transform="translate(-5830.365 574.199)" fill="#a397e3"/>
      <path id="Trazado_98780" data-name="Trazado 98780" d="M5847.458-553.755h-5.03a1.465,1.465,0,0,0-1.507,1.419h0v21.971a1.465,1.465,0,0,0,1.507,1.419h5.03a1.464,1.464,0,0,0,1.506-1.419h0v-21.971a1.465,1.465,0,0,0-1.506-1.421Z" transform="translate(-5826.767 572.041)" fill="#d3a7e6"/>
      <path id="Trazado_98781" data-name="Trazado 98781" d="M5857.287-549.257h-5.031a1.465,1.465,0,0,0-1.505,1.419v16.18a1.465,1.465,0,0,0,1.505,1.419h5.031a1.465,1.465,0,0,0,1.507-1.419h0v-16.18a1.465,1.465,0,0,0-1.505-1.419Z" transform="translate(-5823.167 573.336)" fill="#ffea99"/>
      <path id="Trazado_98782" data-name="Trazado 98782" d="M5867.116-557.5h-5.033a1.465,1.465,0,0,0-1.5,1.418v26.8a1.466,1.466,0,0,0,1.5,1.422h5.031a1.465,1.465,0,0,0,1.506-1.419v-26.8A1.466,1.466,0,0,0,5867.116-557.5Z" transform="translate(-5819.569 570.961)" fill="#a397e3"/>
      <path id="Trazado_98783" data-name="Trazado 98783" d="M5838.873-552.575a3.71,3.71,0,0,1-3.814,3.6,3.71,3.71,0,0,1-3.814-3.6,3.71,3.71,0,0,1,3.814-3.6A3.71,3.71,0,0,1,5838.873-552.575Z" transform="translate(-5830.309 571.345)" fill="#f5deff"/>
      <path id="Trazado_98784" data-name="Trazado 98784" d="M5837-550.882a3.71,3.71,0,0,1-3.814-3.6,3.424,3.424,0,0,1,.325-1.454,3.517,3.517,0,0,0-1.941,4.743,3.907,3.907,0,0,0,5.031,1.831,3.714,3.714,0,0,0,1.943-1.831A4,4,0,0,1,5837-550.882Z" transform="translate(-5830.309 571.413)" fill="#d3a7e6"/>
      <path id="Trazado_98785" data-name="Trazado 98785" d="M5848.7-560.072a3.71,3.71,0,0,1-3.814,3.6,3.709,3.709,0,0,1-3.814-3.6,3.709,3.709,0,0,1,3.814-3.6h0A3.71,3.71,0,0,1,5848.7-560.072Z" transform="translate(-5826.712 569.186)" fill="#f5deff"/>
      <path id="Trazado_98786" data-name="Trazado 98786" d="M5846.83-558.379a3.708,3.708,0,0,1-3.814-3.595,3.415,3.415,0,0,1,.326-1.457,3.517,3.517,0,0,0-1.943,4.743,3.906,3.906,0,0,0,5.03,1.833,3.715,3.715,0,0,0,1.944-1.833A4,4,0,0,1,5846.83-558.379Z" transform="translate(-5826.712 569.255)" fill="#d3a7e6"/>
      <path id="Trazado_98787" data-name="Trazado 98787" d="M5858.531-555.575a3.71,3.71,0,0,1-3.815,3.6,3.711,3.711,0,0,1-3.814-3.6,3.711,3.711,0,0,1,3.814-3.595A3.71,3.71,0,0,1,5858.531-555.575Z" transform="translate(-5823.113 570.481)" fill="#f5deff"/>
      <path id="Trazado_98788" data-name="Trazado 98788" d="M5856.661-553.882a3.71,3.71,0,0,1-3.814-3.6,3.406,3.406,0,0,1,.327-1.455,3.518,3.518,0,0,0-1.944,4.743,3.911,3.911,0,0,0,5.033,1.833,3.717,3.717,0,0,0,1.942-1.833A4,4,0,0,1,5856.661-553.882Z" transform="translate(-5823.112 570.55)" fill="#d3a7e6"/>
      <path id="Trazado_98789" data-name="Trazado 98789" d="M5868.359-563.82a3.709,3.709,0,0,1-3.814,3.6,3.71,3.71,0,0,1-3.814-3.6,3.71,3.71,0,0,1,3.814-3.6,3.709,3.709,0,0,1,3.814,3.6Z" transform="translate(-5819.514 568.107)" fill="#e4e0ff"/>
      <path id="Trazado_98790" data-name="Trazado 98790" d="M5866.49-562.126a3.71,3.71,0,0,1-3.814-3.6,3.405,3.405,0,0,1,.326-1.455,3.517,3.517,0,0,0-1.943,4.743,3.907,3.907,0,0,0,5.03,1.833,3.713,3.713,0,0,0,1.946-1.833A4,4,0,0,1,5866.49-562.126Z" transform="translate(-5819.515 568.176)" fill="#d3a7e6"/>
      <path id="Trazado_98791" data-name="Trazado 98791" d="M5837.824-546.793h-5.029a2.178,2.178,0,0,0-2.234,2.107v12.317a2.178,2.178,0,0,0,2.234,2.107h5.029a2.179,2.179,0,0,0,2.236-2.107v-12.317A2.179,2.179,0,0,0,5837.824-546.793Zm.777,14.424a.757.757,0,0,1-.777.733h-5.029a.758.758,0,0,1-.777-.733v-12.317a.759.759,0,0,1,.777-.733h5.029a.756.756,0,0,1,.777.733Z" transform="translate(-5830.561 574.045)" fill="#23147b"/>
      <path id="Trazado_98792" data-name="Trazado 98792" d="M5847.654-554.289h-5.031a2.179,2.179,0,0,0-2.234,2.107v3.909a.707.707,0,0,0,.727.689.71.71,0,0,0,.731-.685v-3.913a.755.755,0,0,1,.777-.732h5.031a.755.755,0,0,1,.777.732v21.972a.757.757,0,0,1-.777.733h-5.031a.757.757,0,0,1-.777-.733v-15.312a.711.711,0,0,0-.731-.687.709.709,0,0,0-.727.687v15.314a2.18,2.18,0,0,0,2.234,2.107h5.031a2.18,2.18,0,0,0,2.234-2.107v-21.972A2.179,2.179,0,0,0,5847.654-554.289Z" transform="translate(-5826.96 571.887)" fill="#23147b"/>
      <path id="Trazado_98793" data-name="Trazado 98793" d="M5857.482-549.791h-5.03a2.182,2.182,0,0,0-2.236,2.107v16.18a2.182,2.182,0,0,0,2.237,2.106h5.029a2.181,2.181,0,0,0,2.236-2.107v-16.179A2.18,2.18,0,0,0,5857.482-549.791Zm.777,18.287a.756.756,0,0,1-.777.732h-5.03a.755.755,0,0,1-.776-.732v-16.18a.755.755,0,0,1,.776-.732h5.03a.756.756,0,0,1,.777.732Z" transform="translate(-5823.364 573.182)" fill="#23147b"/>
      <path id="Trazado_98794" data-name="Trazado 98794" d="M5867.312-558.037h-5.03a2.181,2.181,0,0,0-2.237,2.107v19.645a.71.71,0,0,0,.73.688.709.709,0,0,0,.729-.688h0V-555.93a.756.756,0,0,1,.778-.732h5.03a.756.756,0,0,1,.777.732v26.8a.757.757,0,0,1-.777.733h-5.03a.758.758,0,0,1-.778-.733v-4.4a.709.709,0,0,0-.729-.688.71.71,0,0,0-.73.688v4.4a2.18,2.18,0,0,0,2.237,2.107h5.03a2.179,2.179,0,0,0,2.235-2.107v-26.8A2.18,2.18,0,0,0,5867.312-558.037Z" transform="translate(-5819.765 570.807)" fill="#23147b"/>
      <path id="Trazado_98795" data-name="Trazado 98795" d="M5835.26-553.468a4.43,4.43,0,0,0-4.562,4.284,4.427,4.427,0,0,0,4.544,4.3,4.43,4.43,0,0,0,4.563-4.284,4.214,4.214,0,0,0-.04-.571l7.162-5.154a4.764,4.764,0,0,0,4.395-.462l6.271,2.7a4.475,4.475,0,0,0,4.938,3.874,4.361,4.361,0,0,0,4.109-4.656,3.575,3.575,0,0,0-.053-.366l7.394-5.847a4.624,4.624,0,0,0,5.828-2.55,4.219,4.219,0,0,0-2.705-5.494,4.627,4.627,0,0,0-5.829,2.55,4.084,4.084,0,0,0-.276,1.472,4.065,4.065,0,0,0,.067.75l-7.389,5.851a4.76,4.76,0,0,0-4.2.537l-6.268-2.7a4.487,4.487,0,0,0-5.019-3.781,4.351,4.351,0,0,0-4.011,4.732l-7.16,5.15A4.744,4.744,0,0,0,5835.26-553.468Zm40.281-13.106a3,3,0,0,1,3.084,2.908,3,3,0,0,1-3.084,2.909h0a3.038,3.038,0,0,1-3.087-2.909A3,3,0,0,1,5875.541-566.574Zm-3.943,5.035.036.059a4.413,4.413,0,0,0,1,1.106l-6.577,5.2c-.013-.021-.212-.321-.309-.442a4.463,4.463,0,0,0-.729-.724Zm-12.568,8.449a3,3,0,0,1,3.107-2.888,3,3,0,0,1,3.063,2.93,3,3,0,0,1-3.086,2.909,3,3,0,0,1-3.084-2.909.145.145,0,0,1,0-.041Zm-6.6-3.328a4.2,4.2,0,0,0,.656-1.358l5.295,2.285a4.174,4.174,0,0,0-.617,1.2c-.021.061-.039.121-.056.182l-5.3-2.284Zm-3.747-5.33a3.008,3.008,0,0,1,3.086,2.909,3,3,0,0,1-3.086,2.908,3,3,0,0,1-3.085-2.908A3,3,0,0,1,5848.687-561.748Zm-4.044,4.861.027.048a4.317,4.317,0,0,0,.952,1.162l-6.315,4.544a4.424,4.424,0,0,0-.979-1.209ZM5837.1-551.5a2.775,2.775,0,0,1,.561,4.044,3.185,3.185,0,0,1-4.29.528,2.774,2.774,0,0,1-.558-4.044,3.129,3.129,0,0,1,2.45-1.126A3.152,3.152,0,0,1,5837.1-551.5Z" transform="translate(-5830.511 567.952)" fill="#23147b"/>
    </g>
    <g id="auditoria" transform="translate(5932.837 -488.024)">
      <g id="Grupo_53375" data-name="Grupo 53375" transform="translate(27.631 13.713)">
        <path id="Trazado_98735" data-name="Trazado 98735" d="M5902.923-500.8h-13.276a7.587,7.587,0,0,1-4.464,6.69v13.253l.092.258h17.65a.442.442,0,0,0,.454-.429h0v-19.342a.442.442,0,0,0-.454-.429Z" transform="translate(-5885.183 500.796)" fill="#dff6fd"/>
        <path id="Trazado_98736" data-name="Trazado 98736" d="M5885.186-495.035v13.253l.092.258h2.977V-497.57a7.988,7.988,0,0,1-3.069,2.535Z" transform="translate(-5885.182 501.725)" fill="#c8effe"/>
      </g>
      <g id="Grupo_53376" data-name="Grupo 53376" transform="translate(27.635 4.965)">
        <path id="Trazado_98737" data-name="Trazado 98737" d="M5900.172-507.588h-14.986v1.813a7.583,7.583,0,0,1,4.468,6.813v.122h10.979v-8.321a.442.442,0,0,0-.457-.428Z" transform="translate(-5885.186 507.588)" fill="#ffea99"/>
        <path id="Trazado_98738" data-name="Trazado 98738" d="M5888.613-502.694v-4.894h-3.428v1.813A7.922,7.922,0,0,1,5888.613-502.694Z" transform="translate(-5885.186 507.588)" fill="#ffea99"/>
      </g>
      <path id="Trazado_98739" data-name="Trazado 98739" d="M5888.793-490.381a7.858,7.858,0,0,1-8.078-7.617,7.858,7.858,0,0,1,8.078-7.616,8.481,8.481,0,0,1,3.7.847v-5.749a.442.442,0,0,0-.454-.429h-26.131a.442.442,0,0,0-.455.429h0V-478.1a.442.442,0,0,0,.455.428H5892.5v-13.554a8.444,8.444,0,0,1-3.7.846Z" transform="translate(-5864.774 511.587)" fill="#f3f9ff"/>
      <g id="Grupo_53377" data-name="Grupo 53377" transform="translate(0.682 0.643)">
        <path id="Trazado_98740" data-name="Trazado 98740" d="M5868.524-478.1v-32.415a.442.442,0,0,1,.453-.429h-3.066a.442.442,0,0,0-.455.429h0V-478.1a.442.442,0,0,0,.455.428h3.066a.441.441,0,0,1-.453-.428Z" transform="translate(-5865.456 510.944)" fill="#d2e1f1"/>
      </g>
      <g id="Grupo_53378" data-name="Grupo 53378" transform="translate(28.771 18.069)">
        <path id="Trazado_98741" data-name="Trazado 98741" d="M5890.027-495.2l-2.345-2.21a7.8,7.8,0,0,1-1.665,1.57l2.344,2.21Z" transform="translate(-5886.017 497.414)" fill="#f5deff"/>
      </g>
      <g id="Grupo_53379" data-name="Grupo 53379" transform="translate(30.8 19.982)">
        <path id="Trazado_98742" data-name="Trazado 98742" d="M5895.353-488.527a1.877,1.877,0,0,1-2.543,0l-5.173-4.877a.41.41,0,0,1,0-.605h0l1.9-1.793a.473.473,0,0,1,.642,0h0l5.173,4.877a1.626,1.626,0,0,1,0,2.4Z" transform="translate(-5887.502 495.929)" fill="#d3a7e6"/>
      </g>
      <g id="Grupo_53380" data-name="Grupo 53380" transform="translate(30.799 19.982)">
        <path id="Trazado_98743" data-name="Trazado 98743" d="M5895.145-488.527l-5.175-4.877a.41.41,0,0,1,0-.605h0l1.054-1-.846-.8a.473.473,0,0,0-.642,0h0l-1.9,1.793a.413.413,0,0,0,0,.607h0l5.175,4.877a1.875,1.875,0,0,0,2.438.089C5895.212-488.467,5895.178-488.5,5895.145-488.527Z" transform="translate(-5887.502 495.929)" fill="#e4e0ff"/>
      </g>
      <g id="Grupo_53381" data-name="Grupo 53381" transform="translate(15.941 5.975)">
        <ellipse id="Elipse_17" data-name="Elipse 17" cx="8.078" cy="7.616" rx="8.078" ry="7.616" fill="#d3a7e6"/>
      </g>
      <g id="Grupo_53384" data-name="Grupo 53384" transform="translate(18.212 8.114)">
        <g id="Grupo_53382" data-name="Grupo 53382" transform="translate(0 0.001)">
          <ellipse id="Elipse_18" data-name="Elipse 18" cx="5.807" cy="5.475" rx="5.807" ry="5.475" fill="#e4e0ff"/>
        </g>
        <g id="Grupo_53383" data-name="Grupo 53383" transform="translate(0.009)">
          <path id="Trazado_98744" data-name="Trazado 98744" d="M5881.342-499.669a5.547,5.547,0,0,1,4.279-5.282,5.852,5.852,0,0,0-7.122,3.848,5.444,5.444,0,0,0,4.081,6.714,6.142,6.142,0,0,0,3.042,0A5.543,5.543,0,0,1,5881.342-499.669Z" transform="translate(-5878.294 505.143)" fill="#f3f9ff"/>
        </g>
      </g>
      <g id="Grupo_53385" data-name="Grupo 53385">
        <path id="Trazado_98745" data-name="Trazado 98745" d="M5910.329-498.372h-1.615v-7.679a1.1,1.1,0,0,0-1.136-1.072h-14.217v-3.251a1.106,1.106,0,0,0-1.136-1.07h-17.909a.665.665,0,0,0-.706.619.659.659,0,0,0,.657.665.291.291,0,0,0,.048,0H5892v4.554a9.139,9.139,0,0,0-9.19,1.893H5870.6a.667.667,0,0,0-.7.619.661.661,0,0,0,.658.666h11.132a8.085,8.085,0,0,0-.926,1.708h-4.449a.667.667,0,0,0-.705.621.661.661,0,0,0,.658.665h4.116a7.813,7.813,0,0,0-.162,1.579v.129H5870.6a.667.667,0,0,0-.7.621.661.661,0,0,0,.658.665h9.792a7.87,7.87,0,0,0,.522,1.709H5870.6a.665.665,0,0,0-.7.62.661.661,0,0,0,.658.665h11.018a8.494,8.494,0,0,0,1.524,1.709h-4.514a.666.666,0,0,0-.706.62.66.66,0,0,0,.657.665h6.56a9.23,9.23,0,0,0,6.813.38v11.9h-25.588v-31.987h4.815a.665.665,0,0,0,.705-.619.66.66,0,0,0-.657-.665h-5.089a1.107,1.107,0,0,0-1.135,1.07v32.415a1.106,1.106,0,0,0,1.135,1.07h37.832a.664.664,0,0,0,.7-.619.657.657,0,0,0-.657-.665.3.3,0,0,0-.048,0h-10.563v-12.535c.119-.066.236-.131.352-.2l1.42,1.338a1.027,1.027,0,0,0,.276,1.088l5.175,4.877a2.585,2.585,0,0,0,3.5,0,2.251,2.251,0,0,0,.694-2.035h5.321v1.525h-3.089a.666.666,0,0,0-.705.619.661.661,0,0,0,.659.665h3.136v1.524h-8.9a.664.664,0,0,0-.7.621.659.659,0,0,0,.657.665h8.95v1.848h-3a.665.665,0,0,0-.706.62.661.661,0,0,0,.658.665h3.272a1.106,1.106,0,0,0,1.135-1.07V-497.3A1.106,1.106,0,0,0,5910.329-498.372Zm-2.977-7.465v1.524h-7.6a.665.665,0,0,0-.7.621.659.659,0,0,0,.656.665h7.653v1.524h-7.6a.665.665,0,0,0-.7.621.659.659,0,0,0,.656.665h7.653v1.848h-9.634a8.23,8.23,0,0,0-4.357-6.629v-.838h13.991Zm-18.375,14.957a7.194,7.194,0,0,1-7.4-6.974,7.194,7.194,0,0,1,7.4-6.973,7.194,7.194,0,0,1,7.4,6.973A7.205,7.205,0,0,1,5888.977-490.88Zm5.832-.817a8.958,8.958,0,0,0,.7-.663l1.2,1.132-.7.663Zm8.317,7.183a1.167,1.167,0,0,1-1.578,0l-5.015-4.727,1.58-1.489,5.013,4.727A1.012,1.012,0,0,1,5903.125-484.513Zm.954-2.408-5.164-4.868a1.181,1.181,0,0,0-1.152-.26l-1.419-1.338a7.919,7.919,0,0,0,1.353-3.7H5910.1v1.743h-6.722a.661.661,0,0,0-.659.665.666.666,0,0,0,.659.621h6.722v1.524h-8.175a.668.668,0,0,0-.706.62.659.659,0,0,0,.658.665.285.285,0,0,0,.048,0h8.175v1.525h-4.542a.666.666,0,0,0-.7.62.659.659,0,0,0,.657.665.3.3,0,0,0,.048,0h4.542v1.525h-6.023Z" transform="translate(-5864.958 511.443)" fill="#23147b"/>
        <path id="Trazado_98746" data-name="Trazado 98746" d="M5881.108-507.016a.66.66,0,0,0,.657-.665.661.661,0,0,0-.657-.619h-9.065a.659.659,0,0,0-.657.665.663.663,0,0,0,.657.619Z" transform="translate(-5862.604 512.348)" fill="#23147b"/>
        <path id="Trazado_98747" data-name="Trazado 98747" d="M5869.266-501.831h3.528a.661.661,0,0,0,.659-.665.665.665,0,0,0-.659-.621h-3.528a.66.66,0,0,0-.657.665A.663.663,0,0,0,5869.266-501.831Z" transform="translate(-5863.62 513.841)" fill="#23147b"/>
        <path id="Trazado_98748" data-name="Trazado 98748" d="M5874.987-496.143h-5.708a.668.668,0,0,0-.706.621.661.661,0,0,0,.658.665h5.756a.661.661,0,0,0,.658-.665.663.663,0,0,0-.658-.621Z" transform="translate(-5863.632 515.849)" fill="#23147b"/>
        <path id="Trazado_98749" data-name="Trazado 98749" d="M5885.932-493.819h-16.652a.668.668,0,0,0-.706.621.661.661,0,0,0,.658.665h16.7a.664.664,0,0,0,.7-.621.658.658,0,0,0-.657-.665Z" transform="translate(-5863.632 516.518)" fill="#23147b"/>
        <path id="Trazado_98750" data-name="Trazado 98750" d="M5882.723-491.494h-4.677a.667.667,0,0,0-.7.619.659.659,0,0,0,.658.665.273.273,0,0,0,.047,0h4.677a.66.66,0,0,0,.659-.665A.664.664,0,0,0,5882.723-491.494Z" transform="translate(-5860.423 517.187)" fill="#23147b"/>
        <path id="Trazado_98751" data-name="Trazado 98751" d="M5869.279-490.21h9.8a.667.667,0,0,0,.706-.619.661.661,0,0,0-.659-.665h-9.843a.668.668,0,0,0-.706.619.659.659,0,0,0,.658.665A.285.285,0,0,0,5869.279-490.21Z" transform="translate(-5863.632 517.187)" fill="#23147b"/>
        <path id="Trazado_98752" data-name="Trazado 98752" d="M5869.266-487.885h16.653a.662.662,0,0,0,.659-.665.665.665,0,0,0-.659-.621h-16.653a.66.66,0,0,0-.657.665A.664.664,0,0,0,5869.266-487.885Z" transform="translate(-5863.62 517.857)" fill="#23147b"/>
        <path id="Trazado_98753" data-name="Trazado 98753" d="M5890.056-498.683a.687.687,0,0,0-.838.448,5.171,5.171,0,0,1-6.308,3.368,4.807,4.807,0,0,1-3.573-5.948,5.171,5.171,0,0,1,6.308-3.368,5,5,0,0,1,3.553,3.3.685.685,0,0,0,.831.46.639.639,0,0,0,.486-.784l-.011-.036a6.555,6.555,0,0,0-8.048-4.156,6.074,6.074,0,0,0-4.408,7.587,6.555,6.555,0,0,0,8.048,4.156,6.3,6.3,0,0,0,4.433-4.239A.639.639,0,0,0,5890.056-498.683Z" transform="translate(-5860.259 513.113)" fill="#23147b"/>
        <path id="Trazado_98754" data-name="Trazado 98754" d="M5885.023-501.774a.659.659,0,0,0,.657-.665.662.662,0,0,0-.657-.62h-3.638a.661.661,0,0,0-.658.665.661.661,0,0,0,.658.62Z" transform="translate(-5859.185 513.858)" fill="#23147b"/>
        <path id="Trazado_98755" data-name="Trazado 98755" d="M5887.01-500.747a.663.663,0,0,0-.682-.643h-5.68a.666.666,0,0,0-.7.62.659.659,0,0,0,.658.665.274.274,0,0,0,.046,0h5.678a.663.663,0,0,0,.683-.64Z" transform="translate(-5859.471 514.338)" fill="#23147b"/>
        <path id="Trazado_98756" data-name="Trazado 98756" d="M5881.823-499.722a.665.665,0,0,0-.705.619.658.658,0,0,0,.658.665.292.292,0,0,0,.047,0h2.474a.667.667,0,0,0,.706-.619.66.66,0,0,0-.658-.665h-2.521Z" transform="translate(-5859.041 514.818)" fill="#23147b"/>
      </g>
    </g>
    <g id="cumplimiento" transform="translate(5818.038 -592.779)">
      <path id="Trazado_98722" data-name="Trazado 98722" d="M5785.55-588.212a.178.178,0,0,1,.183-.174h27.793V-592a.268.268,0,0,0-.275-.26h-31.534a.268.268,0,0,0-.276.26v39.5a.269.269,0,0,0,.276.262h3.834Z" transform="translate(-5780.734 592.927)" fill="#d3a7e6"/>
      <path id="Trazado_98723" data-name="Trazado 98723" d="M5785.55-588.212a.178.178,0,0,1,.183-.174h.425V-592a.268.268,0,0,1,.275-.26h-4.717a.268.268,0,0,0-.276.26v39.5a.269.269,0,0,0,.276.262h3.834Z" transform="translate(-5780.734 592.927)" fill="#f5deff"/>
      <path id="Trazado_98724" data-name="Trazado 98724" d="M5809.165-553.927a.364.364,0,0,1-.374-.353v-8.853a.364.364,0,0,1,.374-.353h7.3v-2.845h-7.3a.364.364,0,0,1-.374-.353v-8.853a.363.363,0,0,1,.374-.352h7.3v-13.17a.269.269,0,0,0-.277-.26h-31.533a.269.269,0,0,0-.276.26h0v39.493a.269.269,0,0,0,.276.26h31.533a.269.269,0,0,0,.277-.26h0v-4.361Z" transform="translate(-5779.658 593.775)" fill="#f3f9ff"/>
      <g id="Grupo_53366" data-name="Grupo 53366" transform="translate(4.716 4.455)">
        <path id="Trazado_98725" data-name="Trazado 98725" d="M5788.337-549.566V-589.06a.269.269,0,0,1,.276-.26h-3.961a.268.268,0,0,0-.276.26h0v39.493a.268.268,0,0,0,.276.26h3.961a.269.269,0,0,1-.276-.26Z" transform="translate(-5784.376 589.32)" fill="#d2e1f1"/>
      </g>
      <g id="Grupo_53369" data-name="Grupo 53369" transform="translate(29.04 30.198)">
        <g id="Grupo_53367" data-name="Grupo 53367">
          <path id="Trazado_98726" data-name="Trazado 98726" d="M5812.039-559.6h-9.391a.454.454,0,0,1-.467-.441v-8.855a.454.454,0,0,1,.467-.439h9.389a.454.454,0,0,1,.467.439v8.86A.456.456,0,0,1,5812.039-559.6Z" transform="translate(-5802.181 569.332)" fill="#ffea99"/>
        </g>
        <g id="Grupo_53368" data-name="Grupo 53368">
          <path id="Trazado_98727" data-name="Trazado 98727" d="M5805.308-560.033v-8.86a.454.454,0,0,1,.467-.439h-3.127a.454.454,0,0,0-.467.439v8.86a.454.454,0,0,0,.467.44h3.127A.454.454,0,0,1,5805.308-560.033Z" transform="translate(-5802.181 569.332)" fill="#f5de86"/>
        </g>
      </g>
      <g id="Grupo_53373" data-name="Grupo 53373">
        <g id="Grupo_53370" data-name="Grupo 53370" transform="translate(29.04 17.797)">
          <path id="Trazado_98728" data-name="Trazado 98728" d="M5812.039-569.227h-9.391a.454.454,0,0,1-.467-.44v-8.853a.454.454,0,0,1,.467-.44h9.389a.454.454,0,0,1,.467.44v8.852A.455.455,0,0,1,5812.039-569.227Z" transform="translate(-5802.181 578.961)" fill="#d3a7e6"/>
        </g>
        <g id="Grupo_53371" data-name="Grupo 53371" transform="translate(29.04 17.797)">
          <path id="Trazado_98729" data-name="Trazado 98729" d="M5805.308-569.667v-8.853a.454.454,0,0,1,.467-.44h-3.127a.454.454,0,0,0-.467.44v8.852a.454.454,0,0,0,.467.44h3.127A.453.453,0,0,1,5805.308-569.667Z" transform="translate(-5802.181 578.961)" fill="#f5deff"/>
        </g>
        <g id="Grupo_53372" data-name="Grupo 53372">
          <path id="Trazado_98730" data-name="Trazado 98730" d="M5789.627-580.144h18.267a.683.683,0,0,0,.7-.661.683.683,0,0,0-.7-.661h-18.267a.682.682,0,0,0-.7.661A.682.682,0,0,0,5789.627-580.144Z" transform="translate(-5777.994 596.037)" fill="#23147b"/>
          <path id="Trazado_98731" data-name="Trazado 98731" d="M5789.627-577.124h6.508a.682.682,0,0,0,.7-.661.682.682,0,0,0-.7-.661h-6.508a.682.682,0,0,0-.7.661A.682.682,0,0,0,5789.627-577.124Z" transform="translate(-5777.994 596.906)" fill="#23147b"/>
          <path id="Trazado_98732" data-name="Trazado 98732" d="M5789.627-568.064h10.435a.682.682,0,0,0,.7-.661.682.682,0,0,0-.7-.661h-10.435a.682.682,0,0,0-.7.661A.681.681,0,0,0,5789.627-568.064Z" transform="translate(-5777.994 599.515)" fill="#23147b"/>
          <path id="Trazado_98733" data-name="Trazado 98733" d="M5792.2-584.045h11.228a.681.681,0,0,0,.7-.661.682.682,0,0,0-.7-.661H5792.2a.682.682,0,0,0-.7.661A.682.682,0,0,0,5792.2-584.045Z" transform="translate(-5777.052 594.913)" fill="#23147b"/>
          <path id="Trazado_98734" data-name="Trazado 98734" d="M5822.18-563.1l-1.19,1.123v-.162a1.138,1.138,0,0,0-1.168-1.1h-1.383v-1.346h1.383a1.139,1.139,0,0,0,1.169-1.1v-1.086a.682.682,0,0,0-.7-.661.683.683,0,0,0-.7.661v.869h-8.924v-8.417h8.924v1.261l-3.851,3.631-2.522-2.377a.732.732,0,0,0-.992.018.635.635,0,0,0,0,.917l3.018,2.849a.731.731,0,0,0,.991,0h0l3.356-3.162v1.328a.681.681,0,0,0,.7.661.682.682,0,0,0,.7-.661h0v-2.653l2.182-2.057a.635.635,0,0,0-.02-.934.733.733,0,0,0-.973,0l-1.19,1.122v-.158a1.136,1.136,0,0,0-1.167-1.1h-1.384v-12.421a.956.956,0,0,0-.982-.926h-3.04v-2.866a.957.957,0,0,0-.982-.923h-31.528a.957.957,0,0,0-.983.926v39.492a.957.957,0,0,0,.983.929h3.04v2.866a.956.956,0,0,0,.982.926h31.526a.955.955,0,0,0,.985-.925v-3.617h1.383a1.141,1.141,0,0,0,1.169-1.1v-6.822l2.182-2.057a.636.636,0,0,0,0-.935.734.734,0,0,0-.992,0Zm-2.591,2.445-3.851,3.631-2.522-2.378a.733.733,0,0,0-.991-.046.635.635,0,0,0-.049.934c.016.016.03.031.047.045l3.019,2.845a.731.731,0,0,0,.991,0h0l3.356-3.162v5.279h-2.851a.684.684,0,0,0-.7.661.682.682,0,0,0,.7.661h.3v3.215h-30.688v-38.7h6.454a.682.682,0,0,0,.7-.661.682.682,0,0,0-.7-.661h-6.876a.955.955,0,0,0-.981.926v35.3h-2.62v-38.7h30.691v2.466h-16.943a.682.682,0,0,0-.7.662.683.683,0,0,0,.7.661h20.962v12.024h-6.6a1.138,1.138,0,0,0-1.169,1.1h0v.223h-7.578a.682.682,0,0,0-.7.661.681.681,0,0,0,.7.662h7.579v2.568h-16.706a.681.681,0,0,0-.7.659.683.683,0,0,0,.7.662h16.707v2.568h-16.706a.681.681,0,0,0-.7.659.683.683,0,0,0,.7.662h16.821a1.176,1.176,0,0,0,1.055.63h6.6v1.347h-6.6a1.181,1.181,0,0,0-1.036.591h-3.787a.681.681,0,0,0-.7.659.681.681,0,0,0,.7.662h3.654v2.568h-16.706a.681.681,0,0,0-.7.661.682.682,0,0,0,.7.661h16.706v2.568h-16.706a.681.681,0,0,0-.7.659.683.683,0,0,0,.7.662h16.707v.26a1.138,1.138,0,0,0,1.169,1.1h3.033a.68.68,0,0,0,.7-.659.681.681,0,0,0-.7-.662h-2.8v-8.414h8.924v1.262Z" transform="translate(-5780.924 592.779)" fill="#23147b"/>
        </g>
      </g>
    </g>
  </g>
</svg>
