<svg xmlns="http://www.w3.org/2000/svg" xmlns:xlink="http://www.w3.org/1999/xlink" width="1088" height="200" viewBox="0 0 1088 200">
  <defs>
    <radialGradient id="radial-gradient" cx="0.531" cy="0.496" r="0.551" gradientTransform="translate(0.082) scale(0.837 1)" gradientUnits="objectBoundingBox">
      <stop offset="0" stop-color="#4d4d4d"/>
      <stop offset="0.087" stop-color="#696969"/>
      <stop offset="0.242" stop-color="#979797"/>
      <stop offset="0.398" stop-color="#bcbcbc"/>
      <stop offset="0.552" stop-color="#d9d9d9"/>
      <stop offset="0.705" stop-color="#eee"/>
      <stop offset="0.855" stop-color="#fafafa"/>
      <stop offset="1" stop-color="#fff"/>
    </radialGradient>
    <radialGradient id="radial-gradient-2" cx="0.586" cy="0.471" r="0.621" gradientTransform="translate(0.162) scale(0.675 1)" gradientUnits="objectBoundingBox">
      <stop offset="0" stop-color="#4d4d4d"/>
      <stop offset="0.084" stop-color="#696969"/>
      <stop offset="0.232" stop-color="#979797"/>
      <stop offset="0.382" stop-color="#bcbcbc"/>
      <stop offset="0.53" stop-color="#d9d9d9"/>
      <stop offset="0.676" stop-color="#eee"/>
      <stop offset="0.821" stop-color="#fafafa"/>
      <stop offset="0.96" stop-color="#fff"/>
    </radialGradient>
  </defs>
  <g id="t1-i16" transform="translate(-139 -8518)">
    <rect id="Rectangle_5288" data-name="Rectangle 5288" width="1088" height="200" transform="translate(139 8518)" fill="none"/>
    <g id="Group_53646" data-name="Group 53646" transform="translate(-8090 9785.411)">
      <g id="Group_53643" data-name="Group 53643">
        <rect id="Rectangle_5103" data-name="Rectangle 5103" width="183.819" height="153.819" rx="28.504" transform="translate(8438.353 -1231.074)" fill="url(#radial-gradient)"/>
        <rect id="Rectangle_5104" data-name="Rectangle 5104" width="227.819" height="153.819" rx="28.504" transform="translate(8659.611 -1231.074)" fill="url(#radial-gradient-2)"/>
        <g id="Group_53641" data-name="Group 53641">
          <path id="Path_99669" data-name="Path 99669" d="M8804.627-1254.3h-.228a2.057,2.057,0,0,1-2.058-2.057,2.057,2.057,0,0,1,2.058-2.057h.228a2.056,2.056,0,0,1,2.057,2.057A2.056,2.056,0,0,1,8804.627-1254.3Z" fill="#9a4cbc"/>
          <path id="Path_99670" data-name="Path 99670" d="M8784.971-1254.3h-.229a2.058,2.058,0,0,1-2.058-2.057,2.058,2.058,0,0,1,2.058-2.057h.229a2.057,2.057,0,0,1,2.058,2.057A2.057,2.057,0,0,1,8784.971-1254.3Z" fill="#9a4cbc"/>
          <path id="Path_99671" data-name="Path 99671" d="M8859.315-1214.723a2.057,2.057,0,0,1-2.059-2.057v-.229a2.057,2.057,0,0,1,2.059-2.057,2.057,2.057,0,0,1,2.057,2.057v.229A2.057,2.057,0,0,1,8859.315-1214.723Z" fill="#9a4cbc"/>
          <path id="Path_99672" data-name="Path 99672" d="M8856.533-1234.024a2.055,2.055,0,0,1-2.751-.945l-.093-.188a2.056,2.056,0,0,1,.92-2.76,2.041,2.041,0,0,1,.918-.218,2.058,2.058,0,0,1,1.842,1.138l.108.222A2.056,2.056,0,0,1,8856.533-1234.024Z" fill="#9a4cbc"/>
          <path id="Path_99673" data-name="Path 99673" d="M8824.2-1254.271l-.215-.008a2.056,2.056,0,0,1-1.99-2.122,2.058,2.058,0,0,1,2.055-1.991h.068l.24.009a2.057,2.057,0,0,1,1.977,2.134A2.052,2.052,0,0,1,8824.2-1254.271Z" fill="#9a4cbc"/>
          <path id="Path_99674" data-name="Path 99674" d="M8841.651-1248.7l-.181-.117a2.059,2.059,0,0,1-.617-2.843,2.058,2.058,0,0,1,1.732-.945,2.047,2.047,0,0,1,1.111.328l.2.131a2.058,2.058,0,0,1,.6,2.847A2.058,2.058,0,0,1,8841.651-1248.7Z" fill="#9a4cbc"/>
          <path id="Path_99675" data-name="Path 99675" d="M8857.6-1137.4a34.662,34.662,0,0,1-24.007,33.036,34.606,34.606,0,0,1-10.721,1.693H8666.36a34.609,34.609,0,0,1-10.595-1.652l-.012,0a34.644,34.644,0,0,1-24.122-33.074v-33.462a8.013,8.013,0,0,0,6.2-7.794,8.013,8.013,0,0,0-6.2-7.794v-33.462a34.769,34.769,0,0,1,34.729-34.729h102.256a1.714,1.714,0,0,0,1.714-1.714,1.714,1.714,0,0,0-1.714-1.714H8666.36a38.2,38.2,0,0,0-38.158,38.157v33.424a8.014,8.014,0,0,0-6.369,7.832,8.013,8.013,0,0,0,6.369,7.832v33.424a37.808,37.808,0,0,0,7.5,22.691,38.041,38.041,0,0,0,19.019,13.651l.014,0a38.016,38.016,0,0,0,11.628,1.811h156.512a38.014,38.014,0,0,0,11.781-1.861,38.054,38.054,0,0,0,18.922-13.662,37.826,37.826,0,0,0,7.454-22.634v-59.724a1.715,1.715,0,0,0-1.714-1.715,1.716,1.716,0,0,0-1.716,1.715Zm-227.766-36.685a4.576,4.576,0,0,1-4.571-4.571,4.576,4.576,0,0,1,4.571-4.571,4.575,4.575,0,0,1,4.571,4.571A4.575,4.575,0,0,1,8629.834-1174.084Z" fill="#9a4cbc"/>
          <circle id="Ellipse_3981" data-name="Ellipse 3981" cx="2.857" cy="2.857" r="2.857" transform="translate(8626.977 -1181.512)" fill="#9a4cbc"/>
          <path id="Path_99676" data-name="Path 99676" d="M8623.431-1180.712h-22.087a1.715,1.715,0,0,0-1.714,1.714,1.714,1.714,0,0,0,1.714,1.714h22.087Z" fill="#9a4cbc"/>
        </g>
        <rect id="Rectangle_5105" data-name="Rectangle 5105" width="206.541" height="132.541" rx="25.015" transform="translate(8641.263 -1245.268)" fill="#f7f7f7"/>
        <text id="Principales_acciones_para_cumplir_los_objetivos." data-name="Principales
acciones para cumplir
los objetivos." transform="translate(8744.533 -1193.522)" fill="#23147b" font-size="16" font-family="Roboto-Medium, Roboto" font-weight="500"><tspan x="-39.945" y="0">Principales</tspan><tspan x="-79.008" y="19.2">acciones para cumplir</tspan><tspan x="-47.594" y="38.4">los objetivos.</tspan></text>
        <rect id="Rectangle_5106" data-name="Rectangle 5106" width="173.541" height="132.541" rx="25.015" transform="translate(8409.003 -1245.268)" fill="#f7f7f7"/>
        <text id="Seleccionar_las_osibles_alternativas_de_mejora." data-name="Seleccionar las 
osibles alternativas
de mejora." transform="translate(8495.773 -1193.522)" fill="#23147b" font-size="16" font-family="Roboto-Medium, Roboto" font-weight="500"><tspan x="-56.504" y="0">Seleccionar las </tspan><tspan x="-69.66" y="19.2">osibles alternativas</tspan><tspan x="-37.871" y="38.4">de mejora.</tspan></text>
        <g id="Group_53642" data-name="Group 53642">
          <path id="Path_99677" data-name="Path 99677" d="M8396.857-1205.482a1.714,1.714,0,0,0,1.714-1.714v-12.788a34.768,34.768,0,0,1,34.729-34.729h123.512a34.769,34.769,0,0,1,34.729,34.729v33.173a8.013,8.013,0,0,0-6.285,7.813,8.012,8.012,0,0,0,6.285,7.813v33.713a34.644,34.644,0,0,1-24.127,33.075l-.007,0a34.609,34.609,0,0,1-10.595,1.652H8433.3a34.6,34.6,0,0,1-10.721-1.693,1.724,1.724,0,0,0-.531-.085,1.717,1.717,0,0,0-1.63,1.185,1.714,1.714,0,0,0,1.1,2.16,38.029,38.029,0,0,0,11.782,1.861h123.512a38.036,38.036,0,0,0,11.635-1.813l.007,0a38.045,38.045,0,0,0,19.019-13.651,37.816,37.816,0,0,0,7.5-22.691v-33.713a8.011,8.011,0,0,0,6.287-7.813,8.012,8.012,0,0,0-6.287-7.813v-33.173a38.2,38.2,0,0,0-38.157-38.157H8433.3a38.2,38.2,0,0,0-38.157,38.157v12.788A1.714,1.714,0,0,0,8396.857-1205.482ZM8597.826-1179a4.576,4.576,0,0,1-4.571,4.572,4.577,4.577,0,0,1-4.571-4.572,4.576,4.576,0,0,1,4.571-4.571A4.575,4.575,0,0,1,8597.826-1179Z" fill="#42e0e6"/>
          <path id="Path_99678" data-name="Path 99678" d="M8396.857-1193.98a2.057,2.057,0,0,0,2.057-2.057v-.229a2.057,2.057,0,0,0-2.057-2.057,2.057,2.057,0,0,0-2.058,2.057v.229A2.057,2.057,0,0,0,8396.857-1193.98Z" fill="#42e0e6"/>
          <path id="Path_99679" data-name="Path 99679" d="M8396.857-1158.234a2.057,2.057,0,0,0,2.057-2.057v-.229a2.057,2.057,0,0,0-2.057-2.057,2.057,2.057,0,0,0-2.058,2.057v.229A2.057,2.057,0,0,0,8396.857-1158.234Z" fill="#42e0e6"/>
          <path id="Path_99680" data-name="Path 99680" d="M8407.261-1115.039a2.052,2.052,0,0,0-1.557-.711,2.047,2.047,0,0,0-1.345.5,2.058,2.058,0,0,0-.211,2.9l.155.179a2.057,2.057,0,0,0,2.9.2,2.058,2.058,0,0,0,.2-2.9Z" fill="#42e0e6"/>
          <path id="Path_99681" data-name="Path 99681" d="M8394.8-1144.634a2.057,2.057,0,0,0,2.058,2.057,2.057,2.057,0,0,0,2.057-2.057v-.229a2.057,2.057,0,0,0-2.057-2.057,2.057,2.057,0,0,0-2.058,2.057Z" fill="#42e0e6"/>
          <path id="Path_99682" data-name="Path 99682" d="M8399.416-1129.593a2.058,2.058,0,0,0-2.023-1.7,2.082,2.082,0,0,0-.357.032,2.056,2.056,0,0,0-1.671,2.381l.041.232a2.055,2.055,0,0,0,2.386,1.663,2.057,2.057,0,0,0,1.664-2.387Z" fill="#42e0e6"/>
          <circle id="Ellipse_3982" data-name="Ellipse 3982" cx="2.857" cy="2.857" r="2.857" transform="translate(8590.397 -1181.855)" fill="#42e0e6"/>
          <circle id="Ellipse_3983" data-name="Ellipse 3983" cx="2.857" cy="2.857" r="2.857" transform="translate(8394 -1181.855)" fill="#42e0e6"/>
        </g>
      </g>
      <g id="Group_53645" data-name="Group 53645">
        <rect id="Rectangle_5107" data-name="Rectangle 5107" width="183.819" height="153.819" rx="28.504" transform="translate(8968.922 -1231.074)" fill="url(#radial-gradient)"/>
        <rect id="Rectangle_5108" data-name="Rectangle 5108" width="173.541" height="132.541" rx="25.015" transform="translate(8939.572 -1245.268)" fill="#f7f7f7"/>
        <text id="Prioridad_y_viabilidad._" data-name="Prioridad y
viabilidad. " transform="translate(9026.343 -1183.922)" fill="#23147b" font-size="16" font-family="Roboto-Medium, Roboto" font-weight="500"><tspan x="-38.625" y="0">Prioridad y</tspan><tspan x="-38.547" y="19.2">viabilidad. </tspan></text>
        <g id="Group_53644" data-name="Group 53644">
          <path id="Path_99683" data-name="Path 99683" d="M8927.426-1205.482a1.714,1.714,0,0,0,1.715-1.714v-12.788a34.768,34.768,0,0,1,34.729-34.729h123.512a34.769,34.769,0,0,1,34.729,34.729v33.173a8.013,8.013,0,0,0-6.285,7.813,8.012,8.012,0,0,0,6.285,7.813v33.713a34.643,34.643,0,0,1-24.127,33.075l-.008,0a34.6,34.6,0,0,1-10.594,1.652H8963.869a34.6,34.6,0,0,1-10.721-1.693,1.729,1.729,0,0,0-.531-.085,1.713,1.713,0,0,0-1.629,1.185,1.713,1.713,0,0,0,1.1,2.16,38.02,38.02,0,0,0,11.782,1.861h123.512a38.04,38.04,0,0,0,11.635-1.813l.007,0a38.041,38.041,0,0,0,19.019-13.651,37.817,37.817,0,0,0,7.5-22.691v-33.713a8.012,8.012,0,0,0,6.286-7.813,8.012,8.012,0,0,0-6.286-7.813v-33.173a38.2,38.2,0,0,0-38.158-38.157H8963.869a38.2,38.2,0,0,0-38.157,38.157v12.788A1.714,1.714,0,0,0,8927.426-1205.482ZM9128.4-1179a4.578,4.578,0,0,1-4.572,4.572,4.577,4.577,0,0,1-4.571-4.572,4.576,4.576,0,0,1,4.571-4.571A4.577,4.577,0,0,1,9128.4-1179Z" fill="#42e0e6"/>
          <path id="Path_99684" data-name="Path 99684" d="M8927.426-1193.98a2.058,2.058,0,0,0,2.058-2.057v-.229a2.058,2.058,0,0,0-2.058-2.057,2.057,2.057,0,0,0-2.057,2.057v.229A2.057,2.057,0,0,0,8927.426-1193.98Z" fill="#42e0e6"/>
          <path id="Path_99685" data-name="Path 99685" d="M8927.426-1158.234a2.058,2.058,0,0,0,2.058-2.057v-.229a2.058,2.058,0,0,0-2.058-2.057,2.057,2.057,0,0,0-2.057,2.057v.229A2.057,2.057,0,0,0,8927.426-1158.234Z" fill="#42e0e6"/>
          <path id="Path_99686" data-name="Path 99686" d="M8937.83-1115.039a2.054,2.054,0,0,0-1.557-.711,2.051,2.051,0,0,0-1.345.5,2.058,2.058,0,0,0-.211,2.9l.155.179a2.057,2.057,0,0,0,2.9.2,2.057,2.057,0,0,0,.2-2.9Z" fill="#42e0e6"/>
          <path id="Path_99687" data-name="Path 99687" d="M8925.369-1144.634a2.057,2.057,0,0,0,2.057,2.057,2.058,2.058,0,0,0,2.058-2.057v-.229a2.058,2.058,0,0,0-2.058-2.057,2.057,2.057,0,0,0-2.057,2.057Z" fill="#42e0e6"/>
          <path id="Path_99688" data-name="Path 99688" d="M8929.986-1129.593a2.06,2.06,0,0,0-2.024-1.7,2.085,2.085,0,0,0-.358.032,2.058,2.058,0,0,0-1.671,2.381l.041.232a2.058,2.058,0,0,0,2.388,1.663,2.058,2.058,0,0,0,1.663-2.387Z" fill="#42e0e6"/>
          <circle id="Ellipse_3984" data-name="Ellipse 3984" cx="2.857" cy="2.857" r="2.857" transform="translate(9120.967 -1181.855)" fill="#42e0e6"/>
          <circle id="Ellipse_3985" data-name="Ellipse 3985" cx="2.857" cy="2.857" r="2.857" transform="translate(8924.569 -1181.855)" fill="#42e0e6"/>
        </g>
      </g>
    </g>
  </g>
</svg>
