<svg xmlns="http://www.w3.org/2000/svg" width="133" height="133" viewBox="0 0 133 133">
  <g id="t1-i13" transform="translate(-6471.714 78.071)">
    <g id="Elipse_21" data-name="Elipse 21" transform="translate(6471.714 -78.071)">
      <circle id="Ellipse_4003" data-name="Ellipse 4003" cx="66.5" cy="66.5" r="66.5" fill="#d2e1f1"/>
      <circle id="Ellipse_4004" data-name="Ellipse 4004" cx="64.954" cy="64.954" r="64.954" transform="translate(1.547 1.547)" fill="none" stroke="#9a4cbc" stroke-width="2"/>
    </g>
    <g id="obediente" transform="translate(6493.366 -44.049)">
      <path id="Trazado_98757" data-name="Trazado 98757" d="M6573.606-48.735h-3.955V2.745h-76.5v-51.48H6489.2a.866.866,0,0,0-.866.866V7.249a.866.866,0,0,0,.866.866h84.41a.866.866,0,0,0,.865-.866V-47.869A.866.866,0,0,0,6573.606-48.735Z" transform="translate(-6487.031 55.235)" fill="#f3f9ff"/>
      <path id="Trazado_98758" data-name="Trazado 98758" d="M6495.35,7.249V2.744h-2.2V-48.735H6489.2a.866.866,0,0,0-.866.866V7.249a.866.866,0,0,0,.866.866h7.021a.866.866,0,0,1-.867-.865Z" transform="translate(-6487.031 55.235)" fill="#f3f9ff"/>
      <g id="Grupo_53400" data-name="Grupo 53400">
        <g id="Grupo_53398" data-name="Grupo 53398" transform="translate(5.947 1.301)">
          <g id="Grupo_53387" data-name="Grupo 53387">
            <path id="Trazado_98759" data-name="Trazado 98759" d="M6491.694-52.5h38.423V4.353h-38.423Z" transform="translate(-6491.694 52.499)" fill="#dff6fd"/>
          </g>
          <g id="Grupo_53388" data-name="Grupo 53388">
            <path id="Trazado_98760" data-name="Trazado 98760" d="M6491.694-52.5h4.452V4.353h-4.452Z" transform="translate(-6491.694 52.499)" fill="#c8effe"/>
          </g>
          <g id="Grupo_53389" data-name="Grupo 53389" transform="translate(38.423)">
            <path id="Trazado_98761" data-name="Trazado 98761" d="M6519.512-52.5h38.424V4.353h-38.424Z" transform="translate(-6519.512 52.499)" fill="#dff6fd"/>
          </g>
          <g id="Grupo_53390" data-name="Grupo 53390" transform="translate(38.423)">
            <path id="Trazado_98762" data-name="Trazado 98762" d="M6519.512-52.5h5.947V4.353h-5.947Z" transform="translate(-6519.512 52.499)" fill="#c8effe"/>
          </g>
          <g id="Grupo_53393" data-name="Grupo 53393" transform="translate(7.573 7.451)">
            <g id="Grupo_53391" data-name="Grupo 53391" transform="translate(0.006 0.003)">
              <circle id="Elipse_22" data-name="Elipse 22" cx="10.758" cy="10.758" r="10.758" fill="#f5deff"/>
            </g>
            <g id="Grupo_53392" data-name="Grupo 53392">
              <path id="Trazado_98763" data-name="Trazado 98763" d="M6503.069-36.345a10.757,10.757,0,0,1,7.813-10.346,10.756,10.756,0,0,0-13.292,7.4,10.758,10.758,0,0,0,7.4,13.292,10.755,10.755,0,0,0,5.892,0A10.76,10.76,0,0,1,6503.069-36.345Z" transform="translate(-6497.177 47.105)" fill="#d3a7e6"/>
            </g>
          </g>
          <g id="Grupo_53397" data-name="Grupo 53397" transform="translate(47.752 6.76)">
            <g id="Grupo_53395" data-name="Grupo 53395" transform="translate(0.003)">
              <g id="Grupo_53394" data-name="Grupo 53394">
                <circle id="Elipse_23" data-name="Elipse 23" cx="10.758" cy="10.758" r="10.758" fill="#f5deff"/>
              </g>
            </g>
            <g id="Grupo_53396" data-name="Grupo 53396" transform="translate(0 0.001)">
              <path id="Trazado_98764" data-name="Trazado 98764" d="M6532.016-36.848a10.758,10.758,0,0,1,7.887-10.361,10.758,10.758,0,0,0-13.243,7.488,10.757,10.757,0,0,0,7.488,13.243,10.767,10.767,0,0,0,5.755,0A10.76,10.76,0,0,1,6532.016-36.848Z" transform="translate(-6526.265 47.604)" fill="#d3a7e6"/>
            </g>
          </g>
        </g>
        <g id="Grupo_53399" data-name="Grupo 53399">
          <path id="Trazado_98765" data-name="Trazado 98765" d="M6573.964-48.24h-2.473v-3.9a1.3,1.3,0,0,0-1.3-1.3H6507.32a1.3,1.3,0,0,0-1.254,1.344,1.3,1.3,0,0,0,1.254,1.256h23.14v6.76h-2.166a1.3,1.3,0,0,0-1.253,1.344,1.3,1.3,0,0,0,1.253,1.256h2.166v9.416h-2.166a1.3,1.3,0,0,0-1.253,1.344,1.3,1.3,0,0,0,1.253,1.256h2.166v9.416h-2.166a1.3,1.3,0,0,0-1.344,1.256,1.3,1.3,0,0,0,1.254,1.344c.031,0,.062,0,.09,0h2.166v9.419h-2.166a1.3,1.3,0,0,0-1.253,1.344,1.3,1.3,0,0,0,1.253,1.256h2.166V3.409h-35.825V-50.84h6.619A1.3,1.3,0,0,0,6502.6-52.1a1.3,1.3,0,0,0-1.256-1.344c-.03,0-.059,0-.09,0h-7.918a1.3,1.3,0,0,0-1.3,1.3h0v3.9h-2.482a2.164,2.164,0,0,0-2.164,2.165h0V9.04a2.164,2.164,0,0,0,2.164,2.165h84.411a2.165,2.165,0,0,0,2.166-2.165h0V-46.075a2.166,2.166,0,0,0-2.164-2.166Zm-.432,56.852h-83.544V-45.641h2.047V4.709a1.3,1.3,0,0,0,1.3,1.3h48.131a1.3,1.3,0,1,0,.089-2.6h-8.5V-5.43h2.165a1.3,1.3,0,0,0,1.255-1.345,1.3,1.3,0,0,0-1.255-1.254h-2.165v-9.418h2.165a1.3,1.3,0,0,0,1.255-1.344,1.3,1.3,0,0,0-1.255-1.256h-2.165v-9.422h2.165a1.3,1.3,0,0,0,1.346-1.256,1.3,1.3,0,0,0-1.256-1.344c-.029,0-.06,0-.09,0h-2.165v-9.419h2.165a1.3,1.3,0,0,0,1.255-1.344,1.3,1.3,0,0,0-1.255-1.256h-2.165V-50.84h35.83V3.411h-21.357a1.3,1.3,0,0,0-.09,2.6h22.741a1.3,1.3,0,0,0,1.3-1.3h0V-45.641h2.045Z" transform="translate(-6487.389 53.441)" fill="#23147b"/>
          <path id="Trazado_98766" data-name="Trazado 98766" d="M6508.3-48.045a12.064,12.064,0,0,0-12.063,12.063A12.064,12.064,0,0,0,6508.3-23.919a12.063,12.063,0,0,0,12.063-12.063A12.071,12.071,0,0,0,6508.3-48.045Zm0,21.514a9.457,9.457,0,0,1-9.458-9.456,9.457,9.457,0,0,1,9.458-9.458,9.456,9.456,0,0,1,9.456,9.458h0A9.467,9.467,0,0,1,6508.3-26.531Z" transform="translate(-6484.015 55.498)" fill="#23147b"/>
          <path id="Trazado_98767" data-name="Trazado 98767" d="M6510.47-41.606l-4.562,4.562-2.618-2.618a1.3,1.3,0,0,0-1.838-.044,1.3,1.3,0,0,0-.045,1.839l.045.044,3.537,3.538a1.3,1.3,0,0,0,1.839,0l5.482-5.482a1.3,1.3,0,0,0,0-1.84,1.3,1.3,0,0,0-1.839,0Z" transform="translate(-6482.179 57.808)" fill="#23147b"/>
          <path id="Trazado_98767-2" data-name="Trazado 98767" d="M6539.617-41.606l-4.563,4.562-2.617-2.618a1.3,1.3,0,0,0-1.839-.044,1.3,1.3,0,0,0-.043,1.839l.043.044,3.538,3.538a1.3,1.3,0,0,0,1.838,0l5.482-5.482a1.3,1.3,0,0,0,0-1.84,1.3,1.3,0,0,0-1.838,0Z" transform="translate(-6471.067 57.808)" fill="#23147b"/>
          <path id="Trazado_98768" data-name="Trazado 98768" d="M6537.387-24.427a12.018,12.018,0,0,0,11.481-8.379,1.3,1.3,0,0,0-.767-1.673,1.3,1.3,0,0,0-1.671.765.935.935,0,0,0-.037.113,9.458,9.458,0,0,1-11.894,6.122,9.457,9.457,0,0,1-6.122-11.892,9.46,9.46,0,0,1,11.894-6.123,9.459,9.459,0,0,1,6.25,6.56,1.3,1.3,0,0,0,1.622.865,1.3,1.3,0,0,0,.889-1.536,12.061,12.061,0,0,0-14.767-8.539,12.063,12.063,0,0,0-8.54,14.769,12.065,12.065,0,0,0,11.662,8.948Z" transform="translate(-6472.927 55.303)" fill="#23147b"/>
          <path id="Trazado_98770" data-name="Trazado 98770" d="M6515.6-28.094h-16.12a1.3,1.3,0,0,0-1.254,1.345,1.3,1.3,0,0,0,1.254,1.256h16.12a1.3,1.3,0,0,0,1.256-1.345A1.3,1.3,0,0,0,6515.6-28.094Z" transform="translate(-6483.256 63.106)" fill="#23147b"/>
          <path id="Trazado_98771" data-name="Trazado 98771" d="M6515.6-24.706h-16.12a1.3,1.3,0,0,0-1.254,1.345,1.3,1.3,0,0,0,1.254,1.254h16.12a1.3,1.3,0,0,0,1.256-1.344A1.3,1.3,0,0,0,6515.6-24.706Z" transform="translate(-6483.256 64.397)" fill="#23147b"/>
          <path id="Trazado_98772" data-name="Trazado 98772" d="M6515.6-21.318h-16.12a1.3,1.3,0,0,0-1.254,1.345,1.3,1.3,0,0,0,1.254,1.254h16.12a1.3,1.3,0,0,0,1.256-1.344A1.3,1.3,0,0,0,6515.6-21.318Z" transform="translate(-6483.256 65.689)" fill="#23147b"/>
          <path id="Trazado_98773" data-name="Trazado 98773" d="M6515.625-17.93H6499.5a1.3,1.3,0,0,0-1.344,1.256,1.3,1.3,0,0,0,1.256,1.344q.044,0,.088,0h16.12a1.3,1.3,0,0,0,1.345-1.254,1.3,1.3,0,0,0-1.255-1.345C6515.684-17.931,6515.655-17.931,6515.625-17.93Z" transform="translate(-6483.281 66.981)" fill="#23147b"/>
          <path id="Trazado_98774" data-name="Trazado 98774" d="M6544.709-28.094H6528.59a1.3,1.3,0,0,0-1.345,1.256,1.3,1.3,0,0,0,1.255,1.345h16.209a1.3,1.3,0,0,0,1.256-1.345A1.3,1.3,0,0,0,6544.709-28.094Z" transform="translate(-6472.19 63.105)" fill="#23147b"/>
          <path id="Trazado_98775" data-name="Trazado 98775" d="M6544.709-24.706H6528.59a1.3,1.3,0,0,0-1.345,1.256,1.3,1.3,0,0,0,1.255,1.344c.029,0,.061,0,.09,0h16.119a1.3,1.3,0,0,0,1.256-1.344A1.3,1.3,0,0,0,6544.709-24.706Z" transform="translate(-6472.19 64.397)" fill="#23147b"/>
          <path id="Trazado_98776" data-name="Trazado 98776" d="M6544.709-21.318H6528.59a1.3,1.3,0,0,0-1.345,1.256,1.3,1.3,0,0,0,1.255,1.344c.029,0,.061,0,.09,0h16.119a1.3,1.3,0,0,0,1.256-1.344A1.3,1.3,0,0,0,6544.709-21.318Z" transform="translate(-6472.19 65.689)" fill="#23147b"/>
          <path id="Trazado_98777" data-name="Trazado 98777" d="M6546.011-16.629a1.3,1.3,0,0,0-1.3-1.3H6528.59a1.3,1.3,0,0,0-1.345,1.256,1.3,1.3,0,0,0,1.255,1.344c.029,0,.061,0,.09,0h16.119A1.3,1.3,0,0,0,6546.011-16.629Z" transform="translate(-6472.19 66.981)" fill="#23147b"/>
        </g>
      </g>
    </g>
  </g>
</svg>
