<svg xmlns="http://www.w3.org/2000/svg" width="133" height="133" viewBox="0 0 133 133">
  <g id="t1-i12" transform="translate(-145 -561)">
    <g id="Ellipse_14" data-name="Ellipse 14" transform="translate(145 561)" fill="#d2e1f1" stroke="#9a4cbc" stroke-width="2">
      <circle cx="66.5" cy="66.5" r="66.5" stroke="none"/>
      <circle cx="66.5" cy="66.5" r="65.5" fill="none"/>
    </g>
    <g id="cumplimiento" transform="translate(179.023 587.321)">
      <path id="Path_98722" data-name="Path 98722" d="M43.386,14.718A.314.314,0,0,1,43.7,14.4H90.347V7.971a.471.471,0,0,0-.471-.471H36.953a.471.471,0,0,0-.471.471V78.285a.471.471,0,0,0,.471.471h6.433Z" transform="translate(-35.305 -6.323)" fill="#d3a7e6"/>
      <path id="Path_98723" data-name="Path 98723" d="M43.386,14.718A.314.314,0,0,1,43.7,14.4h.711V7.971a.471.471,0,0,1,.471-.471H36.953a.471.471,0,0,0-.471.471V78.285a.471.471,0,0,0,.471.471h6.433Z" transform="translate(-35.305 -6.323)" fill="#f5deff"/>
      <path id="Path_98724" data-name="Path 98724" d="M121.076,113.509a.628.628,0,0,1-.628-.628V97.119a.628.628,0,0,1,.628-.628h12.261V91.425H121.076a.628.628,0,0,1-.628-.628V75.035a.628.628,0,0,1,.628-.628h12.261V50.96a.471.471,0,0,0-.471-.471H79.942a.471.471,0,0,0-.471.471v70.314a.471.471,0,0,0,.471.471h52.924a.471.471,0,0,0,.471-.471v-7.765Z" transform="translate(-71.547 -42.565)" fill="#f3f9ff"/>
      <g id="Group_53366" data-name="Group 53366" transform="translate(7.924 7.924)">
        <path id="Path_98725" data-name="Path 98725" d="M86.113,121.274V50.96a.471.471,0,0,1,.471-.471H79.942a.471.471,0,0,0-.471.471v70.314a.471.471,0,0,0,.471.471h6.642A.471.471,0,0,1,86.113,121.274Z" transform="translate(-79.471 -50.489)" fill="#d2e1f1"/>
      </g>
      <g id="Group_53369" data-name="Group 53369" transform="translate(48.744 53.77)">
        <g id="Group_53367" data-name="Group 53367" transform="translate(0)">
          <path id="Path_98726" data-name="Path 98726" d="M356.105,359.928H340.343a.785.785,0,0,1-.785-.785V343.381a.785.785,0,0,1,.785-.785h15.762a.785.785,0,0,1,.785.785v15.762A.785.785,0,0,1,356.105,359.928Z" transform="translate(-339.558 -342.596)" fill="#ffea99"/>
        </g>
        <g id="Group_53368" data-name="Group 53368">
          <path id="Path_98727" data-name="Path 98727" d="M344.807,359.143V343.381a.785.785,0,0,1,.785-.785h-5.249a.785.785,0,0,0-.785.785v15.762a.785.785,0,0,0,.785.785h5.249A.785.785,0,0,1,344.807,359.143Z" transform="translate(-339.558 -342.596)" fill="#f5de86"/>
        </g>
      </g>
      <g id="Group_53373" data-name="Group 53373" transform="translate(0 0)">
        <g id="Group_53370" data-name="Group 53370" transform="translate(48.744 31.686)">
          <path id="Path_98728" data-name="Path 98728" d="M356.105,219.218H340.343a.785.785,0,0,1-.785-.785V202.671a.785.785,0,0,1,.785-.785h15.762a.785.785,0,0,1,.785.785v15.762A.785.785,0,0,1,356.105,219.218Z" transform="translate(-339.558 -201.886)" fill="#d3a7e6"/>
        </g>
        <g id="Group_53371" data-name="Group 53371" transform="translate(48.744 31.686)">
          <path id="Path_98729" data-name="Path 98729" d="M344.807,218.433V202.671a.785.785,0,0,1,.785-.785h-5.249a.785.785,0,0,0-.785.785v15.762a.785.785,0,0,0,.785.785h5.249A.785.785,0,0,1,344.807,218.433Z" transform="translate(-339.558 -201.886)" fill="#f5deff"/>
        </g>
        <g id="Group_53372" data-name="Group 53372" transform="translate(0 0)">
          <path id="Path_98730" data-name="Path 98730" d="M147.071,167.648h30.661a1.177,1.177,0,1,0,0-2.354H147.071a1.177,1.177,0,1,0,0,2.354Z" transform="translate(-127.545 -139.352)" fill="#23147b"/>
          <path id="Path_98731" data-name="Path 98731" d="M147.072,211.773H158a1.177,1.177,0,1,0,0-2.354H147.072a1.177,1.177,0,0,0,0,2.354Z" transform="translate(-127.546 -176.551)" fill="#23147b"/>
          <path id="Path_98732" data-name="Path 98732" d="M147.071,344.15h17.516a1.177,1.177,0,1,0,0-2.354H147.071a1.177,1.177,0,1,0,0,2.354Z" transform="translate(-127.545 -288.152)" fill="#23147b"/>
          <path id="Path_98733" data-name="Path 98733" d="M184.7,110.651h18.849a1.177,1.177,0,0,0,0-2.354H184.7a1.177,1.177,0,0,0,0,2.354Z" transform="translate(-159.27 -91.3)" fill="#23147b"/>
          <path id="Path_98734" data-name="Path 98734" d="M98.232,52.844l-2,2v-.287a1.964,1.964,0,0,0-1.962-1.962H91.948v-2.4h2.325a1.964,1.964,0,0,0,1.962-1.962V46.3a1.177,1.177,0,1,0-2.354,0V47.84H78.9V32.862H93.88v2.249l-6.464,6.464-4.233-4.233a1.177,1.177,0,1,0-1.665,1.665l5.066,5.066a1.177,1.177,0,0,0,1.665,0l5.631-5.631v2.365a1.177,1.177,0,1,0,2.354,0v-4.72L99.9,32.425a1.177,1.177,0,1,0-1.665-1.665l-2,2V32.47a1.964,1.964,0,0,0-1.962-1.962H91.948V8.395A1.65,1.65,0,0,0,90.3,6.747H85.2v-5.1A1.65,1.65,0,0,0,83.553,0H30.629a1.65,1.65,0,0,0-1.648,1.648V71.962a1.65,1.65,0,0,0,1.648,1.648h5.1v5.1a1.65,1.65,0,0,0,1.648,1.648H90.3a1.65,1.65,0,0,0,1.648-1.648V72.279h2.325a1.964,1.964,0,0,0,1.962-1.962V58.171L99.9,54.509a1.177,1.177,0,0,0-1.665-1.665ZM93.88,57.2,87.416,63.66l-4.233-4.233a1.177,1.177,0,1,0-1.665,1.665l5.066,5.066a1.177,1.177,0,0,0,1.665,0l5.631-5.631v9.4H89.095a1.177,1.177,0,1,0,0,2.354h.5V78H38.082V9.1H48.916a1.177,1.177,0,1,0,0-2.354H37.376a1.65,1.65,0,0,0-1.648,1.648V71.256H31.335V2.354H82.847V6.747H54.41a1.177,1.177,0,1,0,0,2.354H89.594V30.508H78.51a1.964,1.964,0,0,0-1.962,1.962v.4H63.826a1.177,1.177,0,1,0,0,2.354H76.548v4.571H48.507a1.177,1.177,0,0,0,0,2.354H76.548v4.571H48.507a1.177,1.177,0,1,0,0,2.354H76.74a1.962,1.962,0,0,0,1.77,1.122H89.594v2.4H78.51a1.963,1.963,0,0,0-1.736,1.052H70.418a1.177,1.177,0,1,0,0,2.354h6.13v4.571H48.507a1.177,1.177,0,1,0,0,2.354H76.548v4.571H48.507a1.177,1.177,0,1,0,0,2.354H76.548v.468a1.964,1.964,0,0,0,1.962,1.962H83.6a1.177,1.177,0,1,0,0-2.354H78.9V54.946H93.88V57.2Z" transform="translate(-28.981 0)" fill="#23147b"/>
        </g>
      </g>
    </g>
  </g>
</svg>
