<svg xmlns="http://www.w3.org/2000/svg" width="156.428" height="157.471" viewBox="0 0 156.428 157.471">
  <g id="t1-i6" transform="translate(-6267.893 278.536)">
    <path id="Path_99188" data-name="Path 99188" d="M6332.262-261.017A61.146,61.146,0,0,0,6312.909-253h0l-13.292-8.993-15.182,15.183,8.992,13.292h0a61.113,61.113,0,0,0-8.014,19.352h0l-15.769,3V-189.6l15.769,3.193h.065a61.432,61.432,0,0,0,7.949,19.157h0l-8.992,13.292.912.912L6304.895-178l14.986,19.157,5.931-9.383.585-.978h0a36.889,36.889,0,0,1-17.2-31.147,36.847,36.847,0,0,1,36.881-36.88,36.839,36.839,0,0,1,36.1,29.583h0l6.972-6.907,18.7,20.917,5.213,5.8,9.383-1.759v-21.568l-15.638-3.454-.261-.065a60.15,60.15,0,0,0-7.884-18.831h0l9.058-13.292-15.248-15.183L6379.177-253h0a61.129,61.129,0,0,0-19.353-8.015h0l-3-15.769h-21.569l-3,15.769Z" transform="translate(0.064 0.064)" fill="#d5d5d5" fill-rule="evenodd"/>
    <path id="Path_99189" data-name="Path 99189" d="M6375.807-184.3v58.709h19.418V-184.3l6.907,1.043L6385.516-204.5l-16.681,21.242Z" transform="translate(3.695 2.71)" fill="#bd81d8" fill-rule="evenodd"/>
    <path id="Path_99190" data-name="Path 99190" d="M6335.074-163.806v37.467h19.353v-37.467l6.972,1.043-16.681-21.242L6328.1-162.763Z" transform="translate(2.204 3.46)" fill="#bd81d8" fill-rule="evenodd"/>
    <path id="Path_99191" data-name="Path 99191" d="M6294.53-149.034v22.154h19.353v-22.154l6.972,1.043-16.616-21.242-16.681,21.242Z" transform="translate(0.72 4.001)" fill="#bd81d8" fill-rule="evenodd"/>
    <path id="Path_99192" data-name="Path 99192" d="M6344.757-251.786A49.757,49.757,0,0,0,6295-202.029a49.517,49.517,0,0,0,7.058,25.548l1.908-2.437,14.986,19.157,5.931-9.383.585-.978a36.885,36.885,0,0,1-17.2-31.147,36.847,36.847,0,0,1,36.881-36.88,36.839,36.839,0,0,1,36.1,29.583l6.972-6.907,5.8,6.488A49.759,49.759,0,0,0,6344.757-251.786Z" transform="translate(0.992 0.979)" fill="#b7b7b7" fill-rule="evenodd"/>
    <path id="Path_99193" data-name="Path 99193" d="M6287.864-148.038l.188-.028c.389-.3,9.449-7.228,16.549-7.228,5.93,0,13.239,4.842,15.714,6.614l-16.077-20.553-16.645,21.2Z" transform="translate(0.721 4.001)" fill="#f3d9ff" fill-rule="evenodd"/>
    <path id="Path_99194" data-name="Path 99194" d="M6328.65-162.81l.188-.028c.389-.3,9.45-7.228,16.55-7.228,5.929,0,13.237,4.842,15.713,6.614l-16.078-20.553-16.645,21.2Z" transform="translate(2.214 3.46)" fill="#f3d9ff" fill-rule="evenodd"/>
    <path id="Path_99195" data-name="Path 99195" d="M6369.383-183.3l.188-.028c.389-.3,9.449-7.228,16.548-7.228,5.931,0,13.238,4.842,15.715,6.614L6385.757-204.5l-16.645,21.2Z" transform="translate(3.705 2.71)" fill="#f3d9ff" fill-rule="evenodd"/>
    <g id="Group_53535" data-name="Group 53535" transform="translate(6269.707 -276.722)">
      <path id="Path_99196" data-name="Path 99196" d="M6306.825-257.286l-7.731-5.231-15.182,15.183,5.091,7.525A69.186,69.186,0,0,1,6306.825-257.286Z" transform="translate(-6269.121 277.308)" fill="#fff" fill-rule="evenodd"/>
      <path id="Path_99197" data-name="Path 99197" d="M6398.173-239.274l5.493-8.06-15.248-15.183-8.094,5.475A69.171,69.171,0,0,1,6398.173-239.274Z" transform="translate(-6265.592 277.308)" fill="#fff" fill-rule="evenodd"/>
      <path id="Path_99198" data-name="Path 99198" d="M6343.432-268.49a69.127,69.127,0,0,1,12.958,1.253l-1.815-9.549h-21.569l-1.79,9.415A69.137,69.137,0,0,1,6343.432-268.49Z" transform="translate(-6267.389 276.786)" fill="#fff" fill-rule="evenodd"/>
      <path id="Path_99199" data-name="Path 99199" d="M6276.966-201.939a69.111,69.111,0,0,1,1.265-13.122l-8.588,1.633v21.568l8.328,1.687A69.187,69.187,0,0,1,6276.966-201.939Z" transform="translate(-6269.643 279.045)" fill="#fff" fill-rule="evenodd"/>
      <path id="Path_99200" data-name="Path 99200" d="M6291.191-168.676l-7.279,10.76.912.912,7.754-9.9Z" transform="translate(-6269.121 280.743)" fill="#fff" fill-rule="evenodd"/>
      <path id="Path_99201" data-name="Path 99201" d="M6408-215.485a69.206,69.206,0,0,1,1.342,13.562,69.038,69.038,0,0,1-1.007,11.774l9.046-1.7v-21.568Z" transform="translate(-6264.579 279.03)" fill="#fff" fill-rule="evenodd"/>
    </g>
    <path id="Path_99202" data-name="Path 99202" d="M6403.625-184.309l-16.616-21.242a1.814,1.814,0,0,0-1.426-.7h0a1.811,1.811,0,0,0-1.426.695l-16.681,21.242a1.814,1.814,0,0,0-.142,2.032,1.81,1.81,0,0,0,1.837.883l4.889-.732v56.6a1.814,1.814,0,0,0,1.814,1.814h19.417a1.815,1.815,0,0,0,1.814-1.814v-27.637a1.815,1.815,0,0,0-1.814-1.814h0a1.814,1.814,0,0,0-1.814,1.814v25.823h-15.79v-56.895a1.815,1.815,0,0,0-.63-1.375,1.821,1.821,0,0,0-1.453-.42l-2.458.368,12.432-15.833,12.381,15.827-2.4-.362a1.828,1.828,0,0,0-1.455.419,1.82,1.82,0,0,0-.63,1.376V-171.3a1.813,1.813,0,0,0,1.814,1.814h0a1.814,1.814,0,0,0,1.814-1.814v-10.823l4.822.728a1.809,1.809,0,0,0,1.838-.879A1.815,1.815,0,0,0,6403.625-184.309Z" transform="translate(3.631 2.646)" fill="#171a43"/>
    <circle id="Ellipse_3951" data-name="Ellipse 3951" cx="2.073" cy="2.073" r="2.073" transform="translate(6396.542 -161.659)" fill="#171a43"/>
    <circle id="Ellipse_3952" data-name="Ellipse 3952" cx="2.073" cy="2.073" r="2.073" transform="translate(6343.676 -239.404)" fill="#171a43"/>
    <circle id="Ellipse_3953" data-name="Ellipse 3953" cx="2.073" cy="2.073" r="2.073" transform="translate(6335.383 -148.183)" fill="#171a43"/>
    <circle id="Ellipse_3954" data-name="Ellipse 3954" cx="2.073" cy="2.073" r="2.073" transform="translate(6312.578 -135.744)" fill="#171a43"/>
    <path id="Path_99203" data-name="Path 99203" d="M6422.9-212.877l-14.789-3.265a61.933,61.933,0,0,0-7.221-17.269l8.393-12.316a1.812,1.812,0,0,0-.22-2.307l-15.247-15.182a1.814,1.814,0,0,0-2.3-.217L6379.2-255.1a62.844,62.844,0,0,0-17.75-7.351l-2.775-14.61a1.814,1.814,0,0,0-1.782-1.476h-21.57a1.813,1.813,0,0,0-1.781,1.476l-2.778,14.61a62.8,62.8,0,0,0-17.748,7.351l-12.319-8.333a1.813,1.813,0,0,0-2.3.22l-15.182,15.182a1.814,1.814,0,0,0-.22,2.3l8.333,12.32a62.837,62.837,0,0,0-7.351,17.747l-14.61,2.777a1.814,1.814,0,0,0-1.475,1.783v21.568a1.814,1.814,0,0,0,1.453,1.778l14.7,2.977a63.068,63.068,0,0,0,7.285,17.55L6283-154.911a1.813,1.813,0,0,0,.22,2.3l.913.912a1.812,1.812,0,0,0,1.282.532c.037,0,.073,0,.109,0a1.815,1.815,0,0,0,1.32-.691L6304.957-175l13.56,17.332a1.777,1.777,0,0,0,1.52.693,1.812,1.812,0,0,0,1.443-.842l5.95-9.419.587-.978a1.8,1.8,0,0,0-.562-2.452,34.9,34.9,0,0,1-16.382-29.629,35.121,35.121,0,0,1,26.039-33.878,1.83,1.83,0,0,0,1.381-1.76h0a1.824,1.824,0,0,0-2.292-1.759,38.761,38.761,0,0,0-28.755,37.4A38.482,38.482,0,0,0,6324-168.6l-4.215,6.672-13.4-17.129a1.811,1.811,0,0,0-1.427-.7h0a1.815,1.815,0,0,0-1.428.7l-8.52,10.877a59.518,59.518,0,0,1-7.7-18.564,1.876,1.876,0,0,0-1.521-1.387l-14.268-2.889V-209.6l14.294-2.717a1.822,1.822,0,0,0,1.434-1.4,59.222,59.222,0,0,1,7.774-18.759,1.811,1.811,0,0,0-.03-1.987l-8.153-12.054,13.064-13.064,12.052,8.154a1.825,1.825,0,0,0,2,.02,59.23,59.23,0,0,1,18.745-7.763,1.828,1.828,0,0,0,1.4-1.436l2.717-14.294h18.564l2.717,14.294a1.828,1.828,0,0,0,1.4,1.436,59.216,59.216,0,0,1,18.745,7.763,1.825,1.825,0,0,0,2-.02l12.056-8.155,13.122,13.065-8.21,12.048a1.822,1.822,0,0,0-.021,2.011,58.4,58.4,0,0,1,7.636,18.249,1.812,1.812,0,0,0,1.327,1.352l14.525,3.216v18.606l-6.9,1.294-23.23-25.953a1.807,1.807,0,0,0-1.3-.6,1.85,1.85,0,0,0-1.332.525l-4.7,4.654a38.817,38.817,0,0,0-27.986-26.753,1.818,1.818,0,0,0-2.244,1.766h0a1.827,1.827,0,0,0,1.416,1.766,35.135,35.135,0,0,1,26.038,27.119,1.815,1.815,0,0,0,1.249,1.378,1.816,1.816,0,0,0,1.807-.447l5.615-5.562,17.431,19.5,5.212,5.8a1.815,1.815,0,0,0,1.684.57l9.384-1.759a1.814,1.814,0,0,0,1.48-1.783v-21.568A1.814,1.814,0,0,0,6422.9-212.877Z" fill="#171a43"/>
    <path id="Path_99204" data-name="Path 99204" d="M6362.889-163.819l-16.681-21.242a1.811,1.811,0,0,0-1.426-.693h0a1.813,1.813,0,0,0-1.426.7l-16.615,21.243a1.812,1.812,0,0,0-.139,2.031,1.809,1.809,0,0,0,1.834.881l4.891-.732v3.06a1.814,1.814,0,0,0,1.814,1.814h0a1.813,1.813,0,0,0,1.814-1.814v-5.165a1.819,1.819,0,0,0-.629-1.375,1.818,1.818,0,0,0-1.454-.42l-2.47.37L6344.785-181l12.432,15.833-2.458-.368a1.82,1.82,0,0,0-1.453.42,1.819,1.819,0,0,0-.629,1.375v35.653h-15.724v-12.347a1.814,1.814,0,0,0-1.814-1.814h0a1.815,1.815,0,0,0-1.814,1.814v14.161a1.815,1.815,0,0,0,1.814,1.814h19.353a1.814,1.814,0,0,0,1.814-1.814v-35.362l4.889.732a1.816,1.816,0,0,0,1.836-.882A1.813,1.813,0,0,0,6362.889-163.819Z" transform="translate(2.14 3.396)" fill="#171a43"/>
    <path id="Path_99205" data-name="Path 99205" d="M6312.132-128.63h-15.725v-20.34a1.814,1.814,0,0,0-.629-1.375,1.826,1.826,0,0,0-1.454-.42l-2.458.368,12.432-15.833,12.386,15.834-2.47-.369a1.823,1.823,0,0,0-1.452.42,1.815,1.815,0,0,0-.63,1.375v2.292a1.814,1.814,0,0,0,1.814,1.814h0a1.814,1.814,0,0,0,1.814-1.814v-.187l4.889.732a1.811,1.811,0,0,0,1.835-.881,1.812,1.812,0,0,0-.138-2.031l-16.617-21.243a1.813,1.813,0,0,0-1.426-.7h0a1.811,1.811,0,0,0-1.426.693l-16.68,21.242a1.812,1.812,0,0,0-.143,2.033,1.814,1.814,0,0,0,1.836.882l4.89-.732v20.049a1.814,1.814,0,0,0,1.814,1.814h19.353a1.814,1.814,0,0,0,1.814-1.814v-1.814a1.722,1.722,0,0,0-1.722-1.722h-.185A1.722,1.722,0,0,0,6312.132-128.63Z" transform="translate(0.656 3.937)" fill="#171a43"/>
  </g>
</svg>
