<svg xmlns="http://www.w3.org/2000/svg" xmlns:xlink="http://www.w3.org/1999/xlink" width="444" height="493" viewBox="0 0 444 493">
  <defs>
    <linearGradient id="linear-gradient" x1="1.021" y1="0.5" x2="0.343" y2="0.5" gradientUnits="objectBoundingBox">
      <stop offset="0" stop-color="#7fe3e6"/>
      <stop offset="1" stop-color="#42e0e6"/>
    </linearGradient>
    <linearGradient id="linear-gradient-2" x1="0.5" y1="1" x2="0.5" y2="0.383" gradientUnits="objectBoundingBox">
      <stop offset="0.001" stop-color="#bc75db"/>
      <stop offset="1" stop-color="#9a4cbc"/>
    </linearGradient>
    <linearGradient id="linear-gradient-3" x1="-0.001" y1="0.5" x2="0.658" y2="0.5" xlink:href="#linear-gradient"/>
    <linearGradient id="linear-gradient-4" x1="0.496" y1="-0.002" x2="0.502" y2="0.691" xlink:href="#linear-gradient-2"/>
    <linearGradient id="linear-gradient-5" x1="0.17" y1="0.125" x2="1.126" y2="0.863" gradientUnits="objectBoundingBox">
      <stop offset="0.143" stop-color="#42e0e6"/>
      <stop offset="0.372" stop-color="#34b4b8"/>
      <stop offset="0.642" stop-color="#34b4b8"/>
      <stop offset="0.85" stop-color="#42e0e6"/>
    </linearGradient>
    <linearGradient id="linear-gradient-6" x1="0.861" y1="0.158" x2="0.057" y2="1.217" gradientUnits="objectBoundingBox">
      <stop offset="0.162" stop-color="#9a4cbc"/>
      <stop offset="0.4" stop-color="#6f3787"/>
      <stop offset="0.614" stop-color="#6f3787"/>
      <stop offset="0.845" stop-color="#9a4cbc"/>
    </linearGradient>
    <linearGradient id="linear-gradient-7" x1="0.133" y1="0.856" x2="0.939" y2="-0.219" xlink:href="#linear-gradient-6"/>
    <linearGradient id="linear-gradient-8" x1="0.839" y1="0.88" x2="-0.128" y2="0.137" xlink:href="#linear-gradient-5"/>
  </defs>
  <g id="t1-i5" transform="translate(-139 -2108)">
    <rect id="Rectangle_5032" data-name="Rectangle 5032" width="444" height="493" transform="translate(139 2108)" fill="#fff"/>
    <g id="Group_57871" data-name="Group 57871" transform="translate(-6581 2348.286)">
      <g id="Group_57838" data-name="Group 57838" transform="translate(6781.605 -24.301)">
        <g id="Group_57830" data-name="Group 57830" transform="translate(6.472 3.439)">
          <path id="Path_100848" data-name="Path 100848" d="M6806.831,15.472a19.709,19.709,0,0,1-19.687-19.687A19.709,19.709,0,0,1,6806.831-23.9a19.71,19.71,0,0,1,19.687,19.687A19.71,19.71,0,0,1,6806.831,15.472Zm0-38.025A18.36,18.36,0,0,0,6788.49-4.215a18.359,18.359,0,0,0,18.341,18.338,18.359,18.359,0,0,0,18.34-18.338A18.36,18.36,0,0,0,6806.831-22.553Z" transform="translate(-6787.144 23.902)" fill="#23147b"/>
        </g>
        <g id="Group_57831" data-name="Group 57831" transform="translate(13.484 10.451)">
          <path id="Path_100849" data-name="Path 100849" d="M6806.713,8.345a12.69,12.69,0,0,1-12.675-12.676,12.69,12.69,0,0,1,12.675-12.675,12.657,12.657,0,0,1,12.608,12.675A12.657,12.657,0,0,1,6806.713,8.345Zm0-24a11.339,11.339,0,0,0-11.328,11.326A11.34,11.34,0,0,0,6806.713,7a11.307,11.307,0,0,0,11.261-11.327A11.306,11.306,0,0,0,6806.713-15.658Z" transform="translate(-6794.038 17.007)" fill="#23147b"/>
        </g>
        <g id="Group_57832" data-name="Group 57832" transform="translate(18.608 15.576)">
          <path id="Path_100850" data-name="Path 100850" d="M6806.628,3.136a7.56,7.56,0,0,1-7.551-7.553,7.559,7.559,0,0,1,7.551-7.551,7.558,7.558,0,0,1,7.55,7.551A7.559,7.559,0,0,1,6806.628,3.136Zm0-13.754a6.21,6.21,0,0,0-6.2,6.2,6.212,6.212,0,0,0,6.2,6.2,6.211,6.211,0,0,0,6.2-6.2A6.209,6.209,0,0,0,6806.628-10.619Z" transform="translate(-6799.077 11.968)" fill="#23147b"/>
        </g>
        <g id="Group_57833" data-name="Group 57833" transform="translate(23.597 20.633)">
          <path id="Path_100851" data-name="Path 100851" d="M6806.545-2.007A2.488,2.488,0,0,0,6809.04-4.5a2.533,2.533,0,0,0-2.495-2.495,2.547,2.547,0,0,0-2.562,2.495,2.5,2.5,0,0,0,2.562,2.494Z" transform="translate(-6803.983 6.995)" fill="#23147b" fill-rule="evenodd"/>
        </g>
        <g id="Group_57834" data-name="Group 57834" transform="translate(25.486)">
          <path id="Path_100852" data-name="Path 100852" d="M6806.514-18.989a.674.674,0,0,1-.673-.675v-6.945a.674.674,0,0,1,.673-.675.675.675,0,0,1,.673.675v6.945A.675.675,0,0,1,6806.514-18.989Z" transform="translate(-6805.84 27.284)" fill="#23147b"/>
        </g>
        <g id="Group_57835" data-name="Group 57835" transform="translate(25.486 37.96)">
          <path id="Path_100853" data-name="Path 100853" d="M6806.514,18.4a.674.674,0,0,1-.673-.674V10.717a.673.673,0,1,1,1.347,0v7.012A.674.674,0,0,1,6806.514,18.4Z" transform="translate(-6805.84 -10.043)" fill="#23147b"/>
        </g>
        <g id="Group_57836" data-name="Group 57836" transform="translate(40.992 22.452)">
          <path id="Path_100854" data-name="Path 100854" d="M6828.706-3.857h-6.945a.674.674,0,0,1-.673-.675.674.674,0,0,1,.673-.674h6.945a.675.675,0,0,1,.674.674A.675.675,0,0,1,6828.706-3.857Z" transform="translate(-6821.088 5.206)" fill="#23147b"/>
        </g>
        <g id="Group_57837" data-name="Group 57837" transform="translate(0 16.99)">
          <path id="Path_100855" data-name="Path 100855" d="M6800.724-4.451l-4.382,2.7-4.315,2.832v-2.36h-10.585V-7.62h10.585V-9.913l4.315,2.764Z" transform="translate(-6780.768 10.588)" fill="#23147b"/>
          <path id="Path_100856" data-name="Path 100856" d="M6792.038,1.764a.69.69,0,0,1-.32-.081.674.674,0,0,1-.353-.594V-.6h-9.911a.675.675,0,0,1-.674-.674V-7.609a.675.675,0,0,1,.674-.675h9.911V-9.9a.674.674,0,0,1,.351-.591.668.668,0,0,1,.688.023l4.315,2.764,4.372,2.691a.671.671,0,0,1,.32.574.671.671,0,0,1-.32.574l-4.383,2.7-4.3,2.822A.661.661,0,0,1,6792.038,1.764Zm-9.911-3.71h9.911a.675.675,0,0,1,.673.675V-.159l3.273-2.148,3.465-2.134-6.738-4.228v1.061a.674.674,0,0,1-.673.674h-9.911Z" transform="translate(-6780.779 10.577)" fill="#23147b"/>
        </g>
      </g>
      <g id="Group_57847" data-name="Group 57847" transform="translate(7048.526 -19.898)">
        <g id="Group_57839" data-name="Group 57839" transform="translate(10.792 16.572)">
          <path id="Path_100857" data-name="Path 100857" d="M7059.444,4.455a5.588,5.588,0,0,1-5.582-5.581,5.564,5.564,0,0,1,5.582-5.533,5.538,5.538,0,0,1,5.533,5.533A5.563,5.563,0,0,1,7059.444,4.455Zm0-9.765a4.215,4.215,0,0,0-4.235,4.184,4.188,4.188,0,0,0,4.235,4.232,4.214,4.214,0,0,0,4.185-4.232A4.19,4.19,0,0,0,7059.444-5.31Z" transform="translate(-7053.863 6.659)" fill="#23147b"/>
        </g>
        <g id="Group_57840" data-name="Group 57840" transform="translate(0 5.826)">
          <path id="Path_100858" data-name="Path 100858" d="M7054.841,15.379a3.273,3.273,0,0,1-1.716-.488l-4.162-2.554a3.292,3.292,0,0,1-1.561-2.879l.069-2.749a.925.925,0,0,0-.5-.847l-1.923-.976a3.264,3.264,0,0,1-1.793-2.924V-3.808a3.263,3.263,0,0,1,1.791-2.923l1.925-.977a.925.925,0,0,0,.5-.847L7047.4-11.3a3.292,3.292,0,0,1,1.561-2.879l4.162-2.554a3.255,3.255,0,0,1,3.442.008l2.574,1.595a.922.922,0,0,0,.98,0l2.5-1.574a3.3,3.3,0,0,1,3.461-.018l4.153,2.547a3.29,3.29,0,0,1,1.56,2.879l-.069,2.749a.924.924,0,0,0,.5.847l1.923.976a3.265,3.265,0,0,1,1.792,2.924V1.963a3.265,3.265,0,0,1-1.791,2.923l-1.925.977a.924.924,0,0,0-.5.847l.069,2.749a3.29,3.29,0,0,1-1.56,2.879l-4.153,2.547a3.3,3.3,0,0,1-3.461-.018l-2.5-1.576a.916.916,0,0,0-.977,0l-2.574,1.594A3.257,3.257,0,0,1,7054.841,15.379Zm0-31.255a1.922,1.922,0,0,0-1.008.288l-4.162,2.555a1.937,1.937,0,0,0-.92,1.7l.07,2.748a2.278,2.278,0,0,1-1.243,2.085l-1.923.976a1.922,1.922,0,0,0-1.054,1.721V1.963a1.923,1.923,0,0,0,1.057,1.722l1.92.975a2.278,2.278,0,0,1,1.243,2.085l-.07,2.749a1.937,1.937,0,0,0,.92,1.694l4.162,2.555a1.918,1.918,0,0,0,2.025,0l2.574-1.595a2.259,2.259,0,0,1,2.406.006l2.507,1.577a1.944,1.944,0,0,0,2.034.009l4.153-2.548a1.936,1.936,0,0,0,.92-1.7l-.07-2.748a2.277,2.277,0,0,1,1.242-2.085l1.923-.976a1.922,1.922,0,0,0,1.055-1.721V-3.808a1.923,1.923,0,0,0-1.057-1.722l-1.921-.975a2.277,2.277,0,0,1-1.242-2.085l.07-2.749a1.936,1.936,0,0,0-.92-1.694l-4.153-2.548a1.941,1.941,0,0,0-2.037.01l-2.5,1.575a2.275,2.275,0,0,1-2.409.008l-2.574-1.6A1.925,1.925,0,0,0,7054.839-15.876Z" transform="translate(-7043.251 17.225)" fill="#23147b"/>
        </g>
        <g id="Group_57843" data-name="Group 57843" transform="translate(32.55)">
          <g id="Group_57841" data-name="Group 57841" transform="translate(7.69 7.658)">
            <path id="Path_100859" data-name="Path 100859" d="M7086.994-7.115a4.178,4.178,0,0,1-4.173-4.172,4.161,4.161,0,0,1,4.173-4.138,4.143,4.143,0,0,1,4.136,4.138A4.16,4.16,0,0,1,7086.994-7.115Zm0-6.96a2.811,2.811,0,0,0-2.825,2.788,2.793,2.793,0,0,0,2.825,2.822,2.81,2.81,0,0,0,2.79-2.822A2.792,2.792,0,0,0,7086.994-14.075Z" transform="translate(-7082.821 15.424)" fill="#23147b"/>
          </g>
          <g id="Group_57842" data-name="Group 57842">
            <path id="Path_100860" data-name="Path 100860" d="M7083.712.672A2.542,2.542,0,0,1,7082.388.3l-2.966-1.821a2.535,2.535,0,0,1-1.205-2.221l.05-1.961a.465.465,0,0,0-.253-.425l-1.371-.7a2.522,2.522,0,0,1-1.384-2.257V-13.2a2.52,2.52,0,0,1,1.382-2.256l1.373-.7a.467.467,0,0,0,.253-.426l-.05-1.96a2.536,2.536,0,0,1,1.205-2.222l2.966-1.82a2.511,2.511,0,0,1,2.657.007l1.834,1.137a.461.461,0,0,0,.49,0l1.789-1.123a2.544,2.544,0,0,1,2.668-.014l2.959,1.816a2.536,2.536,0,0,1,1.205,2.221l-.05,1.961a.479.479,0,0,0,.255.427l1.371.695a2.521,2.521,0,0,1,1.384,2.257v4.114a2.519,2.519,0,0,1-1.382,2.255l-1.375.7a.476.476,0,0,0-.253.428l.05,1.957a2.535,2.535,0,0,1-1.205,2.222L7091.827.291a2.518,2.518,0,0,1-2.668-.014L7087.37-.847a.465.465,0,0,0-.49,0L7085.045.289A2.537,2.537,0,0,1,7083.712.672Zm0-22.275a1.18,1.18,0,0,0-.618.175l-2.966,1.821a1.19,1.19,0,0,0-.564,1.038l.051,1.958a1.821,1.821,0,0,1-.989,1.664l-1.373.7a1.177,1.177,0,0,0-.646,1.054v4.114a1.179,1.179,0,0,0,.648,1.055l1.368.695a1.819,1.819,0,0,1,.992,1.663l-.051,1.961a1.188,1.188,0,0,0,.564,1.036l2.966,1.821a1.172,1.172,0,0,0,1.241,0l1.834-1.136a1.824,1.824,0,0,1,1.921.005l1.784,1.124a1.19,1.19,0,0,0,1.248.006l2.958-1.817a1.184,1.184,0,0,0,.564-1.038l-.05-1.959a1.826,1.826,0,0,1,.99-1.662l1.375-.7a1.176,1.176,0,0,0,.646-1.053V-13.2a1.178,1.178,0,0,0-.647-1.055l-1.371-.695a1.832,1.832,0,0,1-.992-1.661l.05-1.963a1.185,1.185,0,0,0-.564-1.037l-2.958-1.816a1.184,1.184,0,0,0-1.246.006l-1.788,1.123a1.821,1.821,0,0,1-1.919.007l-1.834-1.138A1.177,1.177,0,0,0,7083.712-21.6Z" transform="translate(-7075.259 22.954)" fill="#23147b"/>
          </g>
        </g>
        <g id="Group_57846" data-name="Group 57846" transform="translate(39.686 25.386)">
          <g id="Group_57844" data-name="Group 57844" transform="translate(4.673 4.655)">
            <path id="Path_100861" data-name="Path 100861" d="M7089.669,12.165a2.79,2.79,0,1,1,2.778-2.8A2.8,2.8,0,0,1,7089.669,12.165Zm0-4.229a1.44,1.44,0,1,0,1.431,1.43A1.443,1.443,0,0,0,7089.669,7.935Z" transform="translate(-7086.871 -6.586)" fill="#23147b"/>
          </g>
          <g id="Group_57845" data-name="Group 57845">
            <path id="Path_100862" data-name="Path 100862" d="M7087.678,16.9a1.8,1.8,0,0,1-.942-.267l-1.805-1.107a1.8,1.8,0,0,1-.857-1.584l.031-1.189-.845-.439a1.789,1.789,0,0,1-.983-1.606V8.2a1.794,1.794,0,0,1,.983-1.606l.835-.424-.021-1.207a1.8,1.8,0,0,1,.857-1.582l1.8-1.105a1.784,1.784,0,0,1,1.892,0l1.115.692,1.1-.683a1.817,1.817,0,0,1,1.9-.009l1.8,1.1a1.815,1.815,0,0,1,.857,1.58l-.031,1.193.843.439A1.794,1.794,0,0,1,7097.2,8.2v2.5a1.791,1.791,0,0,1-.988,1.606l-.829.423.018,1.208a1.808,1.808,0,0,1-.857,1.58l-1.8,1.105a1.81,1.81,0,0,1-1.9-.009l-1.087-.684-1.134.692A1.8,1.8,0,0,1,7087.678,16.9Zm0-13.538a.457.457,0,0,0-.237.068l-1.8,1.106a.445.445,0,0,0-.216.4l.03,1.193a1.371,1.371,0,0,1-.746,1.253l-.837.424a.452.452,0,0,0-.246.4v2.5a.45.45,0,0,0,.246.4l.837.425a1.371,1.371,0,0,1,.746,1.252l-.03,1.192a.456.456,0,0,0,.213.4l1.805,1.106a.446.446,0,0,0,.476,0l1.116-.692a1.355,1.355,0,0,1,1.446,0l1.087.685a.449.449,0,0,0,.477,0l1.8-1.1a.46.46,0,0,0,.215-.4l-.03-1.19a1.367,1.367,0,0,1,.749-1.253l.829-.423a.454.454,0,0,0,.251-.4V8.2a.45.45,0,0,0-.251-.4l-.831-.422a1.371,1.371,0,0,1-.747-1.254l.03-1.191a.461.461,0,0,0-.218-.4l-1.8-1.1a.452.452,0,0,0-.479,0l-1.083.681a1.364,1.364,0,0,1-1.449.006l-1.116-.693A.459.459,0,0,0,7087.676,3.36Z" transform="translate(-7082.276 -2.009)" fill="#23147b"/>
          </g>
        </g>
      </g>
      <g id="Group_57857" data-name="Group 57857" transform="translate(6920.795 111.857)">
        <g id="Group_57848" data-name="Group 57848">
          <path id="Path_100863" data-name="Path 100863" d="M6950.519,143.62h-31.689a1.179,1.179,0,0,1-1.18-1.18V107.785a1.18,1.18,0,0,1,2.359,0V141.26h30.51a1.18,1.18,0,0,1,0,2.36Z" transform="translate(-6917.649 -106.605)" fill="#23147b"/>
        </g>
        <g id="Group_57849" data-name="Group 57849" transform="translate(12.989 5.56)">
          <path id="Path_100864" data-name="Path 100864" d="M6940.527,132.37a10.1,10.1,0,0,1-7.159-2.959,10.243,10.243,0,0,1,0-14.375,10.131,10.131,0,0,1,14.316,0h0a10.147,10.147,0,0,1,3.008,7.261,10.186,10.186,0,0,1-10.162,10.077Zm0-18.746a8.547,8.547,0,0,0-6.06,2.5,8.687,8.687,0,0,0,0,12.186,8.583,8.583,0,0,0,12.12,0,8.438,8.438,0,0,0,2.553-6.028,8.634,8.634,0,0,0-8.613-8.662Z" transform="translate(-6930.421 -112.073)" fill="#23147b"/>
        </g>
        <g id="Group_57850" data-name="Group 57850" transform="translate(32.279 24.912)">
          <path id="Path_100865" data-name="Path 100865" d="M6952.07,131.3l8.966,8.9a.911.911,0,0,1,0,1.146l-1.415,1.348a.7.7,0,0,1-1.079,0l-8.9-8.9a.7.7,0,0,1,0-1.079l1.348-1.416a.82.82,0,0,1,1.079,0Z" transform="translate(-6949.39 -131.102)" fill="#23147b" fill-rule="evenodd"/>
        </g>
        <g id="Group_57851" data-name="Group 57851" transform="translate(28.991 21.643)">
          <path id="Path_100866" data-name="Path 100866" d="M6955.361,137.8a.71.71,0,0,1-.5-.207l-8.495-8.5a.709.709,0,0,1,1-1l8.494,8.5a.709.709,0,0,1-.5,1.208Z" transform="translate(-6946.157 -127.887)" fill="#23147b"/>
        </g>
        <g id="Group_57852" data-name="Group 57852" transform="translate(0.506 6.979)">
          <path id="Path_100867" data-name="Path 100867" d="M6932.171,136.189a.67.67,0,0,1-.46-.183l-6.738-6.291-5.752,4.251a.674.674,0,0,1-.8-1.085l6.2-4.583a.67.67,0,0,1,.859.05l6.489,6.059,6.4-12.747a.671.671,0,0,1,.325-.311l17.395-7.82a.674.674,0,1,1,.553,1.228l-17.177,7.723-6.7,13.338a.67.67,0,0,1-.482.36A.592.592,0,0,1,6932.171,136.189Z" transform="translate(-6918.146 -113.467)" fill="#23147b"/>
        </g>
        <g id="Group_57853" data-name="Group 57853" transform="translate(5.968 20.935)">
          <path id="Path_100868" data-name="Path 100868" d="M6924.933,130.022a1.424,1.424,0,0,0,1.415-1.416,1.47,1.47,0,0,0-1.415-1.416,1.424,1.424,0,0,0-1.416,1.416,1.382,1.382,0,0,0,1.416,1.416Z" transform="translate(-6923.518 -127.191)" fill="#23147b" fill-rule="evenodd"/>
        </g>
        <g id="Group_57854" data-name="Group 57854" transform="translate(13.114 27.609)">
          <path id="Path_100869" data-name="Path 100869" d="M6931.961,136.585a1.424,1.424,0,0,0,1.416-1.416,1.471,1.471,0,0,0-1.416-1.416,1.425,1.425,0,0,0-1.417,1.416,1.383,1.383,0,0,0,1.417,1.416Z" transform="translate(-6930.544 -133.754)" fill="#23147b" fill-rule="evenodd"/>
        </g>
        <g id="Group_57855" data-name="Group 57855" transform="translate(19.923 14.057)">
          <path id="Path_100870" data-name="Path 100870" d="M6938.656,123.26a1.383,1.383,0,0,0,1.416-1.417,1.424,1.424,0,0,0-1.416-1.416,1.471,1.471,0,0,0-1.416,1.416,1.424,1.424,0,0,0,1.416,1.417Z" transform="translate(-6937.24 -120.428)" fill="#23147b" fill-rule="evenodd"/>
        </g>
        <g id="Group_57856" data-name="Group 57856" transform="translate(37.318 6.237)">
          <path id="Path_100871" data-name="Path 100871" d="M6955.761,115.569a1.424,1.424,0,0,0,1.417-1.416,1.382,1.382,0,0,0-1.417-1.416,1.423,1.423,0,0,0-1.415,1.416,1.47,1.47,0,0,0,1.415,1.416Z" transform="translate(-6954.346 -112.738)" fill="#23147b" fill-rule="evenodd"/>
        </g>
      </g>
      <path id="Path_100872" data-name="Path 100872" d="M7126.635-47.215a72.676,72.676,0,0,0-102.682,0L6972.577,4.159l51.375,51.375a72.554,72.554,0,0,0,102.682,0A72.635,72.635,0,0,0,7126.635-47.215ZM7108.97,37.87a47.61,47.61,0,0,1-67.354,0L7007.906,4.159l33.711-33.711a47.61,47.61,0,0,1,67.354,0A47.692,47.692,0,0,1,7108.97,37.87Z" transform="translate(4.078 2.285)" fill="url(#linear-gradient)"/>
      <path id="Path_100873" data-name="Path 100873" d="M6990.819,88.666l-51.375-51.375L6888.07,88.666a72.631,72.631,0,1,0,102.75,0Zm-17.665,85.018a47.65,47.65,0,0,1-67.42-67.354l33.71-33.711,33.71,33.711A47.608,47.608,0,0,1,6973.155,173.684Z" transform="translate(2.285 4.078)" fill="url(#linear-gradient-2)"/>
      <path id="Path_100874" data-name="Path 100874" d="M6855.971-46.684a72.554,72.554,0,0,0-102.682,0,72.634,72.634,0,0,0,0,102.749,72.676,72.676,0,0,0,102.682,0L6907.346,4.69ZM6838.307,38.4a47.611,47.611,0,0,1-67.354,0,47.69,47.69,0,0,1,0-67.421,47.611,47.611,0,0,1,67.354,0l33.71,33.71Z" transform="translate(0 2.293)" fill="url(#linear-gradient-3)"/>
      <path id="Path_100875" data-name="Path 100875" d="M6991.352-182a72.634,72.634,0,0,0-102.75,0,72.553,72.553,0,0,0,0,102.682l51.375,51.374,51.375-51.374A72.676,72.676,0,0,0,6991.352-182Zm-17.665,85.018-33.71,33.711-33.71-33.711a47.608,47.608,0,0,1,0-67.354,47.691,47.691,0,0,1,67.42,0A47.609,47.609,0,0,1,6973.687-96.979Z" transform="translate(2.293)" fill="url(#linear-gradient-4)"/>
      <g id="Group_57870" data-name="Group 57870" transform="translate(6925.011 -166.21)">
        <g id="Group_57858" data-name="Group 57858" transform="translate(9.514)">
          <path id="Path_100876" data-name="Path 100876" d="M6933.7-166.165h13.079l12.339,11.6v23.395a1.884,1.884,0,0,1-1.887,1.887H6933.7a1.93,1.93,0,0,1-1.889-1.887v-33.1a1.885,1.885,0,0,1,1.889-1.888Z" transform="translate(-6931.138 166.839)" fill="#fff"/>
          <path id="Path_100877" data-name="Path 100877" d="M6957.241-128.6h-23.529a2.6,2.6,0,0,1-2.563-2.563v-33.1a2.566,2.566,0,0,1,2.563-2.562h13.079a.676.676,0,0,1,.463.184l12.338,11.6a.678.678,0,0,1,.211.492v23.395A2.566,2.566,0,0,1,6957.241-128.6Zm-23.529-36.88a1.216,1.216,0,0,0-1.215,1.212v33.1a1.261,1.261,0,0,0,1.215,1.213h23.529a1.215,1.215,0,0,0,1.214-1.213v-23.1l-11.932-11.213Z" transform="translate(-6931.149 166.828)" fill="#23147b"/>
        </g>
        <g id="Group_57859" data-name="Group 57859" transform="translate(24.482)">
          <path id="Path_100878" data-name="Path 100878" d="M6958.868-154.568h-10.383a1.9,1.9,0,0,1-1.956-1.888v-9.709Z" transform="translate(-6945.857 166.839)" fill="#23147b" fill-rule="evenodd"/>
          <path id="Path_100879" data-name="Path 100879" d="M6958.88-153.882H6948.5a2.569,2.569,0,0,1-2.629-2.563v-9.708a.675.675,0,0,1,.406-.619.675.675,0,0,1,.73.128l12.338,11.6a.673.673,0,0,1,.165.74A.675.675,0,0,1,6958.88-153.882Zm-11.666-10.713v8.15a1.222,1.222,0,0,0,1.283,1.213h8.68Z" transform="translate(-6945.868 166.828)" fill="#23147b"/>
        </g>
        <g id="Group_57860" data-name="Group 57860" transform="translate(16.187 19.013)">
          <path id="Path_100880" data-name="Path 100880" d="M6952.342-146.783h-13.957a.675.675,0,0,1-.674-.675.675.675,0,0,1,.674-.674h13.957a.675.675,0,0,1,.674.674A.675.675,0,0,1,6952.342-146.783Z" transform="translate(-6937.711 148.132)" fill="#23147b"/>
        </g>
        <g id="Group_57861" data-name="Group 57861" transform="translate(16.187 24.541)">
          <path id="Path_100881" data-name="Path 100881" d="M6952.342-141.347h-13.957a.675.675,0,0,1-.674-.675.675.675,0,0,1,.674-.674h13.957a.675.675,0,0,1,.674.674A.675.675,0,0,1,6952.342-141.347Z" transform="translate(-6937.711 142.696)" fill="#23147b"/>
        </g>
        <g id="Group_57862" data-name="Group 57862" transform="translate(16.187 30.07)">
          <path id="Path_100882" data-name="Path 100882" d="M6952.342-135.91h-13.957a.675.675,0,0,1-.674-.675.675.675,0,0,1,.674-.674h13.957a.675.675,0,0,1,.674.674A.675.675,0,0,1,6952.342-135.91Z" transform="translate(-6937.711 137.259)" fill="#23147b"/>
        </g>
        <g id="Group_57863" data-name="Group 57863" transform="translate(18.614 4.787)">
          <path id="Path_100883" data-name="Path 100883" d="M6940.772-153.827a.675.675,0,0,1-.674-.675v-6.944a.675.675,0,0,1,.674-.675.674.674,0,0,1,.673.675v6.944A.674.674,0,0,1,6940.772-153.827Z" transform="translate(-6940.098 162.121)" fill="#23147b"/>
        </g>
        <g id="Group_57864" data-name="Group 57864" transform="translate(0 14.271)">
          <path id="Path_100884" data-name="Path 100884" d="M6924.344-152.132h13.08l12.339,11.6v23.4a1.885,1.885,0,0,1-1.889,1.887h-23.53a1.929,1.929,0,0,1-1.887-1.887v-33.1a1.885,1.885,0,0,1,1.887-1.888Z" transform="translate(-6921.783 152.806)" fill="#fff"/>
          <path id="Path_100885" data-name="Path 100885" d="M6947.885-114.567h-23.529a2.6,2.6,0,0,1-2.562-2.562v-33.1a2.566,2.566,0,0,1,2.562-2.562h13.08a.672.672,0,0,1,.461.184l12.339,11.6a.683.683,0,0,1,.211.492v23.395A2.566,2.566,0,0,1,6947.885-114.567Zm-23.529-36.879a1.215,1.215,0,0,0-1.214,1.212v33.1a1.26,1.26,0,0,0,1.214,1.212h23.529a1.215,1.215,0,0,0,1.215-1.212v-23.1l-11.932-11.213Z" transform="translate(-6921.794 152.795)" fill="#23147b"/>
        </g>
        <g id="Group_57865" data-name="Group 57865" transform="translate(14.968 14.271)">
          <path id="Path_100886" data-name="Path 100886" d="M6949.513-140.536H6939.13a1.9,1.9,0,0,1-1.956-1.887v-9.709Z" transform="translate(-6936.501 152.806)" fill="#23147b" fill-rule="evenodd"/>
          <path id="Path_100887" data-name="Path 100887" d="M6949.524-139.849h-10.382a2.57,2.57,0,0,1-2.629-2.563v-9.708a.675.675,0,0,1,.406-.619.672.672,0,0,1,.729.128l12.339,11.6a.672.672,0,0,1,.164.74A.675.675,0,0,1,6949.524-139.849Zm-11.665-10.713v8.15a1.221,1.221,0,0,0,1.282,1.213h8.68Z" transform="translate(-6936.513 152.795)" fill="#23147b"/>
        </g>
        <g id="Group_57866" data-name="Group 57866" transform="translate(6.673 33.284)">
          <path id="Path_100888" data-name="Path 100888" d="M6942.987-132.75h-13.957a.675.675,0,0,1-.675-.675.675.675,0,0,1,.675-.674h13.957a.673.673,0,0,1,.673.674A.674.674,0,0,1,6942.987-132.75Z" transform="translate(-6928.356 134.099)" fill="#23147b"/>
        </g>
        <g id="Group_57867" data-name="Group 57867" transform="translate(6.673 38.812)">
          <path id="Path_100889" data-name="Path 100889" d="M6942.987-127.314h-13.957a.675.675,0,0,1-.675-.675.675.675,0,0,1,.675-.674h13.957a.673.673,0,0,1,.673.674A.674.674,0,0,1,6942.987-127.314Z" transform="translate(-6928.356 128.663)" fill="#23147b"/>
        </g>
        <g id="Group_57868" data-name="Group 57868" transform="translate(6.673 44.341)">
          <path id="Path_100890" data-name="Path 100890" d="M6942.987-121.877h-13.957a.675.675,0,0,1-.675-.675.675.675,0,0,1,.675-.674h13.957a.673.673,0,0,1,.673.674A.674.674,0,0,1,6942.987-121.877Z" transform="translate(-6928.356 123.226)" fill="#23147b"/>
        </g>
        <g id="Group_57869" data-name="Group 57869" transform="translate(9.101 19.058)">
          <path id="Path_100891" data-name="Path 100891" d="M6931.416-139.794a.675.675,0,0,1-.673-.675v-6.944a.675.675,0,0,1,.673-.675.675.675,0,0,1,.674.675v6.944A.675.675,0,0,1,6931.416-139.794Z" transform="translate(-6930.743 148.088)" fill="#23147b"/>
        </g>
      </g>
      <path id="Path_100892" data-name="Path 100892" d="M6868.917-32.321l-17.665,17.664,55.757,55.69-.2-35.464Z" transform="translate(2.021 2.898)" fill="url(#linear-gradient-5)"/>
      <path id="Path_100893" data-name="Path 100893" d="M6894.723-20.706l36.07-.809-67.287,67.354-19.215-16.114Z" transform="translate(1.903 3.081)" fill="#42e0e6"/>
      <path id="Path_100894" data-name="Path 100894" d="M6939.36-29.869l-35.666.337,59.938-59.937,19.215,16.114Z" transform="translate(2.91 1.929)" fill="url(#linear-gradient-6)"/>
      <path id="Path_100895" data-name="Path 100895" d="M6920.629-84.033l-17.664,17.664,61.893,61.893-.2-35.464Z" transform="translate(2.898 2.021)" fill="#9a4cbc"/>
      <path id="Path_100896" data-name="Path 100896" d="M6938.959,37.3l36.071-.809L6914.688,96.9l-19.215-16.114Z" transform="translate(2.771 4.064)" fill="url(#linear-gradient-7)"/>
      <path id="Path_100897" data-name="Path 100897" d="M6957.4,91.785l17.665-17.664-61.69-61.758.135,35.531Z" transform="translate(3.074 3.655)" fill="#9a4cbc"/>
      <path id="Path_100898" data-name="Path 100898" d="M7009.012,39.972l17.665-17.664-55.757-55.69.2,35.464Z" transform="translate(4.049 2.88)" fill="url(#linear-gradient-8)"/>
      <path id="Path_100899" data-name="Path 100899" d="M6983.719,28.257l-36.07.742,67.287-67.286,19.215,16.114Z" transform="translate(3.655 2.797)" fill="#42e0e6"/>
      <text id="Planear" transform="translate(6943.688 -97.655)" fill="#23147b" font-size="14" font-family="Roboto-Regular, Roboto"><tspan x="-23.669" y="0">Planear</tspan></text>
      <text id="Hacer" transform="translate(7076.325 36.583)" fill="#23147b" font-size="14" font-family="Roboto-Regular, Roboto"><tspan x="-18.539" y="0">Hacer</tspan></text>
      <text id="Verificar" transform="translate(6942.418 169.803)" fill="#23147b" font-size="14" font-family="Roboto-Regular, Roboto"><tspan x="-25.795" y="0">Verificar</tspan></text>
      <text id="Actuar" transform="translate(6805.892 36.583)" fill="#23147b" font-size="14" font-family="Roboto-Regular, Roboto"><tspan x="-20.552" y="0">Actuar</tspan></text>
    </g>
  </g>
</svg>
